<svg width="40" height="40" viewBox="0 0 40 40" fill="none" xmlns="http://www.w3.org/2000/svg">
<path d="M7.5 40C7.39333 40 7.285 39.9783 7.18167 39.9367C6.87 39.8083 6.66667 39.5033 6.66667 39.1667V31.6667H4.16667C1.87 31.6667 0 29.7983 0 27.5V4.16667C0 1.86833 1.87 0 4.16667 0H35.8333C38.13 0 40 1.86833 40 4.16667V27.5C40 29.7983 38.13 31.6667 35.8333 31.6667H16.1783L8.08833 39.7567C7.93 39.915 7.71667 40 7.5 40ZM4.16667 1.66667C2.78833 1.66667 1.66667 2.78833 1.66667 4.16667V27.5C1.66667 28.8783 2.78833 30 4.16667 30H7.5C7.96 30 8.33333 30.3733 8.33333 30.8333V37.155L15.2433 30.245C15.4 30.0883 15.6117 30 15.8333 30H35.8333C37.2117 30 38.3333 28.8783 38.3333 27.5V4.16667C38.3333 2.78833 37.2117 1.66667 35.8333 1.66667H4.16667Z" fill="#B5243D"/>
<path d="M21.6667 25H18.3333C17.5317 25 16.6667 24.385 16.6667 23.0333V20.8333C16.6667 19.8567 16.245 18.9633 15.54 18.4433C13.5917 17.01 12.455 14.715 12.5017 12.3067C12.5767 8.33833 15.8917 5.05833 19.89 5C21.8867 5.01 23.84 5.73833 25.2833 7.16333C26.7117 8.57333 27.5 10.4517 27.5 12.455C27.5 14.7917 26.375 17.0233 24.49 18.4233C23.765 18.9617 23.3333 19.8667 23.3333 20.845V23.3333C23.3333 24.2533 22.585 25 21.6667 25ZM19.9983 6.66667C19.97 6.66667 19.9417 6.66667 19.9133 6.66667C16.8583 6.71167 14.2267 9.31 14.1683 12.34C14.1317 14.2067 15.0133 15.9867 16.5283 17.1017C17.6583 17.935 18.3333 19.33 18.3333 20.8333V23.0333C18.3333 23.2817 18.3933 23.3633 18.3933 23.3633L21.6667 23.3333V20.845C21.6667 19.3433 22.35 17.9383 23.495 17.085C24.9817 15.9817 25.8333 14.2933 25.8333 12.455C25.8333 10.9017 25.2217 9.44333 24.1117 8.35C23.01 7.26167 21.5517 6.66667 19.9983 6.66667Z" fill="#B5243D"/>
<path d="M22.5 21.6667H17.5C17.04 21.6667 16.6666 21.2933 16.6666 20.8333C16.6666 20.3733 17.04 20 17.5 20H22.5C22.96 20 23.3333 20.3733 23.3333 20.8333C23.3333 21.2933 22.96 21.6667 22.5 21.6667Z" fill="#B5243D"/>
</svg>
