<svg width="40" height="40" viewBox="0 0 40 40" fill="none" xmlns="http://www.w3.org/2000/svg">
<path d="M36.875 6.25V1.875C36.875 1.70924 36.8092 1.55027 36.6919 1.43306C36.5747 1.31585 36.4158 1.25 36.25 1.25H13.75C13.5842 1.25 13.4253 1.31585 13.3081 1.43306C13.1908 1.55027 13.125 1.70924 13.125 1.875V6.25H3.125C2.62818 6.25148 2.15212 6.4495 1.80081 6.80081C1.4495 7.15212 1.25148 7.62818 1.25 8.125V29.375C1.25148 29.8718 1.4495 30.3479 1.80081 30.6992C2.15212 31.0505 2.62818 31.2485 3.125 31.25C3.125 31.4158 3.19085 31.5747 3.30806 31.6919C3.42527 31.8092 3.58424 31.875 3.75 31.875H4.95625C5.0125 32.025 5.075 32.1687 5.1375 32.3187L4.2875 33.1688C4.17041 33.2868 4.1047 33.4463 4.1047 33.6125C4.1047 33.7787 4.17041 33.9382 4.2875 34.0563L7.81875 37.5875C7.93675 37.7046 8.09626 37.7703 8.2625 37.7703C8.42874 37.7703 8.58825 37.7046 8.70625 37.5875L9.55625 36.7375C9.70625 36.8 9.85 36.8625 10 36.9188V38.125C10 38.2908 10.0658 38.4497 10.1831 38.5669C10.3003 38.6842 10.4592 38.75 10.625 38.75H26.875C27.0408 38.75 27.1997 38.6842 27.3169 38.5669C27.4342 38.4497 27.5 38.2908 27.5 38.125V34.375C27.5 34.2092 27.4342 34.0503 27.3169 33.9331C27.1997 33.8158 27.0408 33.75 26.875 33.75H23.75V31.25H36.875C37.3718 31.2485 37.8479 31.0505 38.1992 30.6992C38.5505 30.3479 38.7485 29.8718 38.75 29.375V8.125C38.7485 7.62818 38.5505 7.15212 38.1992 6.80081C37.8479 6.4495 37.3718 6.25148 36.875 6.25ZM14.375 2.5H35.625V5H14.375V2.5ZM14.375 6.25H35.625V20H18.5187L18.4312 19.9125C18.3118 19.7982 18.1528 19.7344 17.9875 19.7344C17.8222 19.7344 17.6632 19.7982 17.5438 19.9125L16.6937 20.7625C16.5437 20.7 16.4 20.6375 16.25 20.5812V19.375C16.25 19.2092 16.1842 19.0503 16.0669 18.9331C15.9497 18.8158 15.7908 18.75 15.625 18.75H14.375V6.25ZM3.125 30C2.95924 30 2.80027 29.9342 2.68306 29.8169C2.56585 29.6997 2.5 29.5408 2.5 29.375V27.5H3.125V30ZM3.125 26.25H2.5V8.125C2.5 7.95924 2.56585 7.80027 2.68306 7.68306C2.80027 7.56585 2.95924 7.5 3.125 7.5H13.125V18.75H10.625C10.4592 18.75 10.3003 18.8158 10.1831 18.9331C10.0658 19.0503 10 19.2092 10 19.375V20.5812C9.85 20.6375 9.70625 20.7 9.55625 20.7625L8.70625 19.9125C8.64837 19.8534 8.57934 19.8065 8.50317 19.7743C8.42699 19.7421 8.34519 19.7253 8.2625 19.725C8.09571 19.7269 7.93634 19.7942 7.81875 19.9125L4.2875 23.4437C4.17041 23.5618 4.1047 23.7213 4.1047 23.8875C4.1047 24.0537 4.17041 24.2132 4.2875 24.3312L5.1375 25.1813C5.075 25.3313 5.0125 25.475 4.95625 25.625H3.75C3.58424 25.625 3.42527 25.6908 3.30806 25.8081C3.19085 25.9253 3.125 26.0842 3.125 26.25ZM16.25 37.5V36.9188C16.4 36.8625 16.5437 36.8 16.6937 36.7375L17.4562 37.5H16.25ZM17.2625 35.5375C17.1695 35.4438 17.049 35.3823 16.9185 35.3621C16.788 35.3418 16.6545 35.3639 16.5375 35.425C16.1827 35.6089 15.8125 35.7615 15.4313 35.8812C15.3055 35.9234 15.1963 36.0041 15.1189 36.1117C15.0415 36.2194 14.9999 36.3487 15 36.4813V37.5H11.25V36.4813C11.2501 36.3487 11.2085 36.2194 11.1311 36.1117C11.0537 36.0041 10.9445 35.9234 10.8187 35.8812C10.4375 35.7615 10.0673 35.6089 9.7125 35.425C9.59548 35.3639 9.46197 35.3418 9.3315 35.3621C9.20104 35.3823 9.08049 35.4438 8.9875 35.5375L8.2625 36.2625L5.6125 33.6125L6.3375 32.8875C6.43122 32.7945 6.4927 32.674 6.51295 32.5435C6.53319 32.413 6.51113 32.2795 6.45 32.1625C6.26614 31.8077 6.11349 31.4375 5.99375 31.0562C5.95156 30.9305 5.87094 30.8213 5.76327 30.7439C5.6556 30.6665 5.52634 30.6249 5.39375 30.625H4.375V26.875H5.39375C5.52634 26.8751 5.6556 26.8335 5.76327 26.7561C5.87094 26.6787 5.95156 26.5695 5.99375 26.4438C6.11349 26.0625 6.26614 25.6923 6.45 25.3375C6.51113 25.2205 6.53319 25.087 6.51295 24.9565C6.4927 24.826 6.43122 24.7055 6.3375 24.6125L5.6125 23.8875L8.2625 21.2375L8.9875 21.9625C9.08049 22.0562 9.20104 22.1177 9.3315 22.1379C9.46197 22.1582 9.59548 22.1361 9.7125 22.075C10.0673 21.8911 10.4375 21.7385 10.8187 21.6187C10.9445 21.5766 11.0537 21.4959 11.1311 21.3883C11.2085 21.2806 11.2501 21.1513 11.25 21.0188V20H15V21.0188C14.9999 21.1513 15.0415 21.2806 15.1189 21.3883C15.1963 21.4959 15.3055 21.5766 15.4313 21.6187C15.8125 21.7385 16.1827 21.8911 16.5375 22.075C16.6545 22.1361 16.788 22.1582 16.9185 22.1379C17.049 22.1177 17.1695 22.0562 17.2625 21.9625L17.9875 21.2375L20.6375 23.8875L19.9125 24.6125C19.8188 24.7055 19.7573 24.826 19.7371 24.9565C19.7168 25.087 19.7389 25.2205 19.8 25.3375C19.9839 25.6923 20.1365 26.0625 20.2563 26.4438C20.2984 26.5695 20.3791 26.6787 20.4867 26.7561C20.5944 26.8335 20.7237 26.8751 20.8562 26.875H21.875V30.625H20.8562C20.7237 30.6249 20.5944 30.6665 20.4867 30.7439C20.3791 30.8213 20.2984 30.9305 20.2563 31.0562C20.1365 31.4375 19.9839 31.8077 19.8 32.1625C19.7389 32.2795 19.7168 32.413 19.7371 32.5435C19.7573 32.674 19.8188 32.7945 19.9125 32.8875L20.6375 33.6125L17.9875 36.2625L17.2625 35.5375ZM21.9625 33.1688L21.1125 32.3187C21.175 32.1687 21.2375 32.025 21.2938 31.875H22.5V33.75H22.1187C22.1449 33.6479 22.1442 33.5407 22.1169 33.4389C22.0895 33.3371 22.0363 33.244 21.9625 33.1688ZM26.25 35V37.5H18.5187L21.0188 35H26.25ZM37.5 29.375C37.5 29.5408 37.4342 29.6997 37.3169 29.8169C37.1997 29.9342 37.0408 30 36.875 30H23.125V27.5H37.5V29.375ZM37.5 26.25H23.125C23.125 26.0842 23.0592 25.9253 22.9419 25.8081C22.8247 25.6908 22.6658 25.625 22.5 25.625H21.2938C21.2375 25.475 21.175 25.3313 21.1125 25.1813L21.9625 24.3312C22.0796 24.2132 22.1453 24.0537 22.1453 23.8875C22.1453 23.7213 22.0796 23.5618 21.9625 23.4437L19.7687 21.25H36.25C36.4158 21.25 36.5747 21.1842 36.6919 21.0669C36.8092 20.9497 36.875 20.7908 36.875 20.625V7.5C37.0408 7.5 37.1997 7.56585 37.3169 7.68306C37.4342 7.80027 37.5 7.95924 37.5 8.125V26.25Z" fill="#B5243D"/>
<path d="M4.375 9.375H5.625V8.125H3.75C3.58424 8.125 3.42527 8.19085 3.30806 8.30806C3.19085 8.42527 3.125 8.58424 3.125 8.75V10.625H4.375V9.375Z" fill="#B5243D"/>
<path d="M3.125 11.875H4.375V13.125H3.125V11.875Z" fill="#B5243D"/>
<path d="M15.625 3.125H16.875V4.375H15.625V3.125Z" fill="#B5243D"/>
<path d="M18.125 3.125H19.375V4.375H18.125V3.125Z" fill="#B5243D"/>
<path d="M20.625 3.125H21.875V4.375H20.625V3.125Z" fill="#B5243D"/>
<path d="M31.25 16.875V8.75C31.25 8.58424 31.1842 8.42527 31.0669 8.30806C30.9497 8.19085 30.7908 8.125 30.625 8.125H28.125C27.9592 8.125 27.8003 8.19085 27.6831 8.30806C27.5658 8.42527 27.5 8.58424 27.5 8.75V16.875H26.875V11.25C26.875 11.0842 26.8092 10.9253 26.6919 10.8081C26.5747 10.6908 26.4158 10.625 26.25 10.625H23.75C23.5842 10.625 23.4253 10.6908 23.3081 10.8081C23.1908 10.9253 23.125 11.0842 23.125 11.25V16.875H22.5V13.125C22.5 12.9592 22.4342 12.8003 22.3169 12.6831C22.1997 12.5658 22.0408 12.5 21.875 12.5H19.375C19.2092 12.5 19.0503 12.5658 18.9331 12.6831C18.8158 12.8003 18.75 12.9592 18.75 13.125V16.875H17.5V18.125H32.5V16.875H31.25ZM21.25 16.875H20V13.75H21.25V16.875ZM25.625 16.875H24.375V11.875H25.625V16.875ZM30 16.875H28.75V9.375H30V16.875Z" fill="#B5243D"/>
<path d="M18.75 28.75C18.75 27.6375 18.4201 26.5499 17.802 25.6249C17.1839 24.6999 16.3054 23.9789 15.2776 23.5532C14.2498 23.1274 13.1188 23.016 12.0276 23.2331C10.9365 23.4501 9.9342 23.9859 9.14753 24.7725C8.36086 25.5592 7.82513 26.5615 7.60809 27.6526C7.39104 28.7438 7.50244 29.8748 7.92818 30.9026C8.35392 31.9304 9.07489 32.8089 9.99992 33.427C10.9249 34.0451 12.0125 34.375 13.125 34.375C14.6163 34.3733 16.0461 33.7802 17.1007 32.7257C18.1552 31.6711 18.7483 30.2413 18.75 28.75ZM13.125 33.125C12.2597 33.125 11.4138 32.8684 10.6944 32.3877C9.97492 31.907 9.41416 31.2237 9.08303 30.4242C8.7519 29.6248 8.66526 28.7452 8.83407 27.8965C9.00288 27.0478 9.41956 26.2683 10.0314 25.6564C10.6433 25.0446 11.4228 24.6279 12.2715 24.4591C13.1201 24.2903 13.9998 24.3769 14.7992 24.708C15.5987 25.0392 16.282 25.5999 16.7627 26.3194C17.2434 27.0388 17.5 27.8847 17.5 28.75C17.4987 29.9099 17.0373 31.022 16.2171 31.8421C15.3969 32.6623 14.2849 33.1237 13.125 33.125Z" fill="#B5243D"/>
<path d="M13.125 25C12.3833 25 11.6583 25.2199 11.0416 25.632C10.4249 26.044 9.94428 26.6297 9.66045 27.3149C9.37662 28.0002 9.30236 28.7542 9.44706 29.4816C9.59175 30.209 9.9489 30.8772 10.4734 31.4017C10.9978 31.9261 11.666 32.2833 12.3934 32.4279C13.1208 32.5726 13.8748 32.4984 14.5601 32.2146C15.2453 31.9307 15.831 31.4501 16.243 30.8334C16.6551 30.2167 16.875 29.4917 16.875 28.75C16.874 27.7557 16.4786 26.8025 15.7756 26.0994C15.0725 25.3964 14.1193 25.001 13.125 25ZM13.125 31.25C12.6305 31.25 12.1472 31.1034 11.7361 30.8287C11.325 30.554 11.0045 30.1635 10.8153 29.7067C10.6261 29.2499 10.5766 28.7472 10.673 28.2623C10.7695 27.7773 11.0076 27.3319 11.3572 26.9822C11.7069 26.6326 12.1523 26.3945 12.6373 26.298C13.1222 26.2016 13.6249 26.2511 14.0817 26.4403C14.5385 26.6295 14.929 26.95 15.2037 27.3611C15.4784 27.7722 15.625 28.2555 15.625 28.75C15.625 29.413 15.3616 30.0489 14.8928 30.5178C14.4239 30.9866 13.788 31.25 13.125 31.25Z" fill="#B5243D"/>
</svg>
