<svg width="40" height="40" viewBox="0 0 40 40" fill="none" xmlns="http://www.w3.org/2000/svg">
<path d="M24.6875 5.9375C24.6875 3.35281 22.5847 1.25 20 1.25C17.4153 1.25 15.3125 3.35281 15.3125 5.9375C15.3125 8.52219 17.4153 10.625 20 10.625C22.5847 10.625 24.6875 8.52219 24.6875 5.9375ZM20 9.0625C18.2769 9.0625 16.875 7.66062 16.875 5.9375C16.875 4.21438 18.2769 2.8125 20 2.8125C21.7231 2.8125 23.125 4.21438 23.125 5.9375C23.125 7.66062 21.7231 9.0625 20 9.0625Z" fill="#B5243D"/>
<path d="M27.0312 20.7812V17.6562C27.0312 13.7792 23.877 10.625 20 10.625C16.123 10.625 12.9688 13.7792 12.9688 17.6562V20.7812C12.9688 21.2127 13.3186 21.5625 13.75 21.5625H26.25C26.6814 21.5625 27.0312 21.2127 27.0312 20.7812ZM25.4688 20H14.5312V17.6562C14.5312 14.6408 16.9845 12.1875 20 12.1875C23.0155 12.1875 25.4688 14.6408 25.4688 17.6562V20Z" fill="#B5243D"/>
<path d="M5.61391 31.8839L9.375 33.7641V37.9688C9.375 38.4002 9.72484 38.75 10.1562 38.75H18.4375C18.8689 38.75 19.2188 38.4002 19.2188 37.9688V28.0297C19.2188 25.5466 17.3866 23.4045 15.0476 23.1529C14.9855 23.1412 12.0281 22.9208 10.5985 21.4921L8.45945 19.3531C7.86914 18.7627 7.08445 18.4375 6.25 18.4375V12.1875C6.25 10.4644 4.84812 9.0625 3.125 9.0625C1.40188 9.0625 0 10.4644 0 12.1875V22.8C0 26.6447 2.17172 30.1624 5.61391 31.8839ZM1.5625 12.1875C1.5625 11.3259 2.26344 10.625 3.125 10.625C3.98656 10.625 4.6875 11.3259 4.6875 12.1875V18.8563C3.73469 19.4073 3.125 20.4345 3.125 21.5625C3.125 22.3969 3.45016 23.1815 4.04055 23.7719L8.04133 27.7734C8.34625 28.0785 8.84102 28.0787 9.14617 27.7735C9.45125 27.4684 9.45133 26.9738 9.14625 26.6687L5.14547 22.667C4.85016 22.3718 4.6875 21.9795 4.6875 21.5625C4.6875 20.9012 5.10602 20.3091 5.72906 20.089C5.7293 20.0889 5.72953 20.0888 5.72977 20.0887H5.72984C6.26734 19.8981 6.90688 20.0102 7.35461 20.4579L9.49391 22.5972C10.9509 24.0532 13.0745 24.4627 14.8717 24.7055C14.8746 24.7058 14.8776 24.7062 14.8805 24.7065C16.437 24.8738 17.6562 26.3336 17.6562 28.0297V37.1875H10.9375V33.2812C10.9375 32.9853 10.7702 32.7148 10.5056 32.5825L6.31273 30.4864C3.38273 29.021 1.5625 26.0758 1.5625 22.8V12.1875Z" fill="#B5243D"/>
<path d="M35.8594 30.7812C36.2908 30.7812 36.6406 30.4315 36.6406 30C36.6406 29.5685 36.2908 29.2188 35.8594 29.2188C35.4279 29.2188 35.0781 29.5685 35.0781 30C35.0781 30.4315 35.4279 30.7812 35.8594 30.7812Z" fill="#B5243D"/>
<path d="M36.875 9.0625C35.1519 9.0625 33.75 10.4644 33.75 12.1875V18.4375C32.9155 18.4375 32.1309 18.7627 31.5405 19.353L29.4017 21.4919C28.1548 22.7379 26.1323 22.9456 24.9524 23.153C22.6134 23.4045 20.7812 25.5466 20.7812 28.0297V37.9688C20.7812 38.4002 21.1311 38.75 21.5625 38.75H29.8438C30.2752 38.75 30.625 38.4002 30.625 37.9688V33.7641L33.182 32.4859C33.5679 32.2929 33.7244 31.8237 33.5315 31.4377C33.3386 31.0518 32.8695 30.8953 32.4834 31.0882L29.4944 32.5823C29.2298 32.7148 29.0625 32.9853 29.0625 33.2812V37.1875H22.3438V28.0297C22.3438 26.3336 23.563 24.8738 25.1195 24.7064C25.1224 24.7061 25.1254 24.7058 25.1283 24.7054C26.9534 24.4589 29.0506 24.0516 30.5063 22.597L32.6454 20.4579C33.0926 20.0107 33.7323 19.898 34.2702 20.0887H34.2702C34.2705 20.0888 34.2707 20.0889 34.2709 20.089C34.894 20.3091 35.3125 20.9012 35.3125 21.5625C35.3125 21.9795 35.1498 22.3718 34.8546 22.6672L30.8538 26.6687C30.5487 26.9739 30.5488 27.4685 30.8539 27.7736C31.1589 28.0786 31.6537 28.0787 31.9587 27.7735L35.9595 23.772C36.5498 23.1815 36.875 22.3969 36.875 21.5625C36.875 20.4345 36.2653 19.4073 35.3125 18.8563V12.1875C35.3125 11.3259 36.0134 10.625 36.875 10.625C37.7366 10.625 38.4375 11.3259 38.4375 12.1875V22.8C38.4375 24.2294 38.0768 25.6484 37.3943 26.9038C37.1881 27.2828 37.3284 27.7572 37.7075 27.9633C38.0865 28.1693 38.5609 28.0291 38.767 27.6501C39.5737 26.1665 40 24.4893 40 22.8V12.1875C40 10.4644 38.5981 9.0625 36.875 9.0625Z" fill="#B5243D"/>
</svg>
