<svg width="40" height="40" viewBox="0 0 40 40" fill="none" xmlns="http://www.w3.org/2000/svg">
<path d="M35.2313 20.625C35.2313 20.2935 35.0996 19.9755 34.8651 19.7411C34.6307 19.5067 34.3128 19.375 33.9813 19.375H32.99C32.6585 19.3751 32.3406 19.5068 32.1063 19.7413L31.5888 20.2588C31.4726 20.3749 31.3348 20.467 31.183 20.5299C31.0313 20.5927 30.8686 20.625 30.7044 20.625H19.6063C19.2747 20.625 18.9568 20.7567 18.7224 20.9911C18.488 21.2255 18.3563 21.5435 18.3563 21.875V23.75H35.2313V20.625Z" fill="#343A40"/>
<path d="M37.5 25H15.4625C15.1899 25.0001 14.9206 25.0596 14.6733 25.1745C14.4261 25.2893 14.2068 25.4567 14.0309 25.6649C13.855 25.8732 13.7265 26.1173 13.6546 26.3803C13.5827 26.6432 13.569 26.9187 13.6144 27.1875L15.4269 37.8125C15.4999 38.2497 15.7258 38.6467 16.0642 38.9329C16.4027 39.219 16.8318 39.3757 17.275 39.375H35.6875C36.1307 39.3757 36.5597 39.219 36.898 38.9328C37.2364 38.6467 37.4621 38.2496 37.535 37.8125L39.3475 27.1875C39.3929 26.9187 39.3792 26.6433 39.3073 26.3804C39.2354 26.1175 39.1071 25.8734 38.9312 25.6652C38.7553 25.4569 38.5362 25.2896 38.289 25.1747C38.0418 25.0598 37.7726 25.0002 37.5 25ZM34.6062 37.5H30.2313C30.0655 37.5 29.9065 37.4342 29.7893 37.3169C29.6721 37.1997 29.6063 37.0408 29.6063 36.875C29.6063 36.7092 29.6721 36.5503 29.7893 36.4331C29.9065 36.3158 30.0655 36.25 30.2313 36.25H34.6062C34.772 36.25 34.931 36.3158 35.0482 36.4331C35.1654 36.5503 35.2312 36.7092 35.2312 36.875C35.2312 37.0408 35.1654 37.1997 35.0482 37.3169C34.931 37.4342 34.772 37.5 34.6062 37.5Z" fill="#343A40"/>
<path d="M25.9375 21.8752C27.5122 21.8752 29.0224 21.2496 30.1359 20.1361C31.2494 19.0226 31.875 17.5124 31.875 15.9377C31.875 14.363 31.2494 12.8527 30.1359 11.7393C29.0224 10.6258 27.5122 10.0002 25.9375 10.0002H25.9325C25.8565 7.64736 24.9259 5.4028 23.3149 3.68632C21.7039 1.96985 19.5228 0.899022 17.1795 0.67413C14.8362 0.449237 12.4912 1.08568 10.5832 2.46442C8.6751 3.84316 7.33464 5.86977 6.8125 8.1652C5.06777 8.35377 3.4612 9.20241 2.32194 10.5372C1.18269 11.8721 0.597014 13.592 0.684904 15.3447C0.772795 17.0974 1.5276 18.7501 2.79467 19.9643C4.06174 21.1784 5.74515 21.8621 7.5 21.8752H8.125V29.3752C8.125 29.7067 8.2567 30.0247 8.49112 30.2591C8.72554 30.4935 9.04348 30.6252 9.375 30.6252H13.125C13.4565 30.6252 13.7745 30.4935 14.0089 30.2591C14.2433 30.0247 14.375 29.7067 14.375 29.3752V21.8752H18.125V23.7502H17.6419C17.4007 23.7496 17.1645 23.8189 16.9618 23.9495C16.7591 24.0802 16.5985 24.2667 16.4994 24.4866C16.4003 24.7064 16.367 24.9503 16.4033 25.1887C16.4397 25.4271 16.5442 25.6499 16.7044 25.8302L20.3131 29.8896C20.4304 30.0213 20.5742 30.1268 20.7351 30.199C20.8961 30.2712 21.0705 30.3085 21.2469 30.3085C21.4233 30.3085 21.5977 30.2712 21.7586 30.199C21.9195 30.1268 22.0633 30.0213 22.1806 29.8896L25.7894 25.8308C25.9493 25.6509 26.054 25.4286 26.0907 25.1907C26.1273 24.9528 26.0945 24.7093 25.9962 24.4895C25.8978 24.2698 25.7381 24.0831 25.5362 23.952C25.3343 23.8208 25.0989 23.7507 24.8581 23.7502H24.375V21.8752H25.9375ZM13.125 29.3752H9.375V18.1252C9.375 17.9594 9.30915 17.8005 9.19194 17.6833C9.07473 17.566 8.91576 17.5002 8.75 17.5002H7.64187L11.25 13.4408L14.8575 17.5002H13.75C13.5842 17.5002 13.4253 17.566 13.3081 17.6833C13.1908 17.8005 13.125 17.9594 13.125 18.1252V29.3752ZM14.375 20.6252V18.7502H14.8581C15.0993 18.7507 15.3355 18.6815 15.5382 18.5509C15.7409 18.4202 15.9015 18.2337 16.0006 18.0138C16.0996 17.794 16.133 17.5501 16.0967 17.3117C16.0603 17.0733 15.9558 16.8505 15.7956 16.6702L12.1869 12.6077C12.0664 12.4812 11.9216 12.3805 11.7611 12.3117C11.6006 12.243 11.4278 12.2075 11.2531 12.2075C11.0785 12.2075 10.9057 12.243 10.7452 12.3117C10.5847 12.3805 10.4398 12.4812 10.3194 12.6077L6.71063 16.6664C6.54965 16.8463 6.44417 17.0688 6.40692 17.3073C6.36968 17.5457 6.40226 17.7899 6.50073 18.0102C6.5992 18.2306 6.75936 18.4177 6.96185 18.549C7.16435 18.6803 7.40053 18.7502 7.64187 18.7502H8.125V20.6252H7.5C6.02471 20.6214 4.61004 20.0378 3.56114 19.0004C2.51224 17.9629 1.91317 16.5548 1.89316 15.0796C1.87314 13.6044 2.43379 12.1805 3.45417 11.115C4.47454 10.0495 5.87286 9.42777 7.3475 9.38395C7.49178 9.38 7.63025 9.32624 7.73939 9.2318C7.84853 9.13735 7.92162 9.00804 7.94625 8.86582C8.30675 6.78477 9.43507 4.91476 11.1081 3.62563C12.781 2.3365 14.8769 1.72211 16.9811 1.90397C19.0853 2.08583 21.0446 3.05069 22.4716 4.60774C23.8986 6.16479 24.6894 8.20065 24.6875 10.3127C24.6875 10.3696 24.6706 10.6452 24.6706 10.6452C24.6673 10.7355 24.6835 10.8254 24.7183 10.9088C24.753 10.9922 24.8054 11.0671 24.8719 11.1283C24.9384 11.1895 25.0173 11.2355 25.1033 11.2633C25.1893 11.291 25.2803 11.2998 25.37 11.2889C25.5581 11.264 25.7477 11.2511 25.9375 11.2502C27.1807 11.2502 28.373 11.7441 29.2521 12.6231C30.1311 13.5022 30.625 14.6945 30.625 15.9377C30.625 17.1809 30.1311 18.3732 29.2521 19.2523C28.373 20.1313 27.1807 20.6252 25.9375 20.6252H24.375V13.1252C24.375 12.7937 24.2433 12.4757 24.0089 12.2413C23.7745 12.0069 23.4565 11.8752 23.125 11.8752H19.375C19.0435 11.8752 18.7255 12.0069 18.4911 12.2413C18.2567 12.4757 18.125 12.7937 18.125 13.1252V20.6252H14.375ZM24.8581 25.0002L21.25 29.0627L17.6425 25.0002H18.75C18.9158 25.0002 19.0747 24.9343 19.1919 24.8171C19.3091 24.6999 19.375 24.541 19.375 24.3752V13.1252H23.125V24.3752C23.125 24.541 23.1908 24.6999 23.3081 24.8171C23.4253 24.9343 23.5842 25.0002 23.75 25.0002H24.8581Z" fill="#B5243D"/>
</svg>
