<svg width="40" height="40" viewBox="0 0 40 40" fill="none" xmlns="http://www.w3.org/2000/svg">
<g clip-path="url(#clip0)">
<path d="M37.3555 18.1717C37.3041 16.0359 36.8723 13.9698 36.0681 12.0191C36.3462 11.8302 36.5612 11.5555 36.6722 11.2345C36.8125 10.8287 36.7791 10.3777 36.5803 9.9975C35.3462 7.63461 33.6519 5.60156 31.5447 3.955C31.2904 3.75633 30.923 3.80125 30.7242 4.0557C30.5255 4.31008 30.5705 4.67742 30.8249 4.87617C32.7999 6.41937 34.3877 8.32453 35.5443 10.5388C35.5954 10.6366 35.6036 10.748 35.5674 10.8525C35.5311 10.9577 35.4553 11.0407 35.354 11.0863L32.5942 12.3307C32.4045 12.4161 32.1792 12.3406 32.0813 12.1587C29.7012 7.73531 25.1044 4.98742 20.0846 4.98742C15.0648 4.98742 10.468 7.73531 8.08789 12.1587C7.98992 12.3406 7.76461 12.4162 7.57508 12.3307L4.81516 11.0863C4.71391 11.0407 4.63813 10.9577 4.6018 10.8526C4.56563 10.748 4.57383 10.6365 4.62492 10.5387C7.64375 4.75922 13.5675 1.16891 20.0846 1.16891C23.1298 1.16891 26.1388 1.97563 28.7862 3.50188C29.0659 3.66273 29.4233 3.56703 29.5845 3.28742C29.7457 3.00773 29.6497 2.65039 29.3701 2.48914C26.5454 0.860703 23.3345 0 20.0846 0C16.684 0 13.345 0.936562 10.4288 2.70852C7.52242 4.4743 5.15727 6.99484 3.58883 9.9975C3.39016 10.3779 3.35672 10.8287 3.49711 11.2347C3.6082 11.5558 3.8232 11.8304 4.10141 12.0193C3.3061 13.9484 2.87414 15.9901 2.81508 18.101C1.74235 18.5014 0.976252 19.5362 0.976252 20.7468V25.5584C0.976252 25.8813 1.23789 26.1429 1.5607 26.1429C1.88352 26.1429 2.14516 25.8813 2.14516 25.5584V20.7468C2.14516 19.8347 2.88719 19.0927 3.7993 19.0927H5.3225C6.23461 19.0927 6.97664 19.8348 6.97664 20.7468V29.2249C6.97664 30.137 6.23461 30.8791 5.3225 30.8791H3.79922C2.88711 30.8791 2.14508 30.137 2.14508 29.2249V28.1252C2.14508 27.8024 1.88344 27.5408 1.56063 27.5408C1.23781 27.5408 0.976173 27.8024 0.976173 28.1252V29.2249C0.976173 30.7816 2.24258 32.048 3.7993 32.048H5.3225C6.87914 32.048 8.14563 30.7816 8.14563 29.2249V20.7468C8.14563 19.5425 7.38742 18.5126 6.32352 18.1077C6.37977 16.5053 6.70992 14.95 7.30625 13.472C8.00258 13.6718 8.76594 13.3657 9.11742 12.7125C11.2934 8.66852 15.4958 6.15633 20.0848 6.15633C24.6737 6.15633 28.8762 8.66844 31.0521 12.7125C31.3321 13.2329 31.8737 13.5341 32.4344 13.5341C32.5776 13.5341 32.722 13.5139 32.8637 13.4733C33.4524 14.933 33.7812 16.4682 33.8433 18.0497C32.6927 18.4064 31.8546 19.4805 31.8546 20.7468V29.2249C31.8546 30.306 32.4658 31.2466 33.3604 31.7208C32.5555 33.5302 30.8596 34.8178 28.892 35.0912C28.6991 34.7555 28.4311 34.4621 28.0999 34.2383C27.8325 34.0576 27.4691 34.128 27.2884 34.3955C27.1077 34.6629 27.1781 35.0262 27.4456 35.207C27.8341 35.4694 28.0659 35.9053 28.0659 36.3732V37.425C28.0659 38.2003 27.4352 38.8311 26.6598 38.8311H23.8062C23.0309 38.8311 22.4001 38.2004 22.4001 37.425V36.3732C22.4001 35.5979 23.0308 34.9671 23.8062 34.9671H24.9992C25.322 34.9671 25.5837 34.7055 25.5837 34.3827C25.5837 34.0598 25.322 33.7982 24.9992 33.7982H23.8062C22.3863 33.7982 21.2312 34.9534 21.2312 36.3732V37.425C21.2312 38.8448 22.3863 40 23.8062 40H26.6598C27.6514 40 28.5133 39.4363 28.9434 38.6127C30.8365 38.4412 32.6031 37.704 34.0662 36.4687C35.4905 35.2663 36.502 33.7025 37.0069 31.9302C38.1719 31.5824 39.0239 30.5016 39.0239 29.2249V20.7468C39.0238 19.6015 38.3379 18.614 37.3555 18.1717ZM6.23297 13.0078C5.59649 14.5765 5.23719 16.2255 5.16156 17.9237H3.99141C4.06758 16.0513 4.45899 14.2395 5.15852 12.5234L6.23297 13.0078ZM35.0076 17.9237C34.9319 16.2254 34.5727 14.5765 33.9362 13.0079L35.0108 12.5234C35.7102 14.2395 36.1016 16.0514 36.1777 17.9237H35.0076ZM29.2348 37.4028V36.3732C29.2348 36.3223 29.233 36.2715 29.2301 36.221C31.5766 35.8319 33.5785 34.243 34.4945 32.0415C34.5551 32.0454 34.616 32.048 34.6776 32.048H35.742C34.7491 34.8791 32.2073 36.9765 29.2348 37.4028ZM37.8549 29.2249C37.8549 30.137 37.1129 30.8791 36.2009 30.8791H34.6776C33.7655 30.8791 33.0235 30.137 33.0235 29.2249V20.7468C33.0235 19.8347 33.7655 19.0927 34.6776 19.0927H36.2009C37.113 19.0927 37.8549 19.8348 37.8549 20.7468V29.2249Z" fill="#B5243D"/>
<path d="M21.1199 27.2742C21.0478 27.2742 20.9746 27.2608 20.9035 27.2325C20.6027 27.113 20.4559 26.7722 20.5756 26.4716L22.9969 20.3839C23.1165 20.0832 23.4573 19.9363 23.7578 20.0561C24.0586 20.1756 24.2054 20.5164 24.0857 20.817L21.6645 26.9047C21.5731 27.1343 21.3528 27.2742 21.1199 27.2742Z" fill="#B5243D"/>
<path d="M26.7632 27.2742C26.6845 27.2742 26.6044 27.2583 26.5277 27.2245C26.2314 27.0943 26.0968 26.7485 26.227 26.4523L28.542 21.1864H26.0906C25.767 21.1864 25.5047 20.9241 25.5047 20.6005C25.5047 20.2768 25.767 20.0145 26.0906 20.0145H29.4396C29.6375 20.0145 29.8221 20.1144 29.9302 20.2802C30.0384 20.4459 30.0556 20.6551 29.976 20.8362L27.2999 26.9239C27.2034 27.1434 26.9886 27.2742 26.7632 27.2742Z" fill="#B5243D"/>
<path d="M18.071 27.274C18.0693 27.274 18.0676 27.274 18.0659 27.274C17.7423 27.2712 17.4822 27.0066 17.485 26.6831C17.4882 26.3152 17.4914 25.9045 17.4945 25.4773H15.0401C14.8328 25.4773 14.6409 25.3678 14.5355 25.1892C14.4302 25.0107 14.427 24.7898 14.5271 24.6082C14.8694 23.9879 16.5944 20.8714 16.9441 20.4425C17.236 20.0845 17.6295 19.9386 17.9971 20.0524C18.3689 20.1675 18.6331 20.5292 18.6702 20.9736C18.6884 21.1929 18.6833 22.8195 18.6745 24.3053H18.863C19.1866 24.3053 19.449 24.5676 19.449 24.8913C19.449 25.2149 19.1866 25.4772 18.863 25.4772H18.6666C18.6626 26.0257 18.6589 26.4707 18.657 26.6931C18.6541 27.0149 18.3923 27.274 18.071 27.274ZM16.0353 24.3054H17.5023C17.5081 23.3044 17.512 22.3387 17.5104 21.7229C17.159 22.312 16.6016 23.2906 16.0353 24.3054Z" fill="#B5243D"/>
<path d="M12.0209 27.335C10.8511 27.335 10.7651 27.3064 10.6864 27.2801C10.4911 27.215 10.3452 27.0675 10.2861 26.8753C10.1842 26.5439 10.3266 26.3575 10.7071 25.8593C11.0166 25.4539 11.593 24.6993 12.5585 23.3197C12.8453 22.91 13.0303 22.5431 13.1086 22.2284L13.1294 22.0657C13.112 21.545 12.683 21.1268 12.1581 21.1268C11.6947 21.1268 11.2937 21.456 11.2045 21.9096C11.1421 22.2271 10.8342 22.4336 10.5167 22.3717C10.1992 22.3093 9.99228 22.0014 10.0546 21.6838C10.2514 20.6821 11.136 19.955 12.1581 19.955C13.34 19.955 14.3016 20.9166 14.3016 22.0985C14.3016 22.1233 14.3001 22.1482 14.2969 22.1727L14.2668 22.4082C14.2643 22.4278 14.2609 22.4472 14.2564 22.4664C14.1481 22.9337 13.8998 23.4469 13.5184 23.9916C12.7991 25.0193 12.292 25.7061 11.9488 26.1617C12.5252 26.1636 13.2683 26.1565 13.9663 26.1477C14.2902 26.1452 14.5556 26.4027 14.5596 26.7261C14.5637 27.0498 14.3047 27.3153 13.9811 27.3194C13.1145 27.3305 12.4831 27.335 12.0209 27.335Z" fill="#B5243D"/>
</g>
<defs>
<clipPath id="clip0">
<rect width="40" height="40" fill="white"/>
</clipPath>
</defs>
</svg>
