<svg width="40" height="30" viewBox="0 0 40 30" fill="none" xmlns="http://www.w3.org/2000/svg">
<path d="M20 29.9999C25.872 29.9999 30.6496 25.0595 30.6496 18.9874C30.6496 12.9152 25.872 7.97479 20 7.97479C14.128 7.97479 9.3504 12.9152 9.3504 18.9874C9.3504 25.0595 14.128 29.9999 20 29.9999ZM10.9888 18.9874C10.9888 18.7011 11.006 18.4199 11.0304 18.1402H12.4232C13.132 18.1402 13.7464 18.6366 13.9184 19.3472L13.9764 19.5871C14.2412 20.6833 15.0176 21.5507 16.0548 21.908C16.5568 22.0818 16.9336 22.502 17.0624 23.0339L17.1204 23.2738C17.4744 24.7394 18.7424 25.7635 20.2048 25.7635H20.4596C20.942 25.7635 21.4024 26.0013 21.6916 26.4005L22.7484 27.8586C21.8808 28.1473 20.9584 28.3057 20 28.3057C15.0316 28.3057 10.9888 24.1251 10.9888 18.9874ZM27.7388 23.7363L27.2304 23.4728C26.308 22.9951 25.7344 22.0371 25.7344 20.9381C25.7344 20.3842 25.8916 19.8481 26.1892 19.3861C26.6912 18.606 27.5332 18.1402 28.4404 18.1402H28.9704C28.994 18.4199 29.0112 18.7011 29.0112 18.9874C29.0112 20.723 28.5416 22.3428 27.7388 23.7363ZM26.946 13.0575H26.4052C24.6784 13.0575 23.1792 14.3282 22.84 16.0791C22.704 16.7823 22.102 17.2931 21.4084 17.2931C20.852 17.2931 20.3516 16.973 20.1024 16.4588L19.8272 15.8884C19.2356 14.6645 18.0464 13.9046 16.7232 13.9046C16.0244 13.9046 15.3968 13.503 15.0848 12.8577L14.4908 11.6301C16.0164 10.4061 17.924 9.66903 20 9.66903C22.792 9.66903 25.2912 10.9898 26.946 13.0575ZM13.2448 12.8408L13.6192 13.6147C14.2108 14.839 15.4 15.5989 16.7232 15.5989C17.422 15.5989 18.0496 16.0005 18.3616 16.6458L18.6368 17.2162C19.1652 18.3086 20.2268 18.9874 21.4084 18.9874C22.8796 18.9874 24.1576 17.9049 24.4456 16.4121C24.6324 15.4496 25.456 14.7518 26.4044 14.7518H28.016C28.282 15.2887 28.4992 15.8545 28.6616 16.446H28.4392C26.9836 16.446 25.632 17.1939 24.8252 18.4459C24.3484 19.1863 24.096 20.0487 24.096 20.9703C24.096 22.6824 25.016 24.2215 26.4972 24.9884L26.7624 25.1257C26.0644 25.9472 25.2348 26.647 24.2992 27.1748L23.0016 25.3854C22.4052 24.5615 21.454 24.0701 20.4588 24.0701H20.204C19.4952 24.0701 18.8808 23.5737 18.7088 22.8627L18.6508 22.6232C18.386 21.5271 17.6096 20.6597 16.5724 20.3019C16.0704 20.1286 15.6936 19.7083 15.5648 19.1764L15.5068 18.9365C15.1528 17.4702 13.8848 16.446 12.4232 16.446H11.3376C11.7096 15.093 12.3692 13.8682 13.2448 12.8408Z" fill="#B5243D"/>
<path d="M19.1808 3.24289V6.28061H20.8192V3.24289L21.8784 4.33819L23.0368 3.1403L20 0L16.9632 3.1403L18.1216 4.33819L19.1808 3.24289Z" fill="#B5243D"/>
<path d="M4.1952 20.9298L3.136 19.8345H7.712V18.1402H3.136L4.1952 17.0449L3.0368 15.847L0 18.9874L3.0368 22.1277L4.1952 20.9298Z" fill="#B5243D"/>
<path d="M32.288 18.1402V19.8345H36.864L35.8048 20.9298L36.9632 22.1277L40 18.9874L36.9632 15.847L35.8048 17.0449L36.864 18.1402H32.288Z" fill="#B5243D"/>
<path d="M29.5904 10.268L31.4688 8.3256V9.66908H33.1072V5.43347H29.0112V7.12771H30.3104L28.432 9.07014L29.5904 10.268Z" fill="#B5243D"/>
<path d="M8.53122 8.3256L10.4096 10.268L11.568 9.07014L9.68962 7.12771H10.9888V5.43347H6.89282V9.66908H8.53122V8.3256Z" fill="#B5243D"/>
</svg>
