<svg width="40" height="40" viewBox="0 0 40 40" fill="none" xmlns="http://www.w3.org/2000/svg">
<g clip-path="url(#clip0)">
<path d="M23.1052 3.29228C23.1052 4.83585 21.8539 6.08716 20.3103 6.08716C18.7668 6.08716 17.5155 4.83585 17.5155 3.29228C17.5155 1.74871 18.7668 0.497394 20.3103 0.497394C21.8539 0.497394 23.1052 1.74871 23.1052 3.29228Z" fill="white" stroke="#B5243D" stroke-width="0.994787"/>
<path d="M24.024 11.6036V10.8108V10.3134H24.5214C24.783 10.3134 25.079 10.3963 25.3208 10.5786C25.5764 10.7714 25.7722 11.0796 25.7718 11.4835M24.024 11.6036L25.7718 11.4835M24.024 11.6036H21.5736C21.7804 11.382 21.9544 11.1177 22.1009 10.8488C22.3123 10.4607 22.4859 10.0266 22.6256 9.61316C22.8151 9.052 22.9491 8.50801 23.0315 8.13143H24.6636C26.471 8.13143 27.944 9.59094 27.9538 11.3755M24.024 11.6036L27.9538 11.3755M25.7718 11.4835V22.2692C25.7718 22.8718 26.2602 23.3602 26.8628 23.3602C27.4654 23.3602 27.9538 22.8718 27.9538 22.2692V11.3755M25.7718 11.4835L27.9538 11.3755M20.49 12.4701L20.69 12.318C20.6778 12.377 20.6714 12.4382 20.6714 12.5008V14.018C20.6714 14.5135 21.073 14.9152 21.5685 14.9152H24.0244C24.0252 18.0894 24.0246 27.0323 24.0242 32.8392C24.024 35.794 24.0239 37.9368 24.024 38.0943C24.0238 38.8983 23.4418 39.5026 22.6894 39.5026C21.9115 39.5026 21.2808 38.8719 21.2808 38.094V22.8572V22.3598H20.7834H19.96H19.4626V22.8572V38.094C19.4626 38.8719 18.832 39.5026 18.054 39.5026C17.2702 39.5026 16.6282 38.8662 16.6282 38.094V10.8108V10.3134H16.1309C15.8383 10.3134 15.5617 10.4282 15.3561 10.6027C15.1509 10.7767 14.9749 11.0482 14.9717 11.3833H14.9717V11.388V22.2692C14.9717 22.8718 14.4833 23.3602 13.8807 23.3602C13.2781 23.3602 12.7897 22.8718 12.7897 22.2692V11.3756C12.7992 9.59099 14.2723 8.13143 16.0798 8.13143H17.7319C17.8143 8.50799 17.9482 9.05195 18.1378 9.6131C18.2775 10.0265 18.4511 10.4607 18.6625 10.8487C18.8705 11.2306 19.134 11.6032 19.4683 11.8576L20.2734 12.4701L20.2321 12.6664L20.3817 12.5526L20.5313 12.6664L20.49 12.4701ZM20.0865 10.6676L20.0866 10.6674L20.0865 10.6676ZM20.2562 11.3593L20.0981 10.6086L20.24 9.88769H20.5234L20.6652 10.6086L20.5072 11.3593L20.3817 11.9556L20.2562 11.3593ZM20.4767 9.65015L20.4767 9.65022L20.4767 9.65015Z" fill="white" stroke="#B5243D" stroke-width="0.994787"/>
<path d="M20.0656 8.03585H20.6977L20.587 8.63536H20.1763L20.0656 8.03585ZM20.214 8.83973L20.214 8.83969L20.214 8.83973Z" fill="white" stroke="#B5243D" stroke-width="0.994787"/>
<mask id="path-4-inside-1" fill="white">
<path d="M21.9883 12.8862C22.1301 12.8862 22.1352 12.993 22.1368 13.0364C22.1402 13.0964 22.1968 13.1149 22.267 13.1149C22.3555 13.1149 22.3972 13.0915 22.3972 12.9914C22.3972 12.7794 22.217 12.6594 21.9784 12.6594C21.7597 12.6594 21.5779 12.7661 21.5779 13.0531V13.4952C21.5779 13.7822 21.7598 13.889 21.9784 13.889C22.2169 13.889 22.3972 13.7622 22.3972 13.5403C22.3972 13.4402 22.3555 13.4168 22.2654 13.4168C22.1986 13.4168 22.1419 13.4335 22.1369 13.4952C22.1319 13.5603 22.1235 13.6621 21.99 13.6621C21.8933 13.6621 21.8382 13.6086 21.8382 13.4952V13.0531C21.8382 12.9396 21.8932 12.8862 21.9883 12.8862Z"/>
</mask>
<path d="M21.9883 12.8862C22.1301 12.8862 22.1352 12.993 22.1368 13.0364C22.1402 13.0964 22.1968 13.1149 22.267 13.1149C22.3555 13.1149 22.3972 13.0915 22.3972 12.9914C22.3972 12.7794 22.217 12.6594 21.9784 12.6594C21.7597 12.6594 21.5779 12.7661 21.5779 13.0531V13.4952C21.5779 13.7822 21.7598 13.889 21.9784 13.889C22.2169 13.889 22.3972 13.7622 22.3972 13.5403C22.3972 13.4402 22.3555 13.4168 22.2654 13.4168C22.1986 13.4168 22.1419 13.4335 22.1369 13.4952C22.1319 13.5603 22.1235 13.6621 21.99 13.6621C21.8933 13.6621 21.8382 13.6086 21.8382 13.4952V13.0531C21.8382 12.9396 21.8932 12.8862 21.9883 12.8862Z" fill="#B5243D"/>
<path d="M22.1368 13.0364L21.1427 13.0738L21.1431 13.0828L21.1436 13.0918L22.1368 13.0364ZM22.1369 13.4952L21.1453 13.4153L21.145 13.4195L22.1369 13.4952ZM21.8382 13.0531H22.833L22.833 13.0524L21.8382 13.0531ZM21.9883 13.881C21.8994 13.881 21.761 13.864 21.6102 13.7851C21.4531 13.703 21.3369 13.582 21.2612 13.4553C21.1346 13.2435 21.1414 13.0386 21.1427 13.0738L23.1309 12.9991C23.1306 12.9909 23.134 12.7108 22.9691 12.4348C22.7443 12.0586 22.3554 11.8914 21.9883 11.8914V13.881ZM21.1436 13.0918C21.1666 13.5041 21.4121 13.8223 21.7191 13.9814C21.953 14.1026 22.1747 14.1097 22.267 14.1097V12.1201C22.2891 12.1201 22.4475 12.1179 22.6346 12.215C22.7416 12.2704 22.87 12.3648 22.9726 12.5165C23.0774 12.6714 23.122 12.8369 23.1301 12.9811L21.1436 13.0918ZM22.267 14.1097C22.337 14.1097 22.6967 14.1159 23.0115 13.847C23.3675 13.5428 23.392 13.1398 23.392 12.9914H21.4024C21.4024 12.9431 21.406 12.6018 21.7191 12.3343C21.8622 12.212 22.0089 12.1615 22.1019 12.1401C22.1887 12.1202 22.2532 12.1201 22.267 12.1201V14.1097ZM23.392 12.9914C23.392 12.5684 23.1965 12.1934 22.8765 11.9518C22.5849 11.7318 22.2513 11.6646 21.9784 11.6646V13.6541C21.944 13.6541 21.8198 13.6469 21.678 13.5399C21.6033 13.4835 21.5296 13.4027 21.4764 13.2966C21.4227 13.1898 21.4024 13.0827 21.4024 12.9914H23.392ZM21.9784 11.6646C21.7237 11.6646 21.3606 11.7253 21.0477 11.9942C20.7083 12.2859 20.5831 12.6876 20.5831 13.0531H22.5727C22.5727 13.1316 22.5384 13.3364 22.3445 13.5031C22.1773 13.6468 22.0144 13.6541 21.9784 13.6541V11.6646ZM20.5831 13.0531V13.4952H22.5727V13.0531H20.5831ZM20.5831 13.4952C20.5831 13.8607 20.7083 14.2624 21.0478 14.5542C21.3606 14.823 21.7237 14.8838 21.9784 14.8838V12.8942C22.0145 12.8942 22.1774 12.9016 22.3446 13.0453C22.5384 13.2119 22.5727 13.4167 22.5727 13.4952H20.5831ZM21.9784 14.8838C22.2629 14.8838 22.6035 14.809 22.8957 14.577C23.2123 14.3257 23.392 13.9497 23.392 13.5403H21.4024C21.4024 13.3528 21.4919 13.1511 21.6588 13.0187C21.8012 12.9056 21.9323 12.8942 21.9784 12.8942V14.8838ZM23.392 13.5403C23.392 13.392 23.3675 12.9862 23.0077 12.6817C22.6926 12.415 22.3332 12.422 22.2654 12.422V14.4116C22.2528 14.4116 22.1897 14.4116 22.1041 14.3922C22.0127 14.3715 21.8661 14.322 21.7224 14.2003C21.406 13.9325 21.4024 13.5885 21.4024 13.5403H23.392ZM22.2654 12.422C22.1792 12.422 21.9579 12.4276 21.7235 12.548C21.4148 12.7065 21.1773 13.0187 21.1453 13.4153L23.1285 13.5751C23.1174 13.7125 23.0721 13.8716 22.9687 14.0215C22.867 14.1691 22.7404 14.2623 22.6325 14.3178C22.4444 14.4144 22.2848 14.4116 22.2654 14.4116V12.422ZM21.145 13.4195C21.1434 13.4404 21.1451 13.4059 21.1535 13.362C21.1622 13.3165 21.1852 13.218 21.2505 13.1052C21.3218 12.9817 21.4357 12.8559 21.5977 12.7689C21.7533 12.6853 21.8975 12.6673 21.99 12.6673V14.6569C22.1493 14.6569 22.3446 14.6262 22.5395 14.5214C22.7408 14.4133 22.8821 14.258 22.9729 14.101C23.0575 13.9546 23.0919 13.8184 23.1077 13.7355C23.1233 13.6542 23.1279 13.5826 23.1288 13.571L21.145 13.4195ZM21.99 12.6673C22.1211 12.6673 22.3844 12.7073 22.6032 12.9404C22.8117 13.1625 22.833 13.4055 22.833 13.4952H20.8434C20.8434 13.6984 20.8923 14.0248 21.1525 14.302C21.423 14.5901 21.7622 14.6569 21.99 14.6569V12.6673ZM22.833 13.4952V13.0531H20.8434V13.4952H22.833ZM22.833 13.0524C22.8331 13.1422 22.8119 13.3835 22.6056 13.605C22.3881 13.8386 22.1243 13.881 21.9883 13.881V11.8914C21.7572 11.8914 21.4183 11.9605 21.1496 12.2492C20.892 12.5258 20.8433 12.8505 20.8434 13.0538L22.833 13.0524Z" fill="#B5243D" mask="url(#path-4-inside-1)"/>
<mask id="path-6-inside-2" fill="white">
<path d="M23.8121 12.6593C23.5819 12.6593 23.4033 12.7661 23.4033 13.053V13.4952C23.4033 13.7822 23.5819 13.889 23.8121 13.889C24.0424 13.889 24.2226 13.7822 24.2226 13.4952V13.053C24.2227 12.7661 24.0424 12.6593 23.8121 12.6593ZM23.9624 13.4952C23.9624 13.6103 23.9057 13.6621 23.8121 13.6621C23.7187 13.6621 23.6637 13.6103 23.6637 13.4952V13.0531C23.6637 12.9381 23.7187 12.8863 23.8121 12.8863C23.9056 12.8863 23.9624 12.9381 23.9624 13.0531V13.4952Z"/>
</mask>
<path d="M23.8121 12.6593C23.5819 12.6593 23.4033 12.7661 23.4033 13.053V13.4952C23.4033 13.7822 23.5819 13.889 23.8121 13.889C24.0424 13.889 24.2226 13.7822 24.2226 13.4952V13.053C24.2227 12.7661 24.0424 12.6593 23.8121 12.6593ZM23.9624 13.4952C23.9624 13.6103 23.9057 13.6621 23.8121 13.6621C23.7187 13.6621 23.6637 13.6103 23.6637 13.4952V13.0531C23.6637 12.9381 23.7187 12.8863 23.8121 12.8863C23.9056 12.8863 23.9624 12.9381 23.9624 13.0531V13.4952Z" fill="#B5243D"/>
<path d="M24.2226 13.053L23.2278 13.0527V13.053H24.2226ZM23.8121 11.6645C23.5619 11.6645 23.1941 11.7205 22.8762 11.9914C22.5297 12.2866 22.4085 12.693 22.4085 13.053H24.3981C24.3981 13.1261 24.3662 13.3356 24.1666 13.5058C23.9955 13.6515 23.8321 13.6541 23.8121 13.6541V11.6645ZM22.4085 13.053V13.4952H24.3981V13.053H22.4085ZM22.4085 13.4952C22.4085 13.8551 22.5296 14.2615 22.8762 14.5568C23.1941 14.8278 23.5619 14.8837 23.8121 14.8837V12.8942C23.8321 12.8942 23.9956 12.8967 24.1666 13.0425C24.3663 13.2127 24.3981 13.4222 24.3981 13.4952H22.4085ZM23.8121 14.8837C24.0622 14.8837 24.4292 14.8278 24.7468 14.5586C25.094 14.2645 25.2174 13.8581 25.2174 13.4952H23.2278C23.2278 13.4193 23.2612 13.2097 23.4606 13.0407C23.6306 12.8967 23.7923 12.8942 23.8121 12.8942V14.8837ZM25.2174 13.4952V13.053H23.2278V13.4952H25.2174ZM25.2174 13.0533C25.2175 12.6902 25.094 12.2837 24.7468 11.9895C24.4291 11.7204 24.0622 11.6645 23.8121 11.6645V13.6541C23.7923 13.6541 23.6307 13.6516 23.4608 13.5076C23.2612 13.3386 23.2278 13.1289 23.2278 13.0527L25.2174 13.0533ZM22.9676 13.4952C22.9676 13.4028 22.9903 13.1594 23.1998 12.9381C23.4179 12.7076 23.6796 12.6673 23.8121 12.6673V14.6569C24.0382 14.6569 24.375 14.5907 24.6449 14.3056C24.9061 14.0296 24.9571 13.7028 24.9571 13.4952H22.9676ZM23.8121 12.6673C23.9457 12.6673 24.2116 12.7083 24.4311 12.9441C24.6388 13.1673 24.6585 13.4098 24.6585 13.4952H22.6689C22.6689 13.6957 22.716 14.0217 22.9747 14.2996C23.245 14.59 23.5851 14.6569 23.8121 14.6569V12.6673ZM24.6585 13.4952V13.0531H22.6689V13.4952H24.6585ZM24.6585 13.0531C24.6585 13.1387 24.6387 13.3812 24.4309 13.6044C24.2115 13.8401 23.9457 13.8811 23.8121 13.8811V11.8915C23.5852 11.8915 23.2451 11.9584 22.9748 12.2487C22.7161 12.5265 22.6689 12.8525 22.6689 13.0531H24.6585ZM23.8121 13.8811C23.6794 13.8811 23.418 13.8407 23.2 13.6106C22.9905 13.3894 22.9676 13.1461 22.9676 13.0531H24.9571C24.9571 12.8451 24.9058 12.5184 24.6446 12.2425C24.3749 11.9578 24.0384 11.8915 23.8121 11.8915V13.8811ZM22.9676 13.0531V13.4952H24.9571V13.0531H22.9676Z" fill="#B5243D" mask="url(#path-6-inside-2)"/>
<rect x="22.7344" y="12.7344" width="0.234375" height="1.09375" rx="0.117188" fill="#B5243D"/>
</g>
<defs>
<clipPath id="clip0">
<rect width="40" height="40" fill="white"/>
</clipPath>
</defs>
</svg>
