<svg width="40" height="40" viewBox="0 0 40 40" fill="none" xmlns="http://www.w3.org/2000/svg">
<g clip-path="url(#clip0)">
<path d="M22.5 38.3333H17.5C16.58 38.3333 15.8333 37.585 15.8333 36.6666V28.3333H11.6667C11.33 28.3333 11.025 28.13 10.8967 27.8183C10.7683 27.5066 10.84 27.1483 11.0767 26.91L19.41 18.5766C19.735 18.2516 20.2633 18.2516 20.5883 18.5766L28.9217 26.91C29.16 27.1483 29.2317 27.5066 29.1017 27.8183C28.9717 28.13 28.67 28.3333 28.3333 28.3333H24.1667V36.6666C24.1667 37.585 23.42 38.3333 22.5 38.3333ZM13.6783 26.6666H16.6667C17.1267 26.6666 17.5 27.04 17.5 27.5V36.6666H22.5V27.5C22.5 27.04 22.8733 26.6666 23.3333 26.6666H26.3217L20 20.345L13.6783 26.6666Z" fill="#B5243D"/>
<path d="M7.50166 28.2834C7.46999 28.2834 7.43999 28.2817 7.40666 28.2784C3.18499 27.8101 -7.62939e-06 24.2501 -7.62939e-06 20.0001C-7.62939e-06 15.5967 3.43166 11.9817 7.75999 11.6867C8.91333 5.92675 14.055 1.66675 20 1.66675C24.6683 1.66675 28.9683 4.29675 31.0883 8.40675C36.125 8.93508 40 13.2034 40 18.3334C40 22.8001 37.0067 26.7501 32.7233 27.9367C32.2767 28.0584 31.82 27.7984 31.6983 27.3551C31.575 26.9117 31.835 26.4517 32.2783 26.3301C35.8433 25.3434 38.3333 22.0534 38.3333 18.3334C38.3333 13.9217 34.895 10.2751 30.505 10.0317C30.1967 10.0151 29.925 9.83008 29.795 9.55175C28.0317 5.77508 24.1883 3.33341 20 3.33341C14.6417 3.33341 10.0383 7.32508 9.29166 12.6167C9.23333 13.0267 8.88166 13.3334 8.46666 13.3334C4.65666 13.3334 1.66666 16.3234 1.66666 20.0001C1.66666 23.4001 4.21333 26.2467 7.59333 26.6217C8.04999 26.6734 8.37999 27.0851 8.32833 27.5417C8.28166 27.9684 7.91999 28.2834 7.50166 28.2834Z" fill="#B5243D"/>
</g>
<defs>
<clipPath id="clip0">
<rect width="40" height="40" fill="white"/>
</clipPath>
</defs>
</svg>
