<svg width="40" height="40" viewBox="0 0 40 40" fill="none" xmlns="http://www.w3.org/2000/svg">
<path d="M9.26367 37.2656H21.7637C22.7165 37.2645 23.6299 36.8856 24.3037 36.2119C24.9774 35.5381 25.3564 34.6247 25.3574 33.6719V29.4531H26.2175C26.3341 29.4531 26.4464 29.4097 26.5327 29.3314C26.619 29.253 26.673 29.1454 26.6842 29.0294L26.8404 27.4096C27.5172 27.2299 28.1658 26.957 28.7675 26.5987L30.0111 27.6285C30.101 27.7029 30.2154 27.7412 30.332 27.7357C30.4486 27.7302 30.559 27.6814 30.6415 27.5989L32.4995 25.7409C32.5821 25.6583 32.6308 25.548 32.6363 25.4314C32.6417 25.3148 32.6035 25.2004 32.5291 25.1105L31.4968 23.8641C31.8539 23.2624 32.1275 22.6149 32.3099 21.9394L33.9069 21.7836C34.0228 21.7723 34.1303 21.7182 34.2085 21.632C34.2868 21.5457 34.3301 21.4335 34.3301 21.317V18.6829C34.3301 18.5664 34.2867 18.454 34.2083 18.3677C34.1299 18.2815 34.0223 18.2275 33.9063 18.2163L32.2866 18.0601C32.1068 17.3832 31.8339 16.7346 31.4756 16.1329L32.5054 14.8894C32.5795 14.7999 32.6178 14.686 32.6127 14.57C32.6076 14.4539 32.5596 14.3438 32.478 14.2611L30.6434 12.403C30.5611 12.3195 30.4504 12.27 30.3332 12.2641C30.2161 12.2582 30.101 12.2965 30.0106 12.3713L28.7642 13.4035C28.1626 13.0465 27.5153 12.7729 26.8399 12.5905L26.6837 10.9705C26.6725 10.8546 26.6185 10.747 26.5323 10.6687C26.4462 10.5904 26.3339 10.547 26.2175 10.5469H25.3574V6.32812C25.3564 5.37533 24.9774 4.46187 24.3037 3.78815C23.6299 3.11442 22.7165 2.73545 21.7637 2.73438H9.26367C8.31089 2.73547 7.39744 3.11445 6.72372 3.78817C6.05 4.46189 5.67102 5.37534 5.66992 6.32812V33.6719C5.67102 34.6247 6.05 35.5381 6.72372 36.2118C7.39744 36.8856 8.31089 37.2645 9.26367 37.2656ZM25.9391 13.0127C25.9486 13.1116 25.9894 13.205 26.0554 13.2792C26.1215 13.3535 26.2095 13.4049 26.3067 13.4259C27.1056 13.6037 27.8658 13.9245 28.5506 14.373C28.6343 14.427 28.733 14.4529 28.8325 14.447C28.932 14.4411 29.027 14.4036 29.1037 14.3401L30.2781 13.3672L31.5129 14.6179L30.5369 15.7969C30.4726 15.8745 30.435 15.9708 30.4298 16.0715C30.4246 16.1722 30.4519 16.2719 30.5078 16.3558C30.9584 17.0368 31.2783 17.7957 31.451 18.5938C31.4721 18.6908 31.5235 18.7787 31.5977 18.8447C31.672 18.9107 31.7653 18.9514 31.8642 18.9609L33.3926 19.1083V20.8915L31.8872 21.0391C31.7884 21.0487 31.6952 21.0894 31.621 21.1554C31.5469 21.2214 31.4956 21.3092 31.4745 21.4062C31.2968 22.2052 30.976 22.9654 30.5275 23.6502C30.4735 23.7339 30.4476 23.8326 30.4535 23.9321C30.4594 24.0315 30.4969 24.1265 30.5604 24.2032L31.5347 25.3798L30.2802 26.6343L29.1037 25.66C29.026 25.5957 28.9297 25.5581 28.829 25.5529C28.7283 25.5477 28.6286 25.5751 28.5447 25.631C27.8637 26.0815 27.1047 26.4014 26.3067 26.5742C26.2096 26.5953 26.1217 26.6467 26.0557 26.7209C25.9897 26.7952 25.949 26.8885 25.9395 26.9874L25.7918 28.5156H24.0091L23.8618 26.9873C23.8523 26.8884 23.8116 26.7951 23.7456 26.7209C23.6796 26.6466 23.5917 26.5952 23.4946 26.5741C22.6957 26.3963 21.9354 26.0755 21.2507 25.627C21.167 25.573 21.0682 25.5471 20.9688 25.553C20.8693 25.5589 20.7743 25.5964 20.6976 25.6599L19.521 26.6342L18.2662 25.3797L19.2406 24.2031C19.3048 24.1255 19.3424 24.0292 19.3476 23.9285C19.3528 23.8278 19.3255 23.7281 19.2695 23.6442C18.819 22.9632 18.4991 22.2043 18.3263 21.4062C18.3053 21.3092 18.2539 21.2213 18.1796 21.1553C18.1053 21.0893 18.012 21.0486 17.9131 21.0391L16.3848 20.8917V19.1087L17.9131 18.9613C18.012 18.9518 18.1053 18.9111 18.1796 18.8451C18.2539 18.7791 18.3053 18.6912 18.3263 18.5941C18.5041 17.7951 18.8249 17.0347 19.2734 16.3499C19.3275 16.2662 19.3534 16.1675 19.3475 16.068C19.3416 15.9686 19.3042 15.8736 19.2406 15.7969L18.2663 14.6203L19.5208 13.3658L20.6974 14.3401C20.775 14.4044 20.8713 14.4419 20.972 14.4472C21.0727 14.4524 21.1724 14.425 21.2563 14.3691C21.9374 13.9185 22.6963 13.5987 23.4944 13.4259C23.5915 13.4048 23.6794 13.3534 23.7454 13.2791C23.8114 13.2049 23.8521 13.1116 23.8616 13.0127L24.0091 11.4844H25.7918L25.9391 13.0127ZM9.26367 3.67188H21.7637C22.4679 3.67266 23.1431 3.95277 23.6411 4.45074C24.139 4.94871 24.4191 5.62388 24.4199 6.32812V7.42188H23.3262C23.2019 7.42188 23.0826 7.47126 22.9947 7.55917C22.9068 7.64708 22.8574 7.7663 22.8574 7.89062C22.8574 8.01495 22.9068 8.13417 22.9947 8.22208C23.0826 8.30999 23.2019 8.35938 23.3262 8.35938H24.4199V10.5469H23.5834C23.4668 10.5469 23.3545 10.5903 23.2682 10.6686C23.182 10.747 23.128 10.8546 23.1168 10.9706L22.9606 12.5904C22.2837 12.7701 21.6351 13.043 21.0334 13.4013L19.7899 12.3715C19.7 12.297 19.5856 12.2588 19.469 12.2643C19.3524 12.2698 19.242 12.3185 19.1595 12.4011L17.3014 14.2591C17.2189 14.3417 17.1701 14.452 17.1647 14.5686C17.1592 14.6852 17.1974 14.7996 17.2719 14.8895L18.3041 16.1359C17.947 16.7375 17.6735 17.3849 17.4909 18.0602L15.871 18.2164C15.755 18.2276 15.6474 18.2816 15.569 18.3678C15.4907 18.4541 15.4473 18.5664 15.4473 18.683V21.3171C15.4473 21.4336 15.4907 21.546 15.569 21.6323C15.6473 21.7186 15.755 21.7726 15.871 21.7838L17.4907 21.94C17.6705 22.6169 17.9435 23.2654 18.3018 23.8672L17.272 25.1107C17.1975 25.2006 17.1593 25.315 17.1648 25.4316C17.1702 25.5482 17.219 25.6586 17.3015 25.7411L19.1595 27.5991C19.2421 27.6817 19.3524 27.7305 19.469 27.736C19.5856 27.7414 19.7001 27.7032 19.79 27.6287L21.0364 26.5966C21.6381 26.9536 22.2855 27.227 22.9609 27.4094L23.1172 29.0294C23.1284 29.1453 23.1823 29.2529 23.2685 29.3312C23.3547 29.4096 23.4669 29.453 23.5834 29.4531H24.4199V30.7031H6.60742V8.35938H19.3418C19.4661 8.35938 19.5854 8.30999 19.6733 8.22208C19.7612 8.13417 19.8106 8.01495 19.8106 7.89062C19.8106 7.7663 19.7612 7.64708 19.6733 7.55917C19.5854 7.47126 19.4661 7.42188 19.3418 7.42188H6.60742V6.32812C6.60823 5.62389 6.88834 4.94873 7.38631 4.45076C7.88428 3.95279 8.55944 3.67268 9.26367 3.67188ZM6.60742 31.6406H24.4199V33.6719C24.4191 34.3761 24.139 35.0513 23.6411 35.5493C23.1431 36.0472 22.4679 36.3273 21.7637 36.3281H9.26367C8.55944 36.3273 7.88428 36.0472 7.38631 35.5492C6.88834 35.0513 6.60823 34.3761 6.60742 33.6719V31.6406Z" fill="#B5243D"/>
<path d="M20.8805 8.35938H21.7488C21.8731 8.35938 21.9924 8.30999 22.0803 8.22208C22.1682 8.13417 22.2176 8.01495 22.2176 7.89062C22.2176 7.7663 22.1682 7.64708 22.0803 7.55917C21.9924 7.47126 21.8731 7.42188 21.7488 7.42188H20.8805C20.7561 7.42188 20.6369 7.47126 20.549 7.55917C20.4611 7.64708 20.4117 7.7663 20.4117 7.89062C20.4117 8.01495 20.4611 8.13417 20.549 8.22208C20.6369 8.30999 20.7561 8.35938 20.8805 8.35938Z" fill="#B5243D"/>
<path d="M15.5137 35.625C15.8382 35.625 16.1554 35.5288 16.4252 35.3485C16.695 35.1682 16.9052 34.912 17.0294 34.6122C17.1536 34.3124 17.1861 33.9826 17.1228 33.6643C17.0595 33.3461 16.9032 33.0537 16.6738 32.8243C16.4443 32.5948 16.152 32.4386 15.8337 32.3753C15.5155 32.312 15.1856 32.3445 14.8858 32.4686C14.586 32.5928 14.3298 32.8031 14.1495 33.0729C13.9693 33.3427 13.873 33.6599 13.873 33.9844C13.8735 34.4194 14.0465 34.8364 14.3541 35.1439C14.6617 35.4515 15.0787 35.6245 15.5137 35.625ZM15.5137 33.2813C15.6527 33.2813 15.7887 33.3225 15.9043 33.3997C16.0199 33.477 16.1101 33.5868 16.1633 33.7153C16.2165 33.8438 16.2304 33.9852 16.2033 34.1215C16.1762 34.2579 16.1092 34.3832 16.0109 34.4816C15.9125 34.5799 15.7872 34.6469 15.6508 34.674C15.5145 34.7011 15.3731 34.6872 15.2446 34.634C15.1161 34.5808 15.0063 34.4906 14.929 34.375C14.8518 34.2594 14.8105 34.1234 14.8105 33.9844C14.8108 33.798 14.8849 33.6192 15.0167 33.4874C15.1485 33.3556 15.3273 33.2815 15.5137 33.2813Z" fill="#B5243D"/>
<path d="M19.3031 20C19.3031 21.107 19.6314 22.1892 20.2465 23.1097C20.8615 24.0302 21.7357 24.7476 22.7585 25.1713C23.7813 25.5949 24.9067 25.7058 25.9925 25.4898C27.0782 25.2738 28.0756 24.7407 28.8584 23.9579C29.6412 23.1751 30.1743 22.1778 30.3903 21.092C30.6063 20.0062 30.4954 18.8808 30.0718 17.858C29.6481 16.8352 28.9307 15.961 28.0102 15.346C27.0897 14.7309 26.0075 14.4026 24.9005 14.4026C23.4165 14.4043 21.9938 14.9946 20.9444 16.0439C19.8951 17.0933 19.3048 18.516 19.3031 20ZM24.9005 15.3401C25.8221 15.3401 26.723 15.6134 27.4894 16.1255C28.2557 16.6375 28.8529 17.3653 29.2056 18.2167C29.5583 19.0682 29.6506 20.0052 29.4708 20.9091C29.291 21.813 28.8472 22.6433 28.1955 23.295C27.5438 23.9467 26.7135 24.3905 25.8096 24.5703C24.9057 24.7501 23.9687 24.6578 23.1172 24.3051C22.2658 23.9524 21.538 23.3552 21.026 22.5889C20.5139 21.8226 20.2406 20.9216 20.2406 20C20.242 18.7646 20.7334 17.5801 21.607 16.7065C22.4806 15.8329 23.665 15.3415 24.9005 15.3401Z" fill="#B5243D"/>
<path d="M23.9531 21.6697C24.0407 21.7552 24.1582 21.8031 24.2806 21.8031C24.403 21.8031 24.5205 21.7552 24.608 21.6697L27.3412 19.0013C27.3857 18.9584 27.4212 18.9071 27.4459 18.8504C27.4705 18.7937 27.4836 18.7327 27.4845 18.6709C27.4855 18.6091 27.4742 18.5477 27.4513 18.4903C27.4284 18.4329 27.3944 18.3806 27.3512 18.3364C27.3081 18.2921 27.2566 18.2569 27.1997 18.2326C27.1429 18.2084 27.0818 18.1956 27.02 18.1951C26.9582 18.1945 26.8968 18.2062 26.8396 18.2295C26.7823 18.2527 26.7302 18.2871 26.6862 18.3305L24.2805 20.6792L23.0909 19.5178C23.0018 19.4319 22.8823 19.3847 22.7585 19.3865C22.6347 19.3884 22.5166 19.4392 22.4302 19.5278C22.3437 19.6164 22.2958 19.7356 22.2969 19.8595C22.298 19.9833 22.348 20.1016 22.4361 20.1887L23.9531 21.6697Z" fill="#B5243D"/>
<path d="M13.9844 18.5156H13.3367C13.2124 18.5156 13.0932 18.565 13.0053 18.6529C12.9174 18.7408 12.868 18.8601 12.868 18.9844C12.868 19.1087 12.9174 19.2279 13.0053 19.3158C13.0932 19.4037 13.2124 19.4531 13.3367 19.4531H13.9844C14.1087 19.4531 14.2279 19.4037 14.3158 19.3158C14.4038 19.2279 14.4531 19.1087 14.4531 18.9844C14.4531 18.8601 14.4038 18.7408 14.3158 18.6529C14.2279 18.565 14.1087 18.5156 13.9844 18.5156Z" fill="#B5243D"/>
<path d="M8.4375 19.4531H11.2638C11.3881 19.4531 11.5074 19.4037 11.5953 19.3158C11.6832 19.2279 11.7326 19.1087 11.7326 18.9844C11.7326 18.8601 11.6832 18.7408 11.5953 18.6529C11.5074 18.565 11.3881 18.5156 11.2638 18.5156H8.4375C8.31318 18.5156 8.19395 18.565 8.10604 18.6529C8.01814 18.7408 7.96875 18.8601 7.96875 18.9844C7.96875 19.1087 8.01814 19.2279 8.10604 19.3158C8.19395 19.4037 8.31318 19.4531 8.4375 19.4531Z" fill="#B5243D"/>
<path d="M13.9844 22.4219H10.993C10.8687 22.4219 10.7494 22.4713 10.6615 22.5592C10.5736 22.6471 10.5242 22.7663 10.5242 22.8906C10.5242 23.0149 10.5736 23.1342 10.6615 23.2221C10.7494 23.31 10.8687 23.3594 10.993 23.3594H13.9844C14.1087 23.3594 14.2279 23.31 14.3158 23.2221C14.4038 23.1342 14.4531 23.0149 14.4531 22.8906C14.4531 22.7663 14.4038 22.6471 14.3158 22.5592C14.2279 22.4713 14.1087 22.4219 13.9844 22.4219Z" fill="#B5243D"/>
<path d="M8.4375 23.3594H8.92008C9.0444 23.3594 9.16363 23.31 9.25153 23.2221C9.33944 23.1342 9.38883 23.0149 9.38883 22.8906C9.38883 22.7663 9.33944 22.6471 9.25153 22.5592C9.16363 22.4713 9.0444 22.4219 8.92008 22.4219H8.4375C8.31318 22.4219 8.19395 22.4713 8.10604 22.5592C8.01814 22.6471 7.96875 22.7663 7.96875 22.8906C7.96875 23.0149 8.01814 23.1342 8.10604 23.2221C8.19395 23.31 8.31318 23.3594 8.4375 23.3594Z" fill="#B5243D"/>
<path d="M13.6719 26.7969C13.6719 26.9212 13.7213 27.0404 13.8092 27.1283C13.8971 27.2162 14.0163 27.2656 14.1406 27.2656H16.3281C16.4524 27.2656 16.5717 27.2162 16.6596 27.1283C16.7475 27.0404 16.7969 26.9212 16.7969 26.7969C16.7969 26.6726 16.7475 26.5533 16.6596 26.4654C16.5717 26.3775 16.4524 26.3281 16.3281 26.3281H14.1406C14.0163 26.3281 13.8971 26.3775 13.8092 26.4654C13.7213 26.5533 13.6719 26.6726 13.6719 26.7969Z" fill="#B5243D"/>
<path d="M12.0451 26.3281H8.4375C8.31318 26.3281 8.19395 26.3775 8.10604 26.4654C8.01814 26.5533 7.96875 26.6726 7.96875 26.7969C7.96875 26.9212 8.01814 27.0404 8.10604 27.1283C8.19395 27.2162 8.31318 27.2656 8.4375 27.2656H12.0451C12.1694 27.2656 12.2886 27.2162 12.3765 27.1283C12.4644 27.0404 12.5138 26.9212 12.5138 26.7969C12.5138 26.6726 12.4644 26.5533 12.3765 26.4654C12.2886 26.3775 12.1694 26.3281 12.0451 26.3281Z" fill="#B5243D"/>
<path d="M11.7969 15.2344H14.7656C14.8899 15.2344 15.0092 15.185 15.0971 15.0971C15.185 15.0092 15.2344 14.8899 15.2344 14.7656C15.2344 14.6413 15.185 14.5221 15.0971 14.4342C15.0092 14.3463 14.8899 14.2969 14.7656 14.2969H11.7969C11.6726 14.2969 11.5533 14.3463 11.4654 14.4342C11.3775 14.5221 11.3281 14.6413 11.3281 14.7656C11.3281 14.8899 11.3775 15.0092 11.4654 15.0971C11.5533 15.185 11.6726 15.2344 11.7969 15.2344Z" fill="#B5243D"/>
<path d="M8.4375 15.2344H9.70133C9.82565 15.2344 9.94488 15.185 10.0328 15.0971C10.1207 15.0092 10.1701 14.8899 10.1701 14.7656C10.1701 14.6413 10.1207 14.5221 10.0328 14.4342C9.94488 14.3463 9.82565 14.2969 9.70133 14.2969H8.4375C8.31318 14.2969 8.19395 14.3463 8.10604 14.4342C8.01814 14.5221 7.96875 14.6413 7.96875 14.7656C7.96875 14.8899 8.01814 15.0092 8.10604 15.0971C8.19395 15.185 8.31318 15.2344 8.4375 15.2344Z" fill="#B5243D"/>
</svg>
