<svg width="68" height="78" viewBox="0 0 68 78" fill="none" xmlns="http://www.w3.org/2000/svg">
<rect width="68" height="78" rx="11" fill="#B5243D"/>
<rect x="14" width="54" height="78" fill="#B5243D"/>
<g clip-path="url(#clip0)">
<path d="M50.1311 30.8829C50.0283 25.7692 46.5749 21.6353 42.2957 21.6353C17.1325 21.6353 21.7036 21.6353 20.8378 21.6353C16.5161 21.6353 13 25.8898 13 31.1193V48.1695H26.9868V59.3647H36.9128V48.1695H55V30.8829H50.1311ZM34.4464 56.3697H29.4533V48.1835H34.4464V56.3697ZM34.458 31.1193V45.1741L15.4664 45.1745V31.1193C15.4664 27.5412 17.8761 24.6302 20.8378 24.6302L36.5852 24.6306C35.226 26.3809 34.458 28.6821 34.458 31.1193V31.1193ZM49.8054 33.8778L44.729 38.1276L39.6526 33.8778H49.8054ZM42.2954 24.6307V24.6302C45.2037 24.6302 47.5598 27.4117 47.6623 30.8829H36.9294C37.0324 27.4288 39.3877 24.6307 42.2954 24.6307V24.6307ZM52.5336 45.1745C46.7487 45.1745 42.8593 45.1743 36.9244 45.1741V35.2316L44.729 41.7653L52.5336 35.2316V45.1745H52.5336Z" fill="white"/>
</g>
<defs>
<clipPath id="clip0">
<rect width="42" height="51" fill="white" transform="translate(13 15)"/>
</clipPath>
</defs>
</svg>
