<svg width="78" height="79" viewBox="0 0 78 79" fill="none" xmlns="http://www.w3.org/2000/svg">
<path d="M39.4224 28.0059H10.1749C9.54386 28.0059 9.03244 28.524 9.03244 29.1629C9.03244 29.802 9.54386 30.32 10.1749 30.32H39.4226C40.0536 30.32 40.565 29.8019 40.565 29.1629C40.565 28.524 40.0536 28.0059 39.4224 28.0059Z" fill="#B5243D"/>
<path d="M39.4224 36.1366H10.1749C9.54386 36.1366 9.03244 36.6547 9.03244 37.2937C9.03244 37.9326 9.54386 38.4507 10.1749 38.4507H39.4226C40.0536 38.4507 40.565 37.9326 40.565 37.2937C40.565 36.6547 40.0536 36.1366 39.4224 36.1366Z" fill="#B5243D"/>
<path d="M39.4224 44.2673H10.1749C9.54386 44.2673 9.03244 44.7855 9.03244 45.4244C9.03244 46.0633 9.54386 46.5815 10.1749 46.5815H39.4226C40.0536 46.5815 40.565 46.0633 40.565 45.4244C40.565 44.7855 40.0536 44.2673 39.4224 44.2673Z" fill="#B5243D"/>
<path d="M40.565 53.5554C40.565 52.9163 40.0536 52.3983 39.4226 52.3983H10.1749C9.54386 52.3983 9.03244 52.9164 9.03244 53.5554C9.03244 54.1943 9.54386 54.7125 10.1749 54.7125H39.4226C40.0536 54.7125 40.565 54.1945 40.565 53.5554Z" fill="#B5243D"/>
<path d="M10.1749 64.3142C9.54386 64.3142 9.03244 64.8323 9.03244 65.4713C9.03244 66.1102 9.54386 66.6284 10.1749 66.6284H24.8361C25.4671 66.6284 25.9786 66.1102 25.9786 65.4713C25.9786 64.8323 25.4671 64.3142 24.8361 64.3142H10.1749Z" fill="#B5243D"/>
<path d="M52.5881 14.3268V10.5722C52.5881 9.14186 51.4393 7.97815 50.0269 7.97815H26.571C25.1588 7.97815 24.01 9.14186 24.01 10.5722V14.3268C24.01 15.7572 25.1588 16.9207 26.571 16.9207H28.5518C29.1828 16.9207 29.6942 16.4026 29.6942 15.7637C29.6942 15.1246 29.1828 14.6066 28.5518 14.6066H26.571C26.4188 14.6066 26.295 14.4811 26.295 14.327V10.5722C26.295 10.418 26.4188 10.2924 26.571 10.2924H50.0269C50.1793 10.2924 50.3031 10.4179 50.3031 10.5722V14.3268C50.3031 14.481 50.1793 14.6064 50.0269 14.6064H33.893C33.262 14.6064 32.7505 15.1246 32.7505 15.7635C32.7505 16.4026 33.262 16.9206 33.893 16.9206H50.0271C51.4393 16.9209 52.5881 15.7572 52.5881 14.3268Z" fill="#B5243D"/>
<path d="M61.1306 70.5593C60.4996 70.5593 59.9882 71.0775 59.9882 71.7164V73.2747C59.9882 75.1554 58.4774 76.6857 56.6202 76.6857H6.07834C4.22143 76.6857 2.71048 75.1555 2.71048 73.2747V17.6559C2.71048 17.4055 2.73943 17.1598 2.79107 16.9208H13.1936C15.3654 16.9208 17.1323 15.1313 17.1323 12.9316V2.39592C17.3682 2.34362 17.6106 2.3143 17.8579 2.3143H56.6201C58.4771 2.3143 59.9881 3.84446 59.9881 5.72534V21.1306C59.9881 21.7697 60.4995 22.2877 61.1305 22.2877C61.7615 22.2877 62.2729 21.7696 62.2729 21.1306V5.72519C62.2731 2.56843 59.7372 0 56.6202 0H17.858C16.3481 0 14.9284 0.595586 13.8608 1.6769L2.08115 13.6076C1.01352 14.6889 0.425629 16.1266 0.425629 17.656V73.2748C0.425629 76.4317 2.96139 79 6.07834 79H56.6202C59.7372 79 62.2731 76.4316 62.2731 73.2748V71.7166C62.2731 71.0775 61.7617 70.5593 61.1306 70.5593ZM14.8474 3.95062V12.9316C14.8474 13.8552 14.1055 14.6067 13.1936 14.6067H4.32624L14.8474 3.95062Z" fill="#B5243D"/>
<path d="M76.7785 41.3514C77.5804 40.1592 77.7879 38.6886 77.3478 37.3166C76.9077 35.9446 75.8862 34.8784 74.5456 34.3914C73.6562 34.0683 73.0628 33.2413 73.0345 32.2846C72.9914 30.8427 72.3057 29.5294 71.1532 28.6813C70.001 27.8335 68.5556 27.579 67.1888 27.983C66.2811 28.2512 65.3218 27.9352 64.7435 27.1783C63.872 26.0373 62.5551 25.3829 61.1307 25.3829C59.7064 25.3829 58.3894 26.0373 57.5177 27.1783C56.9394 27.9353 55.9795 28.2509 55.0726 27.983C53.7056 27.5787 52.2603 27.8335 51.1078 28.6813C49.9555 29.5294 49.2701 30.8426 49.2268 32.2845C49.1984 33.2411 48.6051 34.068 47.7156 34.3912C46.375 34.8782 45.3535 35.9446 44.9135 37.3164C44.4734 38.6884 44.6809 40.1592 45.4828 41.3513C46.0148 42.1424 46.0148 43.1644 45.4828 43.9553C44.6809 45.1476 44.4734 46.6182 44.9135 47.9902C45.3535 49.3622 46.375 50.4284 47.7156 50.9155C48.6051 51.2388 49.1985 52.0656 49.2268 53.0223C49.2666 54.3486 49.8667 55.5949 50.8737 56.4412C51.5381 56.9998 52.3362 57.3492 53.1715 57.466V68.0011C53.1715 68.89 53.6476 69.7117 54.4137 70.1451C55.1789 70.5782 56.1196 70.5589 56.8675 70.0925L61.0577 67.4799C61.126 67.4372 61.1666 67.4565 61.2043 67.4799L65.3942 70.0925C66.1417 70.5584 67.0821 70.5785 67.8481 70.1449C68.6144 69.7113 69.0903 68.8897 69.0903 68.001V57.4657C69.9253 57.3491 70.7235 56.9996 71.3878 56.4412C72.395 55.5949 72.9952 54.3488 73.035 53.0221C73.0633 52.0655 73.6567 51.2385 74.5461 50.9154C75.8868 50.4284 76.9083 49.3621 77.3483 47.99C77.7884 46.618 77.5809 45.1474 76.779 43.9552C76.2464 43.1646 76.2464 42.1425 76.7785 41.3514V41.3514ZM66.5917 68.1218L62.4017 65.5092C61.6227 65.0237 60.6392 65.0229 59.8595 65.5092L55.6695 68.1216C55.5741 68.1804 55.4563 68.1127 55.4563 68.001V57.2463C56.2418 57.1542 57.0206 57.4779 57.5177 58.1286C58.3896 59.2695 59.7064 59.9238 61.1308 59.9238C62.5551 59.9238 63.872 59.2695 64.7435 58.1286C65.2408 57.4778 66.0197 57.1542 66.805 57.2463V68.001C66.805 68.1135 66.6857 68.1806 66.5917 68.1218V68.1218ZM74.8902 45.2587C75.2912 45.8546 75.3948 46.5895 75.1748 47.2752C74.9548 47.9609 74.4443 48.4938 73.7741 48.7373C71.9945 49.3838 70.8077 51.0383 70.7506 52.9524C70.7303 53.6253 70.4383 54.2318 69.9284 54.6605C69.3551 55.1423 68.5788 55.3241 67.8289 55.1025C66.0141 54.5662 64.0935 55.1982 62.9363 56.7125C62.5007 57.2826 61.8424 57.6097 61.1305 57.6097C60.4188 57.6097 59.7605 57.2827 59.3246 56.7125C58.4412 55.5558 57.1126 54.914 55.7258 54.914C55.2965 54.914 54.8614 54.9755 54.4324 55.1024C53.6753 55.3258 52.9012 55.1385 52.3325 54.6603C51.8226 54.2317 51.5306 53.6251 51.5106 52.9524C51.4533 51.0383 50.2666 49.3838 48.4868 48.7372C47.8168 48.4937 47.3064 47.9609 47.0863 47.2752C46.8663 46.5895 46.9699 45.8544 47.3708 45.2585C48.4353 43.6759 48.4353 41.631 47.3708 40.0484C46.9699 39.4525 46.8663 38.7174 47.0863 38.0316C47.3062 37.3459 47.8168 36.8129 48.4868 36.5696C50.2666 35.923 51.4533 34.2684 51.5106 32.3544C51.5321 31.6337 51.8746 30.9773 52.4506 30.5536C53.0263 30.1297 53.7484 30.0026 54.4323 30.2044C56.2467 30.7409 58.1677 30.1087 59.3246 28.5945C59.7603 28.0242 60.4185 27.6971 61.1305 27.6971C61.8424 27.6971 62.5006 28.024 62.9363 28.5943C64.0933 30.1087 66.0134 30.7407 67.8288 30.2044C68.5122 30.0023 69.2343 30.1296 69.8103 30.5534C70.3863 30.9771 70.7291 31.6337 70.7504 32.3542C70.8077 34.2683 71.9945 35.923 73.7741 36.5695C74.4443 36.8128 74.9546 37.3457 75.1748 38.0314C75.3948 38.7171 75.2912 39.4523 74.8902 40.0481C73.8255 41.6309 73.8255 43.6761 74.8902 45.2587V45.2587Z" fill="#B5243D"/>
<path d="M61.1307 32.9552C55.8507 32.9552 51.5552 37.3058 51.5552 42.6534C51.5552 48.001 55.8507 52.3515 61.1307 52.3515C66.4104 52.3515 70.7059 48.001 70.7059 42.6534C70.7059 37.3058 66.4104 32.9552 61.1307 32.9552V32.9552ZM61.1307 50.0374C57.1106 50.0374 53.8401 46.725 53.8401 42.6535C53.8401 38.5821 57.1106 35.2695 61.1307 35.2695C65.1507 35.2695 68.4211 38.5819 68.4211 42.6535C68.4211 46.7251 65.1505 50.0374 61.1307 50.0374Z" fill="#B5243D"/>
</svg>
