<svg width="72" height="58" viewBox="0 0 72 58" fill="none" xmlns="http://www.w3.org/2000/svg">
<path d="M11.5573 14.5854H11.6338C14.5078 14.5832 16.8363 12.5641 16.8397 10.0729V8.57032C16.8363 6.07949 14.5078 4.06086 11.6338 4.05762H11.5573C8.68329 4.06086 6.35456 6.07949 6.3515 8.57032V10.0724C6.35397 12.5637 8.68329 14.5832 11.5573 14.5854ZM8.56001 8.57086C8.56189 7.13658 9.90218 5.97422 11.5573 5.97263H11.6338C13.2883 5.97422 14.6292 7.13658 14.6311 8.57086V10.0729C14.6292 11.5072 13.2883 12.6696 11.6338 12.6709H11.5573C9.90218 12.6696 8.56189 11.5072 8.56001 10.0729V8.57086Z" fill="#B5243D"/>
<path d="M17.7214 16.0256H15.5425C15.2615 16.0261 14.9916 16.1192 14.787 16.2858L11.754 18.7527L8.843 16.2963C8.63654 16.1229 8.36049 16.0256 8.07274 16.0256H5.75944C4.2411 16.0256 2.79299 16.5789 1.76881 17.5503C0.744674 18.5217 0.238757 19.8222 0.375571 21.1328V32.1185C0.375571 33.7399 1.89144 35.0537 3.76165 35.0551H3.80171C4.25527 35.0505 4.70325 34.9651 5.11735 34.804L5.69903 54.6692C5.74897 55.8917 6.62275 56.9745 7.93039 57.4337C9.23798 57.8925 10.7348 57.6432 11.7522 56.7955C12.7708 57.6441 14.2706 57.8938 15.5795 57.4314C16.8882 56.9694 17.7604 55.883 17.8059 54.6592L18.3867 34.82C19.4338 35.2071 20.635 35.1126 21.5843 34.5689C22.5341 34.0243 23.1061 33.104 23.1061 32.1171V21.1332C23.2419 19.8227 22.7366 18.5226 21.7127 17.5507C20.6879 16.5789 19.2397 16.0256 17.7214 16.0256ZM14.2275 55.7456C13.4701 55.7452 12.8564 55.2134 12.8558 54.5574V34.6575H10.6473V54.5574C10.6467 55.2029 10.0514 55.7301 9.30639 55.7447C8.56137 55.7593 7.93963 55.2553 7.90575 54.6103L7.24825 32.1582H16.256L15.598 54.5994C15.5739 55.2398 14.9663 55.7479 14.2275 55.7456ZM20.9022 20.9908C20.8988 21.0228 20.8968 21.0556 20.8968 21.0876V32.1171C20.8894 32.6777 20.3624 33.1296 19.7149 33.1296C19.0678 33.1296 18.5408 32.6777 18.5334 32.1171V29.779L18.5467 29.3344H18.5334V24.7344H16.3251V29.7566L16.3108 30.2437H7.19278L7.16502 29.2865H7.15149V24.7349H4.94295V32.0637C4.95777 32.6384 4.4395 33.1168 3.77707 33.141C3.46219 33.1442 3.15903 33.0379 2.93469 32.8461C2.71105 32.654 2.58471 32.3924 2.58471 32.119V21.088C2.58471 21.0556 2.58288 21.0232 2.57917 20.9913C2.48795 20.2116 2.78188 19.4347 3.38826 18.8535C3.99459 18.2724 4.85607 17.9406 5.76008 17.9406H7.62471L10.9695 20.7621C10.9745 20.7662 10.98 20.769 10.9856 20.7735C11.0188 20.8005 11.0534 20.8256 11.0903 20.8493C11.0928 20.8507 11.0953 20.8529 11.0984 20.8548C11.1384 20.879 11.1803 20.9018 11.2234 20.9214C11.2321 20.9251 11.2407 20.9287 11.2499 20.9324C11.29 20.9502 11.3313 20.9652 11.3732 20.9785C11.3769 20.9794 11.3806 20.9812 11.3849 20.9821C11.4299 20.9949 11.4755 21.0059 11.5223 21.0136C11.5334 21.0155 11.5445 21.0168 11.5549 21.0186C11.5962 21.025 11.6382 21.0287 11.68 21.031C11.6862 21.031 11.6924 21.0319 11.6992 21.0323C11.746 21.0337 11.7928 21.0323 11.8396 21.0287C11.8507 21.0278 11.8619 21.0264 11.8729 21.0255C11.9192 21.0205 11.9654 21.0136 12.0103 21.004L12.0153 21.0031C12.064 20.9917 12.112 20.978 12.1588 20.9607C12.1626 20.9598 12.1663 20.9593 12.17 20.9575C12.1743 20.9566 12.178 20.9538 12.1817 20.9529C12.2723 20.9182 12.3573 20.8739 12.4343 20.8196C12.4442 20.8123 12.454 20.8055 12.4639 20.7977C12.4737 20.7904 12.4861 20.7826 12.4965 20.774L15.9799 17.9406H17.7229C18.6263 17.9406 19.4877 18.2724 20.0937 18.8535C20.6997 19.4347 20.9936 20.2116 20.9022 20.9908Z" fill="#B5243D"/>
<path d="M60.4015 14.5854H60.4785C63.3521 14.5832 65.6809 12.5641 65.6844 10.0729V8.57032C65.6809 6.07949 63.3521 4.06086 60.4785 4.05762H60.4015C57.5279 4.06086 55.1991 6.07949 55.1961 8.57032V10.0724C55.1991 12.5637 57.5279 14.5832 60.4015 14.5854ZM57.4044 8.57086C57.4064 7.13658 58.7474 5.97422 60.4015 5.97263H60.4785C62.1331 5.97422 63.4741 7.13658 63.4761 8.57086V10.0729C63.4741 11.5072 62.1331 12.6696 60.4785 12.6709H60.4015C58.7474 12.6696 57.4064 11.5072 57.4044 10.0729V8.57086Z" fill="#B5243D"/>
<path d="M66.5665 16.0256H64.3869C64.1059 16.0261 63.8357 16.1192 63.6312 16.2858L60.5981 18.7522L57.6875 16.2963C57.481 16.1229 57.2049 16.0256 56.917 16.0256H54.604C53.0857 16.0256 51.6375 16.5789 50.6127 17.5503C49.5883 18.5217 49.083 19.8222 49.2193 21.1328V32.1185C49.2198 33.74 50.7356 35.0537 52.6061 35.0551H52.6456C53.099 35.0501 53.547 34.9647 53.9604 34.804L54.5422 54.6689C54.5921 55.8913 55.4658 56.9741 56.7732 57.4333C58.0811 57.8925 59.5777 57.6428 60.5951 56.7956C61.6146 57.6442 63.1136 57.8935 64.4225 57.431C65.7313 56.9695 66.6041 55.8831 66.649 54.6588L67.2299 34.82C68.277 35.2067 69.4782 35.1122 70.4275 34.5685C71.3773 34.0239 71.9492 33.1036 71.9492 32.1172V21.1332C72.0855 19.8227 71.5798 18.5226 70.5564 17.5512C69.532 16.5798 68.0838 16.0261 66.5665 16.0256ZM63.0716 55.7457C62.3144 55.7452 61.7005 55.2134 61.7 54.5575V34.6575H59.4917V54.5575C59.4932 55.2043 58.8976 55.7334 58.1513 55.748C57.4049 55.7626 56.7826 55.2568 56.7505 54.6104L56.0926 32.1582H65.1006L64.4422 54.5995C64.418 55.2399 63.8115 55.748 63.0716 55.7457ZM69.7469 20.9908C69.7429 21.0228 69.7409 21.0556 69.7409 21.0876V32.1172C69.7409 32.6827 69.2124 33.1411 68.56 33.1411C67.907 33.1411 67.3785 32.6827 67.3785 32.1172V29.779L67.3914 29.3344H67.3785V24.7344H65.1703V29.7558L65.1559 30.2433H56.0363L56.0087 29.286H55.9953V24.7344H53.7865V32.0638C53.8014 32.6385 53.2832 33.1169 52.6209 33.1411C52.3058 33.1443 52.0025 33.0379 51.7793 32.8462C51.5545 32.654 51.4286 32.392 51.4286 32.119V21.088C51.4286 21.0556 51.4266 21.0232 51.4227 20.9913C51.3318 20.2116 51.6257 19.4347 52.2322 18.8536C52.8377 18.2725 53.6996 17.9406 54.604 17.9406H56.468L59.8143 20.7621C59.8187 20.7658 59.8251 20.769 59.8301 20.7726C59.8632 20.8005 59.8982 20.8256 59.9353 20.8493C59.9377 20.8507 59.9402 20.853 59.9427 20.8548C59.9832 20.879 60.0252 20.9018 60.0691 20.9214C60.0775 20.9251 60.0864 20.9287 60.0948 20.9324C60.1348 20.9502 60.1768 20.9653 60.2193 20.9785L60.2296 20.9817C60.2746 20.9949 60.321 21.0059 60.3679 21.0136C60.3783 21.0155 60.3897 21.0168 60.4005 21.0187C60.442 21.0246 60.4835 21.0287 60.5255 21.031C60.5319 21.031 60.5378 21.0319 60.5448 21.0324C60.5917 21.0337 60.6386 21.0324 60.6845 21.0282C60.6964 21.0278 60.7073 21.0264 60.7186 21.025C60.7645 21.0205 60.8105 21.0132 60.8554 21.0036C60.8569 21.0036 60.8589 21.0036 60.8604 21.0031C60.9093 20.9917 60.9572 20.978 61.0036 20.9607C61.0075 20.9598 61.012 20.9593 61.0155 20.9575C61.0194 20.9566 61.0229 20.9538 61.0268 20.9525C61.1172 20.9182 61.2022 20.874 61.2792 20.8196C61.2891 20.8123 61.299 20.8059 61.3088 20.7977C61.3187 20.79 61.3311 20.7827 61.3414 20.774L64.825 17.9406H66.5675C67.4714 17.9406 68.3333 18.2725 68.9388 18.8536C69.5453 19.4347 69.8382 20.2116 69.7473 20.9908H69.7469Z" fill="#B5243D"/>
<path d="M35.9793 14.5854H36.0563C38.9294 14.5832 41.2587 12.5641 41.2622 10.0729V8.57032C41.2587 6.07949 38.9294 4.06086 36.0563 4.05762H35.9793C33.1057 4.06086 30.7769 6.07949 30.7734 8.57032V10.0724C30.7764 12.5637 33.1052 14.5832 35.9793 14.5854ZM32.9817 8.57086C32.9837 7.13658 34.3247 5.97422 35.9793 5.97263H36.0563C37.7105 5.97422 39.0514 7.13658 39.0534 8.57086V10.0729C39.0514 11.5072 37.7105 12.6696 36.0563 12.6709H35.9793C34.3247 12.6696 32.9837 11.5072 32.9817 10.0729V8.57032V8.57086Z" fill="#B5243D"/>
<path d="M42.1445 16.0256H39.9644C39.6833 16.0261 39.4136 16.1192 39.2087 16.2858L36.176 18.7527L33.2649 16.2963C33.0589 16.1229 32.7824 16.0256 32.4954 16.0256H30.1819C28.6636 16.0256 27.2154 16.5789 26.1916 17.5503C25.1667 18.5217 24.6614 19.8222 24.7972 21.1328V32.1185C24.7982 33.7399 26.3141 35.0537 28.184 35.055H28.2235C28.6769 35.05 29.1249 34.9647 29.5388 34.804L30.1211 54.6687C30.17 55.8916 31.0448 56.9744 32.3522 57.4332C33.66 57.8924 35.1566 57.6427 36.1741 56.7955C37.1925 57.6441 38.6925 57.8933 40.0014 57.4314C41.3098 56.9694 42.182 55.883 42.228 54.6587L42.8083 34.8199C43.8559 35.2066 45.0566 35.1121 46.0064 34.5684C46.9557 34.0243 47.5272 33.1036 47.5272 32.1171V21.1332C47.664 19.8227 47.1587 18.5226 46.1343 17.5507C45.1105 16.5798 43.6623 16.0261 42.1445 16.0256ZM38.6496 55.7456C37.8929 55.7451 37.2789 55.2133 37.2785 54.5573V34.6574H35.0697V54.5573C35.0692 55.2028 34.474 55.73 33.7287 55.7447C32.9839 55.7593 32.362 55.2553 32.3285 54.6103L31.6706 32.1582H40.6781L40.0197 54.5993C39.9965 55.2398 39.389 55.7479 38.6496 55.7456ZM45.3248 20.9908C45.3204 21.0228 45.3189 21.0556 45.3189 21.0876V32.1171C45.3189 32.6827 44.7899 33.141 44.1374 33.141C43.485 33.141 42.956 32.6827 42.956 32.1171V29.779L42.9688 29.3344H42.956V24.7344H40.7477V29.7557L40.7334 30.2432H31.6147L31.5861 29.286H31.5733V24.7344H29.365V32.0637C29.3798 32.6384 28.8607 33.1168 28.1988 33.141C27.8842 33.1442 27.5804 33.0378 27.3567 32.8461C27.1325 32.6539 27.0065 32.3919 27.006 32.1189V21.088C27.006 21.0556 27.0041 21.0232 27.0006 20.9913C26.9092 20.2116 27.2036 19.4346 27.8096 18.8535C28.4157 18.272 29.278 17.9401 30.1819 17.9406H32.0464L35.3927 20.7621C35.3976 20.7658 35.4031 20.7689 35.4085 20.7726C35.4416 20.8 35.4767 20.8255 35.5132 20.8493C35.5157 20.8507 35.5181 20.8529 35.5216 20.8548C35.5616 20.879 35.6036 20.9018 35.6466 20.921C35.655 20.9251 35.6638 20.9287 35.6732 20.9324C35.7132 20.9502 35.7542 20.9652 35.7962 20.978C35.8002 20.9794 35.8036 20.9812 35.8081 20.9821C35.853 20.9949 35.8985 21.0059 35.9454 21.0136C35.9567 21.0154 35.9671 21.0168 35.978 21.0186C36.0195 21.025 36.0615 21.0287 36.1029 21.031C36.1094 21.031 36.1163 21.0319 36.1222 21.0323C36.1691 21.0337 36.216 21.0323 36.263 21.0282C36.2738 21.0278 36.2852 21.0264 36.2961 21.025C36.343 21.0205 36.3884 21.0132 36.4334 21.0036L36.4383 21.0031C36.4872 20.9917 36.5351 20.978 36.582 20.9607C36.5855 20.9598 36.5894 20.9593 36.5929 20.9575C36.5969 20.9566 36.6013 20.9538 36.6048 20.9525C36.6951 20.9182 36.7806 20.8739 36.8576 20.8196C36.8675 20.8123 36.8769 20.8059 36.8868 20.7977C36.8967 20.7899 36.909 20.7826 36.9189 20.774L40.4025 17.9406H42.145C43.0494 17.9406 43.9107 18.2724 44.5168 18.8535C45.1228 19.4346 45.4167 20.2116 45.3248 20.9908Z" fill="#B5243D"/>
<path d="M29.1954 6.16397V4.66195C29.192 2.17062 26.8637 0.152062 23.9896 0.149414H23.913C21.039 0.152062 18.7102 2.17062 18.7072 4.66195V6.16397C18.7102 8.65471 21.039 10.6733 23.913 10.6765H23.9896C26.8637 10.6738 29.192 8.65471 29.1954 6.16397ZM26.9867 6.16397C26.9847 7.59816 25.6447 8.76047 23.9896 8.76207H23.913C22.2584 8.76047 20.9175 7.59816 20.916 6.16397V4.66195C20.9175 3.22772 22.2584 2.0654 23.913 2.06381H23.9896C25.6447 2.0654 26.9847 3.22772 26.9867 4.66195V6.16397Z" fill="#B5243D"/>
<path d="M53.6176 6.16397V4.66195C53.6147 2.17062 51.2859 0.152062 48.4123 0.149414H48.3352C45.4616 0.152062 43.1329 2.17062 43.1294 4.66195V6.16397C43.1329 8.65471 45.4616 10.6733 48.3352 10.6765H48.4123C51.2859 10.6738 53.6147 8.65471 53.6176 6.16397ZM51.4093 6.16397C51.4074 7.59816 50.0664 8.76047 48.4123 8.76207H48.3352C46.6806 8.76047 45.3396 7.59816 45.3377 6.16397V4.66195C45.3396 3.22772 46.6806 2.0654 48.3352 2.06381H48.4123C50.0664 2.0654 51.4074 3.22772 51.4093 4.66195V6.16397Z" fill="#B5243D"/>
</svg>
