<svg width="100" height="101" viewBox="0 0 100 101" fill="none" xmlns="http://www.w3.org/2000/svg">
<rect width="100" height="101" rx="50" fill="white"/>
<path d="M26.5573 32.5854H26.6338C29.5078 32.5832 31.8363 30.5641 31.8397 28.0729V26.5703C31.8363 24.0795 29.5078 22.0609 26.6338 22.0576H26.5573C23.6833 22.0609 21.3546 24.0795 21.3515 26.5703V28.0724C21.354 30.5637 23.6833 32.5832 26.5573 32.5854ZM23.56 26.5709C23.5619 25.1366 24.9022 23.9742 26.5573 23.9726H26.6338C28.2883 23.9742 29.6292 25.1366 29.6311 26.5709V28.0729C29.6292 29.5072 28.2883 30.6696 26.6338 30.6709H26.5573C24.9022 30.6696 23.5619 29.5072 23.56 28.0729V26.5709Z" fill="#B5243D"/>
<path d="M32.7214 34.0256H30.5425C30.2615 34.0261 29.9916 34.1192 29.787 34.2858L26.754 36.7527L23.843 34.2963C23.6365 34.1229 23.3605 34.0256 23.0727 34.0256H20.7594C19.2411 34.0256 17.793 34.5789 16.7688 35.5503C15.7447 36.5217 15.2388 37.8222 15.3756 39.1328V50.1185C15.3756 51.7399 16.8914 53.0537 18.7617 53.0551H18.8017C19.2553 53.0505 19.7033 52.9651 20.1174 52.804L20.699 72.6692C20.749 73.8917 21.6228 74.9745 22.9304 75.4337C24.238 75.8925 25.7348 75.6432 26.7522 74.7955C27.7708 75.6441 29.2706 75.8938 30.5795 75.4314C31.8882 74.9694 32.7604 73.883 32.8059 72.6592L33.3867 52.82C34.4338 53.2071 35.635 53.1126 36.5843 52.5689C37.5341 52.0243 38.1061 51.104 38.1061 50.1171V39.1332C38.2419 37.8227 37.7366 36.5226 36.7127 35.5507C35.6879 34.5789 34.2397 34.0256 32.7214 34.0256ZM29.2275 73.7456C28.4701 73.7452 27.8564 73.2134 27.8558 72.5574V52.6575H25.6473V72.5574C25.6467 73.2029 25.0514 73.7301 24.3064 73.7447C23.5614 73.7593 22.9396 73.2553 22.9057 72.6103L22.2482 50.1582H31.256L30.598 72.5994C30.5739 73.2398 29.9663 73.7479 29.2275 73.7456ZM35.9022 38.9908C35.8988 39.0228 35.8968 39.0556 35.8968 39.0876V50.1171C35.8894 50.6777 35.3624 51.1296 34.7149 51.1296C34.0678 51.1296 33.5408 50.6777 33.5334 50.1171V47.779L33.5467 47.3344H33.5334V42.7344H31.3251V47.7566L31.3108 48.2437H22.1928L22.165 47.2865H22.1515V42.7349H19.9429V50.0637C19.9578 50.6384 19.4395 51.1168 18.7771 51.141C18.4622 51.1442 18.159 51.0379 17.9347 50.8461C17.711 50.654 17.5847 50.3924 17.5847 50.119V39.088C17.5847 39.0556 17.5829 39.0232 17.5792 38.9913C17.4879 38.2116 17.7819 37.4347 18.3883 36.8535C18.9946 36.2724 19.8561 35.9406 20.7601 35.9406H22.6247L25.9695 38.7621C25.9745 38.7662 25.98 38.769 25.9856 38.7735C26.0188 38.8005 26.0534 38.8256 26.0903 38.8493C26.0928 38.8507 26.0953 38.8529 26.0984 38.8548C26.1384 38.879 26.1803 38.9018 26.2234 38.9214C26.2321 38.9251 26.2407 38.9287 26.2499 38.9324C26.29 38.9502 26.3313 38.9652 26.3732 38.9785C26.3769 38.9794 26.3806 38.9812 26.3849 38.9821C26.4299 38.9949 26.4755 39.0059 26.5223 39.0136C26.5334 39.0155 26.5445 39.0168 26.5549 39.0186C26.5962 39.025 26.6382 39.0287 26.68 39.031C26.6862 39.031 26.6924 39.0319 26.6992 39.0323C26.746 39.0337 26.7928 39.0323 26.8396 39.0287C26.8507 39.0278 26.8619 39.0264 26.8729 39.0255C26.9192 39.0205 26.9654 39.0136 27.0103 39.004L27.0153 39.0031C27.064 38.9917 27.112 38.978 27.1588 38.9607C27.1626 38.9598 27.1663 38.9593 27.17 38.9575C27.1743 38.9566 27.178 38.9538 27.1817 38.9529C27.2723 38.9182 27.3573 38.8739 27.4343 38.8196C27.4442 38.8123 27.454 38.8055 27.4639 38.7977C27.4737 38.7904 27.4861 38.7826 27.4965 38.774L30.9799 35.9406H32.7229C33.6263 35.9406 34.4877 36.2724 35.0937 36.8535C35.6997 37.4347 35.9936 38.2116 35.9022 38.9908Z" fill="#B5243D"/>
<path d="M75.4015 32.5854H75.4785C78.3521 32.5832 80.6809 30.5641 80.6844 28.0729V26.5703C80.6809 24.0795 78.3521 22.0609 75.4785 22.0576H75.4015C72.5279 22.0609 70.1991 24.0795 70.1961 26.5703V28.0724C70.1991 30.5637 72.5279 32.5832 75.4015 32.5854ZM72.4044 26.5709C72.4064 25.1366 73.7474 23.9742 75.4015 23.9726H75.4785C77.1331 23.9742 78.4741 25.1366 78.4761 26.5709V28.0729C78.4741 29.5072 77.1331 30.6696 75.4785 30.6709H75.4015C73.7474 30.6696 72.4064 29.5072 72.4044 28.0729V26.5709Z" fill="#B5243D"/>
<path d="M81.5665 34.0256H79.3869C79.1059 34.0261 78.8357 34.1192 78.6312 34.2858L75.5981 36.7522L72.6875 34.2963C72.481 34.1229 72.2049 34.0256 71.917 34.0256H69.604C68.0857 34.0256 66.6375 34.5789 65.6127 35.5503C64.5883 36.5217 64.083 37.8222 64.2193 39.1328V50.1185C64.2198 51.74 65.7356 53.0537 67.6061 53.0551H67.6456C68.099 53.0501 68.547 52.9647 68.9604 52.804L69.5422 72.6689C69.5921 73.8913 70.4658 74.9741 71.7732 75.4333C73.0811 75.8925 74.5777 75.6428 75.5951 74.7956C76.6146 75.6442 78.1136 75.8935 79.4225 75.431C80.7313 74.9695 81.6041 73.8831 81.649 72.6588L82.2299 52.82C83.277 53.2066 84.4782 53.1122 85.4275 52.5685C86.3773 52.0239 86.9492 51.1036 86.9492 50.1172V39.1332C87.0855 37.8227 86.5798 36.5226 85.5564 35.5512C84.532 34.5798 83.0838 34.0261 81.5665 34.0256ZM78.0716 73.7457C77.3144 73.7452 76.7005 73.2134 76.7 72.5575V52.6575H74.4917V72.5575C74.4932 73.2043 73.8976 73.7334 73.1513 73.748C72.4049 73.7626 71.7826 73.2568 71.7505 72.6104L71.0926 50.1582H80.1006L79.4422 72.5995C79.418 73.2399 78.8115 73.748 78.0716 73.7457ZM84.7469 38.9908C84.7429 39.0228 84.7409 39.0556 84.7409 39.0876V50.1172C84.7409 50.6827 84.2124 51.1411 83.56 51.1411C82.907 51.1411 82.3785 50.6827 82.3785 50.1172V47.779L82.3914 47.3344H82.3785V42.7344H80.1703V47.7558L80.1559 48.2433H71.0363L71.0087 47.286H70.9953V42.7344H68.7865V50.0638C68.8014 50.6385 68.2832 51.1169 67.6209 51.1411C67.3058 51.1443 67.0025 51.0379 66.7793 50.8462C66.5545 50.654 66.4286 50.392 66.4286 50.119V39.088C66.4286 39.0556 66.4266 39.0232 66.4227 38.9913C66.3318 38.2116 66.6257 37.4347 67.2322 36.8536C67.8377 36.2725 68.6996 35.9406 69.604 35.9406H71.468L74.8143 38.7621C74.8187 38.7658 74.8251 38.769 74.8301 38.7726C74.8632 38.8005 74.8982 38.8256 74.9353 38.8493C74.9377 38.8507 74.9402 38.853 74.9427 38.8548C74.9832 38.879 75.0252 38.9018 75.0691 38.9214C75.0775 38.9251 75.0864 38.9287 75.0948 38.9324C75.1348 38.9502 75.1768 38.9653 75.2193 38.9785L75.2296 38.9817C75.2746 38.9949 75.321 39.0059 75.3679 39.0136C75.3783 39.0155 75.3897 39.0168 75.4005 39.0187C75.442 39.0246 75.4835 39.0287 75.5255 39.031C75.5319 39.031 75.5378 39.0319 75.5448 39.0324C75.5917 39.0337 75.6386 39.0324 75.6845 39.0282C75.6964 39.0278 75.7073 39.0264 75.7186 39.025C75.7645 39.0205 75.8105 39.0132 75.8554 39.0036C75.8569 39.0036 75.8589 39.0036 75.8604 39.0031C75.9093 38.9917 75.9572 38.978 76.0036 38.9607C76.0075 38.9598 76.012 38.9593 76.0155 38.9575C76.0194 38.9566 76.0229 38.9538 76.0268 38.9525C76.1172 38.9182 76.2022 38.874 76.2792 38.8196C76.2891 38.8123 76.299 38.8059 76.3088 38.7977C76.3187 38.79 76.3311 38.7827 76.3414 38.774L79.825 35.9406H81.5675C82.4714 35.9406 83.3333 36.2725 83.9388 36.8536C84.5453 37.4347 84.8382 38.2116 84.7473 38.9908H84.7469Z" fill="#B5243D"/>
<path d="M50.9793 32.5854H51.0563C53.9294 32.5832 56.2587 30.5641 56.2622 28.0729V26.5703C56.2587 24.0795 53.9294 22.0609 51.0563 22.0576H50.9793C48.1057 22.0609 45.7769 24.0795 45.7734 26.5703V28.0724C45.7764 30.5637 48.1052 32.5832 50.9793 32.5854ZM47.9817 26.5709C47.9837 25.1366 49.3247 23.9742 50.9793 23.9726H51.0563C52.7105 23.9742 54.0514 25.1366 54.0534 26.5709V28.0729C54.0514 29.5072 52.7105 30.6696 51.0563 30.6709H50.9793C49.3247 30.6696 47.9837 29.5072 47.9817 28.0729V26.5703V26.5709Z" fill="#B5243D"/>
<path d="M57.1445 34.0256H54.9644C54.6833 34.0261 54.4136 34.1192 54.2087 34.2858L51.176 36.7527L48.2649 34.2963C48.0589 34.1229 47.7824 34.0256 47.4954 34.0256H45.1819C43.6636 34.0256 42.2154 34.5789 41.1916 35.5503C40.1667 36.5217 39.6614 37.8222 39.7972 39.1328V50.1185C39.7982 51.7399 41.3141 53.0537 43.184 53.055H43.2235C43.6769 53.05 44.1249 52.9646 44.5388 52.804L45.1211 72.6687C45.17 73.8916 46.0448 74.9744 47.3522 75.4332C48.66 75.8924 50.1566 75.6427 51.1741 74.7955C52.1925 75.6441 53.6925 75.8933 55.0014 75.4314C56.3098 74.9694 57.182 73.883 57.228 72.6587L57.8083 52.8199C58.8559 53.2066 60.0566 53.1121 61.0064 52.5684C61.9557 52.0243 62.5272 51.1036 62.5272 50.1171V39.1332C62.664 37.8227 62.1587 36.5226 61.1343 35.5507C60.1105 34.5798 58.6623 34.0261 57.1445 34.0256ZM53.6496 73.7456C52.8929 73.7451 52.2789 73.2133 52.2785 72.5573V52.6574H50.0697V72.5573C50.0692 73.2028 49.474 73.73 48.7287 73.7447C47.9839 73.7593 47.362 73.2553 47.3285 72.6103L46.6706 50.1582H55.6781L55.0197 72.5993C54.9965 73.2398 54.389 73.7479 53.6496 73.7456ZM60.3248 38.9908C60.3204 39.0228 60.3189 39.0556 60.3189 39.0876V50.1171C60.3189 50.6827 59.7899 51.141 59.1374 51.141C58.485 51.141 57.956 50.6827 57.956 50.1171V47.779L57.9688 47.3344H57.956V42.7344H55.7477V47.7557L55.7334 48.2432H46.6147L46.5861 47.286H46.5733V42.7344H44.365V50.0637C44.3798 50.6384 43.8607 51.1168 43.1988 51.141C42.8842 51.1442 42.5804 51.0378 42.3567 50.8461C42.1325 50.6539 42.0065 50.3919 42.006 50.1189V39.088C42.006 39.0556 42.0041 39.0232 42.0006 38.9913C41.9092 38.2116 42.2036 37.4346 42.8096 36.8535C43.4157 36.272 44.278 35.9401 45.1819 35.9406H47.0464L50.3927 38.7621C50.3976 38.7658 50.4031 38.7689 50.4085 38.7726C50.4416 38.8 50.4767 38.8255 50.5132 38.8493C50.5157 38.8507 50.5181 38.8529 50.5216 38.8548C50.5616 38.879 50.6036 38.9018 50.6466 38.921C50.655 38.9251 50.6638 38.9287 50.6732 38.9324C50.7132 38.9502 50.7542 38.9652 50.7962 38.978C50.8002 38.9794 50.8036 38.9812 50.8081 38.9821C50.853 38.9949 50.8985 39.0059 50.9454 39.0136C50.9567 39.0154 50.9671 39.0168 50.978 39.0186C51.0195 39.025 51.0615 39.0287 51.1029 39.031C51.1094 39.031 51.1163 39.0319 51.1222 39.0323C51.1691 39.0337 51.216 39.0323 51.263 39.0282C51.2738 39.0278 51.2852 39.0264 51.2961 39.025C51.343 39.0205 51.3884 39.0132 51.4334 39.0036L51.4383 39.0031C51.4872 38.9917 51.5351 38.978 51.582 38.9607C51.5855 38.9598 51.5894 38.9593 51.5929 38.9575C51.5969 38.9566 51.6013 38.9538 51.6048 38.9525C51.6951 38.9182 51.7806 38.8739 51.8576 38.8196C51.8675 38.8123 51.8769 38.8059 51.8868 38.7977C51.8967 38.7899 51.909 38.7826 51.9189 38.774L55.4025 35.9406H57.145C58.0494 35.9406 58.9107 36.2724 59.5168 36.8535C60.1228 37.4346 60.4167 38.2116 60.3248 38.9908Z" fill="#B5243D"/>
<path d="M44.1954 24.164V22.662C44.192 20.1706 41.8637 18.1521 38.9896 18.1494H38.913C36.039 18.1521 33.7102 20.1706 33.7072 22.662V24.164C33.7102 26.6547 36.039 28.6733 38.913 28.6765H38.9896C41.8637 28.6738 44.192 26.6547 44.1954 24.164ZM41.9867 24.164C41.9847 25.5982 40.6447 26.7605 38.9896 26.7621H38.913C37.2584 26.7605 35.9175 25.5982 35.916 24.164V22.662C35.9175 21.2277 37.2584 20.0654 38.913 20.0638H38.9896C40.6447 20.0654 41.9847 21.2277 41.9867 22.662V24.164Z" fill="#B5243D"/>
<path d="M68.6176 24.164V22.662C68.6147 20.1706 66.2859 18.1521 63.4123 18.1494H63.3352C60.4616 18.1521 58.1329 20.1706 58.1294 22.662V24.164C58.1329 26.6547 60.4616 28.6733 63.3352 28.6765H63.4123C66.2859 28.6738 68.6147 26.6547 68.6176 24.164ZM66.4093 24.164C66.4074 25.5982 65.0664 26.7605 63.4123 26.7621H63.3352C61.6806 26.7605 60.3396 25.5982 60.3377 24.164V22.662C60.3396 21.2277 61.6806 20.0654 63.3352 20.0638H63.4123C65.0664 20.0654 66.4074 21.2277 66.4093 22.662V24.164Z" fill="#B5243D"/>
</svg>
