<svg width="68" height="78" viewBox="0 0 68 78" fill="none" xmlns="http://www.w3.org/2000/svg">
<rect width="68" height="78" rx="11" fill="#B5243D"/>
<rect x="14" width="54" height="78" fill="#B5243D"/>
<path d="M52.957 40.3477H54.3047V41.6953H52.957V40.3477Z" fill="white"/>
<path d="M48.3576 24.6424C44.5225 20.8074 39.4236 18.6953 34 18.6953V20.043C44.453 20.043 52.957 28.547 52.957 39H54.3047C54.3047 33.5765 52.1926 28.4775 48.3576 24.6424V24.6424Z" fill="white"/>
<path d="M17.7383 39.3476V39C17.7383 30.0332 25.0332 22.7383 34 22.7383C42.9668 22.7383 50.2617 30.0332 50.2617 39C50.2617 43.1017 48.7292 47.0195 45.9464 50.0315L46.9363 50.9461C49.9498 47.6842 51.6094 43.4417 51.6094 39C51.6094 29.2902 43.7099 21.3906 34 21.3906C24.4069 21.3906 16.5809 29.1007 16.394 38.65L14.3691 40.0901L12.3504 38.6544C12.4354 33.2421 14.5176 28.1068 18.2351 24.1593L17.2541 23.2354C13.2211 27.5176 11 33.1163 11 39V39.3476L14.3691 41.7437L17.7383 39.3476Z" fill="white"/>
<path d="M50.2634 22.7365C45.9193 18.3924 40.1435 16 34 16C28.1166 16 22.5179 18.2211 18.2354 22.2541L19.1593 23.2352C23.1908 19.4385 28.4614 17.3477 34 17.3477C45.9391 17.3477 55.6523 27.0608 55.6523 39C55.6523 50.4909 46.6549 59.92 35.335 60.6116L36.7437 58.6309L35.2736 56.5637C39.248 56.2781 42.9976 54.6604 45.946 51.9363L45.0314 50.9464C42.0197 53.7292 38.102 55.2617 34 55.2617H32.6939L35.09 58.6309L32.6939 62H34C40.1435 62 45.9193 59.6075 50.2634 55.2635C54.6075 50.9193 57 45.1435 57 39C57 32.8565 54.6075 27.0807 50.2634 22.7365V22.7365Z" fill="white"/>
<path d="M36.6953 39C36.6953 38.5009 36.5584 38.0333 36.3209 37.632L42.3359 31.617L41.383 30.6641L35.3679 36.679C34.9667 36.4416 34.4992 36.3047 34 36.3047C33.5008 36.3047 33.0333 36.4416 32.632 36.679L29.1475 33.1946L28.1946 34.1476L31.6791 37.632C31.4415 38.0333 31.3047 38.5009 31.3047 39C31.3047 40.4862 32.5138 41.6953 34 41.6953C35.4862 41.6953 36.6953 40.4862 36.6953 39V39ZM32.6523 39C32.6523 38.2569 33.2569 37.6524 34 37.6524C34.7431 37.6524 35.3476 38.2569 35.3476 39C35.3476 39.7431 34.7431 40.3477 34 40.3477C33.2569 40.3477 32.6523 39.7431 32.6523 39Z" fill="white"/>
<path d="M47.5664 38.3262H48.9141V39.6738H47.5664V38.3262Z" fill="white"/>
<path d="M43.1111 28.9312L44.0638 27.9784L45.0166 28.9312L44.0639 29.8839L43.1111 28.9312Z" fill="white"/>
<path d="M22.9751 28.9307L23.9279 27.9779L24.8806 28.9306L23.9278 29.8834L22.9751 28.9307Z" fill="white"/>
<path d="M19.0859 38.3262H20.4336V39.6738H19.0859V38.3262Z" fill="white"/>
<path d="M33.3262 52.5664H34.6738V53.9141H33.3262V52.5664Z" fill="white"/>
<path d="M43.1096 49.0715L44.0624 48.1187L45.0151 49.0715L44.0623 50.0243L43.1096 49.0715Z" fill="white"/>
<path d="M33.3262 24.0859H34.6738V25.4336H33.3262V24.0859Z" fill="white"/>
</svg>
