<svg width="26" height="26" viewBox="0 0 26 26" fill="none" xmlns="http://www.w3.org/2000/svg">
<path d="M11.9109 0.0405445C7.35971 0.436703 3.37398 3.11768 1.34403 7.13453C0.824955 8.16638 0.546881 8.90341 0.250267 10.0827C0.0278075 10.9671 0.00926916 11.2067 0 12.9387C0 14.422 0.0370767 14.9932 0.166845 15.6104C0.722995 18.1809 1.90018 20.3183 3.79109 22.1977C5.32977 23.7271 6.88699 24.7036 8.78717 25.3301C10.2146 25.8 10.984 25.929 12.5597 25.9842C14.1818 26.0487 15.2848 25.9198 16.6845 25.5144C21.0688 24.2522 24.6004 20.6315 25.7127 16.2554C26.0278 15.0208 26.2781 15.1406 23.5251 15.1682L21.1522 15.1959L20.9947 15.6565C20.0307 18.4757 17.4446 19.338 14.4599 19.8079C14.1262 19.8539 12.8193 19.4393 10.8913 19.4393L9.26916 17.2743L6.81283 13.0216L9.918 7.69282L10.8913 6.03448L14.738 4.87735L15.5258 5.14452C17.5373 5.81707 19.0389 6.94105 20.1141 8.59939C20.5497 9.26272 21.0132 10.2761 21.1337 10.8105L21.1986 11.0961H23.5993H26L25.9444 10.7921C25.0731 6.00133 21.6342 2.07661 17.0089 0.61175C15.461 0.123463 13.4866 -0.0976486 11.9109 0.0405445Z" fill="#B5243D"/>
<rect x="4" y="4" width="18" height="18" rx="9" fill="white"/>
</svg>
