<svg width="42" height="42" viewBox="0 0 42 42" fill="none" xmlns="http://www.w3.org/2000/svg">
<path d="M21.6424 38.8721V24.1275H20.302V38.8721L17.487 35.1189L16.4149 35.9233L20.9722 42L25.5295 35.9233L24.4574 35.1189L21.6424 38.8721Z" fill="#B5243D"/>
<path d="M21.6424 22.7871V21.379C23.1697 21.0674 24.3232 19.7142 24.3232 18.0956C24.3232 16.248 22.8198 14.7446 20.9722 14.7446C19.8638 14.7446 18.9615 13.8424 18.9615 12.734C18.9615 11.6256 19.8638 10.7233 20.9722 10.7233C22.0806 10.7233 22.9828 11.6256 22.9828 12.734H24.3232C24.3232 11.116 23.1697 9.76221 21.6424 9.45067V8.04251H20.302V9.45067C18.7747 9.76221 17.6211 11.1154 17.6211 12.734C17.6211 14.5816 19.1245 16.085 20.9722 16.085C22.0806 16.085 22.9828 16.9873 22.9828 18.0956C22.9828 19.204 22.0806 20.1063 20.9722 20.1063C19.8638 20.1063 18.9615 19.204 18.9615 18.0956H17.6211C17.6211 19.7136 18.7747 21.0674 20.302 21.379V22.7871H21.6424Z" fill="#B5243D"/>
<path d="M20.302 2.68083H21.6424V4.02125H20.302V2.68083Z" fill="#B5243D"/>
<path d="M11.4937 6.88437L12.4418 5.93665L13.3895 6.88437L12.4418 7.83209L11.4937 6.88437Z" fill="#B5243D"/>
<path d="M8.23819 14.7446H9.57861V16.085H8.23819V14.7446Z" fill="#B5243D"/>
<path d="M11.494 23.9449L12.4418 22.9972L13.3895 23.9449L12.4418 24.893L11.494 23.9449Z" fill="#B5243D"/>
<path d="M28.5546 23.9453L29.5023 22.9972L30.4503 23.9453L29.5023 24.893L28.5546 23.9453Z" fill="#B5243D"/>
<path d="M32.3658 14.7446H33.7062V16.085H32.3658V14.7446Z" fill="#B5243D"/>
<path d="M28.5546 6.8847L29.5023 5.93665L30.45 6.8847L29.5023 7.83242L28.5546 6.8847Z" fill="#B5243D"/>
<path d="M18.8415 25.2366L19.1245 23.9266C15.1468 23.0679 12.2595 19.4884 12.2595 15.4148C12.2595 10.6108 16.1682 6.70209 20.9722 6.70209C25.7762 6.70209 29.6849 10.6108 29.6849 15.4148C29.6849 19.4884 26.7976 23.0679 22.8199 23.9266L23.1029 25.2366C27.6929 24.246 31.0253 20.1151 31.0253 15.4148C31.0253 9.87151 26.5155 5.36167 20.9722 5.36167C15.4289 5.36167 10.9191 9.87151 10.9191 15.4148C10.9191 20.1151 14.2515 24.246 18.8415 25.2366Z" fill="#B5243D"/>
<path d="M20.9722 0C12.4725 0 5.55737 6.91513 5.55737 15.4148C5.55737 23.0915 11.2869 29.6561 18.886 30.6856L19.0659 29.3573C12.1289 28.4168 6.89779 22.4232 6.89779 15.4148C6.89779 7.65374 13.2111 1.34042 20.9722 1.34042C28.7332 1.34042 35.0466 7.65374 35.0466 15.4148C35.0466 22.4232 29.8155 28.4168 22.8791 29.3573L23.0591 30.6856C30.6575 29.6561 36.387 23.0915 36.387 15.4148C36.387 6.91513 29.4719 0 20.9722 0Z" fill="#B5243D"/>
</svg>
