<svg width="1321" height="453" viewBox="0 0 1321 453" fill="none" xmlns="http://www.w3.org/2000/svg">
<path d="M1085.28 0.703312C1009.13 7.57512 942.449 54.0797 908.487 123.757C899.802 141.655 895.15 154.44 890.187 174.896C886.465 190.237 886.155 194.392 886 224.437C886 250.166 886.62 260.074 888.791 270.781C898.096 315.368 917.791 352.444 949.428 385.045C975.171 411.573 1001.22 428.513 1033.02 439.38C1056.9 447.53 1069.77 449.768 1096.13 450.727C1123.27 451.845 1141.73 449.608 1165.14 442.576C1238.5 420.682 1297.58 357.877 1316.19 281.968C1321.47 260.553 1325.65 262.631 1279.59 263.11L1239.89 263.59L1237.26 271.58C1221.13 320.482 1177.09 358.517 1127.15 366.667C1121.57 367.466 1090.86 368.265 1058.6 368.265H999.984V225.875V83.6444L1066.36 84.1238L1132.58 84.6033L1145.76 89.2377C1179.41 100.904 1204.53 120.401 1222.52 149.166C1229.81 160.673 1237.57 178.252 1239.58 187.521L1240.67 192.475H1280.83H1321L1320.07 187.201C1305.49 104.1 1247.96 36.0212 1170.57 10.6115C1144.67 2.1416 1111.64 -1.69383 1085.28 0.703312Z" fill="#B5243D"/>
<path d="M0 227.5V453H509.077H1018L999.575 442.924L981.306 432.849L499.942 433.489L18.5795 434.288V227.66V21.1915L499.788 21.0316H980.841L998.646 11.5957L1016.45 2.15992H508.303L0 1.99999V227.5Z" fill="#B5243D"/>
<path d="M73.6351 99.4044C64.777 103.412 64 107.9 64 151.5C64 181.796 64.4662 191.253 66.3311 195.741C70.2162 205.359 73.6351 206 121.811 206C177.757 206 179.466 205.199 178.689 179.551L178.223 166.888L168.899 164.804C154.912 161.919 155.689 161.438 155.689 173.941V185.162H122.277H88.8649V150.699V116.235L121.966 116.556L154.912 117.037L155.378 127.135C155.689 134.99 156.311 137.234 158.02 136.432C159.108 136.112 164.392 135.15 169.52 134.509L179 133.387V122.006C179 108.381 176.98 103.572 169.676 99.8853C164.858 97.3206 159.108 97 121.5 97C87.9324 97.1603 77.6757 97.6412 73.6351 99.4044Z" fill="#B5243D"/>
<path d="M229 151.5V206H281H333V195.581V185.162H293.418H253.836V141.081V97H241.418H229V151.5Z" fill="#B5243D"/>
<path d="M376.253 97.9899C370.08 100.061 366.994 102.45 365.142 107.07C362.364 113.92 362.209 187.994 365.142 194.843C369 204.401 369.154 204.401 425.639 204.879C472.555 205.198 477.802 205.039 482.74 202.49C491.691 197.711 492 195.959 492 151.036C492 106.114 491.691 104.203 482.74 99.7422C477.956 97.1934 472.092 96.8748 427.954 97.0341C400.792 97.0341 377.488 97.512 376.253 97.9899ZM468.542 150.558L468.851 184.489H427.954H387.056V150.24V115.991L427.645 116.309L468.079 116.787L468.542 150.558Z" fill="#B5243D"/>
<path d="M545 143.112C545 195.743 545.468 198.764 555.286 202.898C559.961 204.965 568.532 205.283 607.494 204.806L654.091 204.329L658.143 200.195C664.065 193.994 664.844 187.156 665 139.455V97H652.532H640.065V140.727V184.453H605H569.935V140.727V97H557.468H545V143.112Z" fill="#B5243D"/>
<path d="M719 151.5V206H758.22C801.316 206 811.547 204.557 823.328 197.344C832.164 192.054 840.536 180.834 843.791 170.094C846.736 159.996 846.736 141.562 843.791 131.143C840.846 121.204 831.079 109.343 821.468 104.374C809.532 98.1221 800.23 97 758.53 97H719V151.5ZM798.215 117.838C813.252 122.166 820.538 132.906 820.538 150.699C820.538 165.766 816.042 174.422 805.036 180.193C797.75 184.2 795.735 184.36 769.847 184.841L742.253 185.482V151.981C742.253 133.547 742.718 117.838 743.338 117.357C744.888 115.594 792.014 116.075 798.215 117.838Z" fill="#B5243D"/>
<path d="M1056 225.5V302H1088.65C1106.53 302 1124.88 301.205 1129.38 300.251C1151.46 295.479 1170.9 279.893 1181.31 258.422C1186.91 246.494 1187.38 244.744 1187.84 228.999C1188.31 214.844 1187.84 210.391 1185.04 201.802C1178.2 180.968 1164.99 165.7 1144.93 155.998L1132.96 150.113L1094.56 149.636L1056 149V225.5Z" fill="#B5243D"/>
<path d="M61.2125 264.76C60.4547 265.408 60 284.854 60 308.028V350L94.5562 349.352C121.383 348.866 130.173 348.217 134.266 346.273C148.664 339.304 157 325.368 157 307.542C157 292.633 154.727 285.665 147.3 277.724C137.145 266.704 131.083 265.246 94.1016 264.273C76.5203 263.787 61.8187 263.949 61.2125 264.76ZM127.597 284.206C135.478 290.364 137.752 295.388 137.752 305.597C137.752 317.589 134.114 325.044 125.93 329.419C121.08 331.85 115.775 332.66 99.8609 333.146L79.7031 333.795V306.732V279.831L101.528 280.317C120.777 280.803 123.959 281.127 127.597 284.206Z" fill="#B5243D"/>
<path d="M195 307V350H203.5H212V307V264H203.5H195V307Z" fill="#B5243D"/>
<path d="M233.031 264.98C233.341 265.629 244.04 285.099 256.754 308.139L279.701 350L286.678 349.513L293.501 349.026L315.673 306.841L338 264.656L330.092 264.169C325.596 263.844 321.255 264.007 320.169 264.493C319.084 264.818 313.192 275.04 307.3 286.884C301.253 298.728 294.276 312.358 291.795 317.063L287.299 325.662L270.863 295.159L254.583 264.656L243.419 264.169C237.373 263.844 232.566 264.331 233.031 264.98Z" fill="#B5243D"/>
<path d="M362.077 264.778C361.462 265.429 361 284.945 361 308.04V350H371H381L380.692 307.226L380.231 264.616L371.769 264.128C367 263.802 362.692 264.128 362.077 264.778Z" fill="#B5243D"/>
<path d="M434.731 265.365C424.91 267.319 423.069 271.227 423.069 289.79C423.069 314.216 421.534 313.239 460.971 314.216L492.888 315.03V323.986V332.943H464.5H436.112L435.652 328.383C435.191 324.964 434.424 323.986 432.583 324.638C431.202 324.964 427.672 325.778 425.064 326.429C420.614 327.406 420 328.057 420 332.943C420 340.922 422.916 346.458 428.133 348.412C434.117 350.529 495.19 350.529 500.714 348.412C507.926 345.481 508.847 342.55 509 323.824C509 306.888 508.386 304.609 502.402 299.235C502.248 299.072 487.978 298.584 470.638 298.095L439.181 297.118L438.721 288.488L438.26 280.02H465.114H492.121V284.742V289.302L500.253 287.348L508.233 285.394L507.926 279.043C507.312 271.064 503.476 266.993 495.036 265.202C486.75 263.573 443.017 263.573 434.731 265.365Z" fill="#B5243D"/>
<path d="M550 307V350H559H568V307V264H559H550V307Z" fill="#B5243D"/>
<path d="M619.792 265.01C608.465 267.457 608 269.415 608 306.119C608 341.517 608.776 345.596 616.223 348.369C619.016 349.347 636.084 350 657.961 350C699.389 350 704.664 349.021 706.836 340.702C708.388 334.829 708.388 280.508 706.836 274.635C704.354 265.174 700.94 264.358 661.53 264.032C641.98 263.868 623.05 264.358 619.792 265.01ZM688.683 306.771V333.687H657.651H626.619V306.771V279.855H657.651H688.683V306.771Z" fill="#B5243D"/>
<path d="M749.095 265.296C748.469 265.782 748 285.217 748 308.215V350H756.605H765.21V320.685V291.371L775.848 300.927C781.637 306.271 796.656 319.39 809.173 330.241C830.294 348.542 832.64 350 838.585 350H845V306.919V264L836.865 264.486L828.573 264.972V293.638C828.573 318.742 828.26 321.981 826.226 320.362C824.974 319.228 809.798 306.271 792.432 291.209C765.053 267.725 760.203 264.162 755.51 264.162C752.537 264.162 749.565 264.648 749.095 265.296Z" fill="#B5243D"/>
</svg>
