<svg width="184" height="61" viewBox="0 0 184 61" fill="none" xmlns="http://www.w3.org/2000/svg">
<g clip-path="url(#clip0)">
<path d="M150.62 0.46542C140.099 1.37813 130.885 7.55486 126.192 16.8093C124.992 19.1866 124.349 20.8847 123.663 23.6016C123.149 25.6393 123.106 26.1912 123.085 30.1816C123.085 33.599 123.17 34.915 123.47 36.3372C124.756 42.2592 127.478 47.1836 131.849 51.5137C135.406 55.0372 139.006 57.2871 143.399 58.7305C146.699 59.813 148.477 60.1101 152.12 60.2375C155.87 60.3861 158.42 60.0889 161.656 59.155C171.792 56.247 179.956 47.9053 182.527 37.823C183.256 34.9787 183.834 35.2546 177.47 35.3183L171.984 35.382L171.62 36.4433C169.392 42.9384 163.306 47.9902 156.406 49.0727C155.635 49.1788 151.392 49.2849 146.935 49.2849H138.835V30.3727V11.4816L148.006 11.5453L157.156 11.609L158.977 12.2246C163.627 13.774 167.099 16.3636 169.584 20.1843C170.592 21.7125 171.663 24.0474 171.942 25.2785L172.092 25.9365H177.642H183.192L183.063 25.236C181.049 14.1986 173.099 5.15633 162.406 1.78142C158.827 0.656453 154.263 0.147032 150.62 0.46542Z" fill="#B5243D"/>
<path d="M10.5209 13.5186C9.29943 14.0493 9.19229 14.6436 9.19229 20.417C9.19229 24.4287 9.25658 25.681 9.51372 26.2754C10.0494 27.5489 10.5209 27.6338 17.1637 27.6338C24.8779 27.6338 25.1137 27.5277 25.0065 24.1316L24.9422 22.4547L23.6565 22.1788C21.728 21.7967 21.8351 21.733 21.8351 23.3886V24.8745H17.228H12.6208V20.3109V15.7473L17.1851 15.7898L21.728 15.8535L21.7922 17.1907C21.8351 18.2308 21.9208 18.5279 22.1565 18.4218C22.3065 18.3793 23.0351 18.252 23.7422 18.1671L25.0494 18.0185V16.5115C25.0494 14.7073 24.7708 14.0705 23.7637 13.5823C23.0994 13.2427 22.3065 13.2002 17.1208 13.2002C12.4923 13.2215 11.078 13.2851 10.5209 13.5186Z" fill="#B5243D"/>
<path d="M32.1208 20.417V27.6338H39.2993H46.4779V26.2541V24.8745H41.0136H35.5493V19.0373V13.2002H33.8351H32.1208V20.417Z" fill="#B5243D"/>
<path d="M52.4779 13.3488C51.6207 13.6248 51.1922 13.9431 50.935 14.5587C50.5493 15.4714 50.5279 25.3414 50.935 26.2541C51.4707 27.5277 51.4921 27.5277 59.335 27.5914C65.8492 27.6338 66.5778 27.6126 67.2635 27.273C68.5063 26.6362 68.5492 26.4027 68.5492 20.417C68.5492 14.4313 68.5063 14.1766 67.2635 13.5823C66.5992 13.2427 65.7849 13.2002 59.6564 13.2215C55.885 13.2215 52.6493 13.2851 52.4779 13.3488ZM65.2921 20.3534L65.3349 24.8745H59.6564H53.9778V20.3109V15.7473L59.6135 15.7898L65.2278 15.8535L65.2921 20.3534Z" fill="#B5243D"/>
<path d="M75.8349 19.3557C75.8349 26.3815 75.8992 26.7848 77.2492 27.3367C77.892 27.6126 79.0706 27.655 84.4277 27.5914L90.8348 27.5277L91.392 26.9758C92.2063 26.148 92.3134 25.2353 92.3348 18.8675V13.2002H90.6205H88.9063V19.0373V24.8745H84.0849H79.2635V19.0373V13.2002H77.5492H75.8349V19.3557Z" fill="#B5243D"/>
<path d="M99.8348 20.417V27.6338H105.256C111.213 27.6338 112.628 27.4428 114.256 26.4876C115.478 25.7872 116.635 24.3014 117.085 22.8792C117.492 21.542 117.492 19.101 117.085 17.7213C116.678 16.4053 115.328 14.8346 113.999 14.1766C112.349 13.3488 111.063 13.2002 105.299 13.2002H99.8348V20.417ZM110.785 15.9596C112.863 16.5327 113.87 17.9548 113.87 20.3109C113.87 22.3061 113.249 23.4523 111.728 24.2165C110.72 24.7471 110.442 24.7683 106.863 24.832L103.049 24.9169V20.4807C103.049 18.0397 103.113 15.9596 103.199 15.8959C103.413 15.6624 109.928 15.7261 110.785 15.9596Z" fill="#B5243D"/>
<path d="M146.549 30.372V40.5816H151.049C153.513 40.5816 156.042 40.4755 156.663 40.3481C159.706 39.7113 162.384 37.6312 163.82 34.7657C164.592 33.1738 164.656 32.9403 164.72 30.8389C164.784 28.9498 164.72 28.3555 164.334 27.2093C163.392 24.4287 161.57 22.391 158.806 21.0963L157.156 20.3109L151.863 20.2472L146.549 20.1623V30.372Z" fill="#B5243D"/>
<path d="M8.72087 35.6148C8.61372 35.6997 8.54944 38.2468 8.54944 41.2821V46.7796L13.4351 46.6947C17.228 46.631 18.4708 46.5461 19.0494 46.2914C21.0851 45.3787 22.2637 43.5532 22.2637 41.2184C22.2637 39.2656 21.9422 38.3529 20.8922 37.3128C19.4565 35.8695 18.5994 35.6784 13.3708 35.5511C10.8851 35.4874 8.80658 35.5086 8.72087 35.6148ZM18.1065 38.1619C19.2208 38.9684 19.5423 39.6264 19.5423 40.9637C19.5423 42.5344 19.028 43.5108 17.8708 44.0839C17.1851 44.4023 16.4351 44.5084 14.1851 44.5721L11.3351 44.657V41.1123V37.5888L14.4208 37.6524C17.1423 37.7161 17.5923 37.7586 18.1065 38.1619Z" fill="#B5243D"/>
<path d="M27.1922 41.1123V46.7371H28.4779H29.7637V41.1123V35.4874H28.4779H27.1922V41.1123Z" fill="#B5243D"/>
<path d="M32.8279 35.636C32.8708 35.7209 34.3493 38.268 36.1065 41.2821L39.2779 46.7584L40.2422 46.6947L41.185 46.631L44.2493 41.1123L47.335 35.5935L46.2421 35.5299C45.6207 35.4874 45.0207 35.5086 44.8707 35.5723C44.7207 35.6148 43.9064 36.952 43.0922 38.5015C42.2564 40.051 41.2922 41.834 40.9493 42.4495L40.3279 43.5745L38.0565 39.584L35.8065 35.5935L34.2636 35.5299C33.4279 35.4874 32.7636 35.5511 32.8279 35.636Z" fill="#B5243D"/>
<path d="M50.485 35.6148C50.3993 35.6997 50.335 38.2468 50.335 41.2609V46.7371H51.7278H53.1207L53.0778 41.1547L53.0135 35.5935L51.835 35.5299C51.1707 35.4874 50.5707 35.5299 50.485 35.6148Z" fill="#B5243D"/>
<path d="M60.5349 35.6997C59.1635 35.9544 58.9064 36.4638 58.9064 38.8835C58.9064 42.0674 58.6921 41.9401 64.1992 42.0674L68.6563 42.1735V43.341V44.5084H64.6921H60.7278L60.6635 43.9141C60.5992 43.4683 60.4921 43.341 60.235 43.4259C60.0421 43.4683 59.5492 43.5745 59.185 43.6594C58.5635 43.7867 58.4778 43.8716 58.4778 44.5084C58.4778 45.5485 58.885 46.2701 59.6135 46.5249C60.4492 46.8008 68.9778 46.8008 69.7492 46.5249C70.7563 46.1428 70.8849 45.7607 70.9063 43.3197C70.9063 41.1123 70.8206 40.8151 69.9849 40.1146C69.9635 40.0934 67.9706 40.0297 65.5492 39.9661L61.1564 39.8387L61.0921 38.7137L61.0278 37.61H64.7778H68.5492V38.2255V38.8199L69.6849 38.5651L70.7992 38.3104L70.7563 37.4826C70.6706 36.4426 70.1349 35.9119 68.9563 35.6784C67.7992 35.4662 61.6921 35.4662 60.5349 35.6997Z" fill="#B5243D"/>
<path d="M76.4777 41.1123V46.7371H77.7634H79.0491V41.1123V35.4874H77.7634H76.4777V41.1123Z" fill="#B5243D"/>
<path d="M86.2491 35.6784C84.6849 35.9968 84.6206 36.2515 84.6206 41.0274C84.6206 45.6334 84.7277 46.164 85.7563 46.5249C86.142 46.6522 88.4991 46.7371 91.5205 46.7371C97.2419 46.7371 97.9705 46.6098 98.2705 45.5272C98.4848 44.7631 98.4848 37.6949 98.2705 36.9308C97.9277 35.6997 97.4562 35.5935 92.0134 35.5511C89.3134 35.5299 86.6991 35.5935 86.2491 35.6784ZM95.7634 41.1123V44.6145H91.4777H87.192V41.1123V37.61H91.4777H95.7634V41.1123Z" fill="#B5243D"/>
<path d="M104.056 35.636C103.97 35.6997 103.906 38.2468 103.906 41.2608V46.7371H105.085H106.263V42.8952V39.0534L107.72 40.3057C108.513 41.0061 110.57 42.7254 112.285 44.1476C115.178 46.5461 115.499 46.7371 116.313 46.7371H117.192V41.091V35.4662L116.078 35.5299L114.942 35.5935V39.3505C114.942 42.6405 114.899 43.065 114.62 42.8528C114.449 42.7042 112.37 41.0061 109.992 39.0321C106.242 35.9544 105.578 35.4874 104.935 35.4874C104.528 35.4874 104.12 35.5511 104.056 35.636Z" fill="#B5243D"/>
</g>
<defs>
<clipPath id="clip0">
<rect width="182.785" height="60.2815" fill="white" transform="translate(0.406616 0.252441)"/>
</clipPath>
</defs>
</svg>
