<svg width="42" height="38" viewBox="0 0 42 38" fill="none" xmlns="http://www.w3.org/2000/svg">
<path d="M14.913 7.72443C15.203 7.72443 15.438 7.47528 15.438 7.16779V6.381C15.438 6.07351 15.203 5.82436 14.913 5.82436C14.623 5.82436 14.388 6.07351 14.388 6.381V7.16786C14.388 7.47528 14.6231 7.72443 14.913 7.72443Z" fill="#B5243D"/>
<path d="M21.0491 10.0932L21.5739 9.53676C21.7789 9.3193 21.7789 8.96691 21.5739 8.74952C21.3688 8.53221 21.0364 8.53221 20.8314 8.74952L20.3066 9.30594C20.1016 9.5234 20.1016 9.87579 20.3066 10.0932C20.5117 10.3106 20.844 10.3105 21.0491 10.0932Z" fill="#B5243D"/>
<path d="M8.25219 22.874C8.45736 23.0914 8.78965 23.0913 8.99468 22.874L9.51947 22.3176C9.7245 22.1001 9.7245 21.7477 9.51947 21.5304C9.31437 21.3131 8.98201 21.3131 8.77698 21.5304L8.25219 22.0868C8.04716 22.3042 8.04716 22.6566 8.25219 22.874Z" fill="#B5243D"/>
<path d="M6.76044 16.3684C7.05045 16.3684 7.28544 16.1193 7.28544 15.8118C7.28544 15.5043 7.05045 15.2551 6.76044 15.2551H6.01823C5.72822 15.2551 5.49323 15.5043 5.49323 15.8118C5.49323 16.1193 5.72822 16.3684 6.01823 16.3684H6.76044Z" fill="#B5243D"/>
<path d="M8.77701 10.0932C8.98218 10.3106 9.31447 10.3105 9.5195 10.0932C9.72453 9.87577 9.72453 9.52338 9.5195 9.30599L8.99471 8.74957C8.78961 8.53226 8.45725 8.53226 8.25222 8.74957C8.04719 8.96703 8.04719 9.31942 8.25222 9.53681L8.77701 10.0932Z" fill="#B5243D"/>
<path d="M14.388 16.0408C14.388 16.5604 14.9976 16.7925 15.3122 16.4023L17.2094 14.0474C17.3977 13.8137 17.3716 13.4623 17.1512 13.2626C16.9308 13.0631 16.5993 13.0907 16.411 13.3244L15.4381 14.532V10.7729C15.4381 10.4655 15.2031 10.2163 14.9131 10.2163C14.6231 10.2163 14.3881 10.4655 14.3881 10.7729V16.0408H14.388Z" fill="#B5243D"/>
<path d="M35.3694 26.3085L34.0033 25.0379C33.9506 24.9889 33.9144 24.9245 33.8988 24.8519L33.4305 22.6764C33.4149 22.6038 33.4212 22.5293 33.4487 22.4608L34.1595 20.6876C34.3581 20.192 34.2847 19.6226 33.9682 19.2017L32.6006 17.3834C32.2839 16.9624 31.7769 16.7599 31.2769 16.8552L29.7722 17.1413C29.8069 16.6988 29.8261 16.2539 29.8261 15.8117C29.8261 11.7457 28.3731 7.88213 25.7347 4.9327C25.5352 4.70967 25.2029 4.70032 24.9925 4.91192C24.7821 5.12351 24.7733 5.47583 24.9729 5.69885C27.4254 8.44055 28.7761 12.0321 28.7761 15.8118C28.7761 16.1691 28.7623 16.5282 28.7378 16.8862L27.3899 16.1979C27.3266 16.1656 27.2756 16.1141 27.2422 16.0485L26.4071 14.411C26.09 11.4566 24.7704 8.72971 22.682 6.72195C20.551 4.67323 17.792 3.54489 14.9131 3.54489C8.53358 3.54489 3.34346 9.04781 3.34346 15.8118C3.34346 17.1748 3.55346 18.5149 3.96765 19.7947C4.04234 20.0257 4.24611 20.1708 4.46422 20.1708C4.52071 20.1708 4.57818 20.1611 4.6346 20.1406C4.90886 20.0408 5.05495 19.7243 4.9608 19.4335C4.58434 18.2701 4.39352 17.0516 4.39352 15.8118C4.39352 9.66167 9.11262 4.65816 14.9132 4.65816C17.5308 4.65816 20.0393 5.68394 21.9767 7.54659C23.6499 9.1552 24.7805 11.2708 25.223 13.588C25.1342 13.5839 25.489 13.5872 22.9696 13.5858C22.4617 13.5858 21.9961 13.8801 21.7545 14.3538L20.8902 16.0486C20.8568 16.1141 20.8058 16.1656 20.7426 16.198L18.8464 17.1661C18.7831 17.1985 18.7131 17.2083 18.6441 17.1955L16.8556 16.8554C16.3562 16.7604 15.8485 16.9626 15.5316 17.3837L14.1643 19.2017C13.8475 19.6227 13.7742 20.1922 13.973 20.6878L14.6837 22.4608C14.7112 22.5294 14.7174 22.604 14.7019 22.6765L14.2336 24.852C14.2179 24.9246 14.1818 24.9889 14.129 25.038L12.763 26.3085C12.6512 26.4124 12.5586 26.533 12.4853 26.6644C9.67499 25.9609 7.25469 24.0566 5.79765 21.3824C5.65254 21.1161 5.33145 21.0252 5.08043 21.1789C4.82941 21.3326 4.74345 21.6732 4.88849 21.9394C6.50625 24.9087 9.20481 27.0152 12.3348 27.7704L12.8153 30.0025C12.8426 30.1291 12.8854 30.2493 12.941 30.361C6.22772 29.3427 1.05013 23.2068 1.05013 15.8118C1.04999 7.70698 7.2689 1.11327 14.913 1.11327C18.053 1.11327 21.0142 2.19864 23.4764 4.25204C23.7042 4.44211 24.0343 4.40033 24.2136 4.15868C24.3928 3.91702 24.3534 3.56708 24.1255 3.37708C21.4765 1.16775 18.2908 0 14.913 0C6.68993 0 0 7.09312 0 15.8118C0 24.5305 6.68993 31.6236 14.9131 31.6236C15.122 31.6236 15.3372 31.6177 15.5533 31.608C15.6162 31.6291 15.6712 31.6683 15.7126 31.7233L17.0247 33.4678C17.0686 33.526 17.0934 33.596 17.0966 33.6703L17.1819 35.5948C17.2057 36.1327 17.5047 36.612 17.9623 36.8457L19.9383 37.8548C20.3958 38.0882 20.9359 38.0373 21.3474 37.7218L22.8197 36.5924C22.8765 36.5488 22.9436 36.5258 23.0137 36.5258H25.1183C25.1884 36.5258 25.2556 36.5489 25.3125 36.5924L26.7847 37.7218C27.0248 37.9059 27.3084 38 27.5942 38C27.7981 38 28.0031 37.9521 28.1936 37.8547L30.1696 36.8458C30.6272 36.6121 30.9263 36.1328 30.9501 35.5949L31.0352 33.6704C31.0386 33.596 31.0634 33.526 31.107 33.4679L31.2786 33.2399C31.4595 32.9995 31.4223 32.6493 31.1957 32.4576C30.969 32.2658 30.6387 32.3052 30.4579 32.5455L30.2862 32.7737C30.1038 33.0162 30.0001 33.3082 29.9864 33.6182L29.9012 35.5426C29.8955 35.6717 29.8237 35.7867 29.714 35.8428L27.738 36.8518C27.6282 36.9077 27.4988 36.8955 27.4 36.8199L25.9278 35.6906C25.6908 35.5087 25.4108 35.4125 25.1182 35.4125H23.0136C22.7209 35.4125 22.4409 35.5087 22.2039 35.6905L20.7317 36.8199C20.633 36.8956 20.5034 36.9078 20.3938 36.8518L18.4177 35.8428C18.308 35.7867 18.2362 35.6718 18.2306 35.5427L18.1453 33.6183C18.1316 33.3084 18.0279 33.0164 17.8454 32.7736L16.5333 31.0291C16.0919 30.4421 15.6313 30.5428 14.0729 30.0149C13.9555 29.9803 13.8657 29.8805 13.8386 29.7546L13.3505 27.4875C13.3234 27.3615 13.3636 27.2304 13.455 27.1453L14.8211 25.8747C15.041 25.6701 15.1917 25.4021 15.2568 25.0997L15.7251 22.9242C15.7903 22.6219 15.7643 22.3111 15.6497 22.0254L14.939 20.2522C14.8913 20.1333 14.9089 19.9969 14.9849 19.8958L16.3523 18.0777C16.4283 17.9768 16.5498 17.9285 16.6698 17.951L18.4583 18.2911C18.7462 18.3459 19.0379 18.3038 19.3016 18.169L21.1979 17.2008C21.4616 17.0662 21.6745 16.8507 21.8136 16.5779L22.6779 14.8832C22.7358 14.7696 22.8475 14.699 22.9693 14.699H25.1625C25.2843 14.699 25.3961 14.7696 25.454 14.8832L26.3183 16.5778C26.4574 16.8508 26.6703 17.0662 26.9341 17.2008C28.6664 18.01 28.959 18.427 29.6735 18.291L31.4622 17.9509C31.5827 17.9282 31.7037 17.9767 31.7796 18.0776L33.1471 19.8958C33.2231 19.9967 33.2406 20.1333 33.193 20.2522L32.4822 22.0253C32.3677 22.3108 32.3416 22.6216 32.4068 22.9241L32.875 25.0996C32.9401 25.402 33.0908 25.6701 33.3108 25.8747L34.6768 27.1452C34.7684 27.2304 34.8085 27.3615 34.7814 27.4874L34.2932 29.7546C34.2661 29.8805 34.1765 29.9802 34.0591 30.0149L32.3083 30.5311C32.1808 30.5688 32.0581 30.6265 31.9438 30.7026C31.6983 30.8662 31.6244 31.2098 31.7786 31.4701C31.933 31.7305 32.2571 31.8088 32.5025 31.6453C32.5308 31.6264 32.5602 31.6125 32.5898 31.6036L34.3405 31.0874C34.8298 30.943 35.204 30.5272 35.3169 30.0023L35.805 27.7352C35.9182 27.2104 35.7512 26.6637 35.3694 26.3085Z" fill="#B5243D"/>
<path d="M24.0661 31.2624C26.7576 31.2624 28.9473 28.9408 28.9473 26.0871C28.9473 23.2335 26.7576 20.9118 24.0661 20.9118C21.3751 20.9118 19.1856 23.2328 19.185 26.0858V26.0865V26.0867V26.0872C19.185 28.9407 21.3747 31.2624 24.0661 31.2624ZM23.5411 22.0641V23.3154H22.9251C22.6351 23.3154 22.4001 23.5646 22.4001 23.872C22.4001 24.1795 22.6351 24.4287 22.9251 24.4287H24.0661C24.3561 24.4287 24.5911 24.1795 24.5911 23.872V22.0641C26.2842 22.3114 27.6273 23.7353 27.8604 25.5305H25.6408V25.1266C25.6408 24.8191 25.4058 24.57 25.1158 24.57C24.8258 24.57 24.5908 24.8191 24.5908 25.1266V26.0871C24.5908 26.3946 24.8258 26.6437 25.1158 26.6437H27.8604C27.6273 28.4389 26.2843 29.8629 24.5911 30.1101V29.0231H24.9757C25.2658 29.0231 25.5007 28.774 25.5007 28.4665C25.5007 28.159 25.2658 27.9098 24.9757 27.9098H24.0661C23.7761 27.9098 23.5411 28.159 23.5411 28.4665V30.1101C21.8482 29.8629 20.5053 28.4393 20.2719 26.6444L21.9564 26.6464H21.957C22.2467 26.6464 22.4816 26.3976 22.482 26.0904C22.4823 25.783 22.2475 25.5335 21.9576 25.5331L20.2717 25.5311C20.5047 23.7356 21.8478 22.3114 23.5411 22.0641Z" fill="#B5243D"/>
<path d="M41.858 11.9621L33.6283 2.75674C33.4387 2.54463 33.1313 2.54463 32.9417 2.75674L24.7122 11.9621C24.5226 12.1742 24.5226 12.5181 24.7122 12.7302L26.9046 15.1829C26.9957 15.2848 27.119 15.3421 27.2479 15.3421C27.3766 15.3421 27.5002 15.2848 27.5913 15.1829L31.12 11.2362V28.4763C31.12 28.7762 31.3375 29.0195 31.6056 29.0195H34.9646C35.2327 29.0195 35.4502 28.7762 35.4502 28.4763V11.2364L38.9785 15.1832C39.1606 15.3869 39.483 15.3869 39.6651 15.1832L41.8577 12.7305C41.9488 12.6286 42 12.4904 42 12.3464C42.0002 12.2025 41.949 12.064 41.858 11.9621Z" fill="#B5243D"/>
</svg>
