<svg width="44" height="55" viewBox="0 0 44 55" fill="none" xmlns="http://www.w3.org/2000/svg">
<path d="M28.745 35.7097C29.7676 33.9879 31.2712 33.1058 33.265 33.0823C35.2589 33.0587 36.2652 32.0355 36.2978 30.022C36.3259 28.0179 37.192 26.5031 38.901 25.4775C40.6147 24.4472 40.9859 23.0618 40.01 21.307C39.0388 19.5569 39.0388 17.8069 40.01 16.0521C40.9859 14.302 40.6171 12.9189 38.901 11.8887C37.192 10.856 36.3235 9.34354 36.2978 7.33003C36.2652 5.32593 35.2589 4.30271 33.265 4.27919C31.2712 4.25097 29.7676 3.37358 28.745 1.65175C27.7224 -0.0747867 26.3473 -0.448791 24.6103 0.534441C22.8732 1.51297 21.1315 1.51297 19.3945 0.534441C17.6552 -0.446439 16.28 -0.0747867 15.2574 1.65175C14.2371 3.37594 12.7312 4.25332 10.7397 4.27919C8.75056 4.30271 7.73963 5.32593 7.71161 7.33003C7.67893 9.34354 6.81275 10.8537 5.10374 11.8887C3.39006 12.9189 3.01417 14.2997 3.99475 16.0521C4.97066 17.8069 4.97066 19.5569 3.99475 21.307C3.01417 23.0618 3.38773 24.4496 5.10374 25.4775C6.81275 26.5031 7.68126 28.0179 7.71161 30.022C7.73963 32.0332 8.75056 33.0587 10.7397 33.0823C12.7336 33.1058 14.2371 33.9879 15.2597 35.7097C16.2823 37.4362 17.6575 37.8102 19.3945 36.8223C21.1315 35.8532 22.8732 35.8532 24.6103 36.8223C26.3473 37.8079 27.7248 37.4362 28.745 35.7097ZM22.0071 29.6715C15.9788 29.6715 11.0946 24.7507 11.0946 18.6772C11.0946 12.6084 15.9788 7.68757 22.0071 7.68757C28.0306 7.68757 32.9148 12.6084 32.9148 18.6772C32.9148 24.7507 28.0306 29.6715 22.0071 29.6715Z" fill="#B5243D"/>
<path d="M10.5646 34.6936C8.46801 34.6936 8.18784 33.7104 8.18784 33.7104L0 49.9243L6.56521 49.181L10.1957 54.6852C10.1957 54.6852 17.7602 38.7841 17.7602 38.89C13.8402 38.7912 15.3998 34.7995 10.5646 34.6936Z" fill="#B5243D"/>
<path d="M35.7094 34.3454C29.7279 34.9758 30.9443 36.4718 29.5761 37.6338C28.0025 39.3251 26.0367 38.9934 26.0367 38.9934L35.2705 55.0004L37.5422 49.0727L44 49.9219L35.7094 34.3454Z" fill="#B5243D"/>
<path d="M24.2857 16.2521L22.0023 11.5947L19.7166 16.2521L14.606 17.0048L18.2995 20.6343L17.4286 25.7669L22.0023 23.3464L26.576 25.7669L25.7052 20.6343L29.3987 17.0048L24.2857 16.2521Z" fill="#B5243D"/>
</svg>
