<svg width="31" height="39" viewBox="0 0 31 39" fill="none" xmlns="http://www.w3.org/2000/svg">
<path d="M0 19.027V38.0591L6.90145 38.039C14.3894 38.0189 14.2121 38.0239 16.1761 37.7273C20.6907 37.0336 24.1414 35.2842 26.5874 32.449C29.6517 28.9 31.1156 24.1646 30.9929 18.2479C30.952 16.3125 30.7747 14.7591 30.4109 13.1606C28.7015 5.63019 23.2958 1.09085 14.9531 0.175945C13.5619 0.025135 12.3571 0 6.21949 0H0V19.027ZM14.1166 4.97669C18.463 5.26322 21.6818 6.78136 23.8459 9.56127C25.7963 12.0647 26.7374 15.4177 26.6238 19.4543C26.5374 22.6414 25.8827 25.175 24.5779 27.3718C22.6502 30.6142 19.7451 32.3686 15.2987 32.9819C14.503 33.0924 14.3485 33.0975 9.33378 33.1126L4.1827 33.1327V19.0622C4.1827 11.3257 4.19634 4.97669 4.21452 4.96161C4.25999 4.90631 13.2664 4.92139 14.1166 4.97669Z" fill="#B5243D"/>
<path d="M10.3658 18.9969V25.9391H12.4117C14.9667 25.9391 15.6123 25.8687 16.7171 25.4615C17.5945 25.1398 18.1901 24.7326 18.8266 24.0339C19.4631 23.3301 19.7859 22.7369 20.0678 21.7667C20.336 20.8418 20.3906 20.3843 20.3906 19.027C20.3906 17.7653 20.3587 17.4536 20.1632 16.6141C19.6222 14.3168 18.1174 12.8389 15.7851 12.3161C14.9213 12.125 14.6212 12.1049 12.4935 12.0798L10.3658 12.0547V18.9969Z" fill="#B5243D"/>
</svg>
