<svg width="61" height="62" viewBox="0 0 61 62" fill="none" xmlns="http://www.w3.org/2000/svg">
<rect width="61" height="62" rx="30.5" fill="#EFEFEF"/>
<path d="M22.4489 28.1877C22.1808 28.0353 21.805 27.8939 21.3001 27.7559C20.852 27.6335 20.5269 27.4944 20.3343 27.3428C20.172 27.2148 20.0964 27.0616 20.0964 26.8601C20.0964 26.6386 20.1825 26.4704 20.367 26.3311C20.567 26.1804 20.8489 26.1038 21.2047 26.1038C21.5707 26.1038 21.8494 26.1937 22.057 26.3784C22.2566 26.5561 22.3536 26.7879 22.3536 27.0869C22.3536 27.2174 22.4593 27.323 22.5897 27.323H23.0465C23.1769 27.323 23.2826 27.2174 23.2826 27.0869C23.2826 26.741 23.1924 26.4222 23.0142 26.1394C22.8364 25.8571 22.584 25.6349 22.2641 25.4785C21.952 25.3256 21.5953 25.2482 21.2045 25.2482C20.6286 25.2482 20.1449 25.3939 19.7668 25.6814C19.3688 25.9836 19.167 26.3834 19.167 26.8693C19.167 27.3703 19.3837 27.7796 19.8101 28.0849C20.0908 28.2876 20.5127 28.4662 21.1001 28.6311C21.7481 28.813 22.0334 28.9751 22.1588 29.0791C22.3121 29.2061 22.3865 29.3774 22.3865 29.6027C22.3865 29.8324 22.2968 30.0049 22.1042 30.145C21.8938 30.2983 21.6023 30.3761 21.2376 30.3761C20.8241 30.3761 20.4935 30.2825 20.2547 30.0976C20.0313 29.9247 19.9226 29.6929 19.9226 29.3892C19.9226 29.2588 19.817 29.1531 19.6865 29.1531H19.2341C19.1036 29.1531 18.998 29.2588 18.998 29.3892C18.998 29.7499 19.0939 30.0757 19.2829 30.3569C19.4713 30.6372 19.7476 30.8569 20.1047 31.0098C20.4488 31.157 20.8302 31.2314 21.2381 31.2314C21.8408 31.2314 22.338 31.0864 22.7161 30.8005C23.1142 30.4992 23.3162 30.0936 23.3162 29.5953C23.3162 29.2834 23.2406 29.0065 23.0912 28.7724C22.9455 28.5442 22.7295 28.3474 22.4489 28.1877Z" fill="#B5243D"/>
<path d="M27.8463 30.3025H25.1981V28.5866H27.4706C27.601 28.5866 27.7067 28.481 27.7067 28.3505V27.9676C27.7067 27.8372 27.601 27.7315 27.4706 27.7315H25.1981V26.1774H27.828C27.9584 26.1774 28.0641 26.0717 28.0641 25.9413V25.5584C28.0641 25.4279 27.9584 25.3223 27.828 25.3223H24.5088C24.3783 25.3223 24.2727 25.4279 24.2727 25.5584V30.9219C24.2727 31.0523 24.3783 31.158 24.5088 31.158H27.8465C27.9769 31.158 28.0826 31.0523 28.0826 30.9219V30.5386C28.0824 30.4081 27.9768 30.3025 27.8463 30.3025Z" fill="#B5243D"/>
<path d="M33.1613 26.5255C32.9706 26.1226 32.6954 25.8054 32.3425 25.5832C31.9897 25.3609 31.58 25.2484 31.1244 25.2484C30.6681 25.2484 30.2574 25.3632 29.903 25.5895C29.549 25.816 29.2723 26.1424 29.0808 26.5594C28.8941 26.9657 28.7996 27.4357 28.7996 27.9565V28.5088C28.7996 29.3248 29.0134 29.987 29.4349 30.4771C29.8655 30.9777 30.4363 31.2316 31.1317 31.2316C31.5905 31.2316 32.0023 31.1175 32.3561 30.8924C32.7106 30.6674 32.9863 30.3431 33.1755 29.9295C33.3595 29.5266 33.4529 29.056 33.4529 28.5308V27.886C33.4452 27.3759 33.3471 26.9179 33.1613 26.5255ZM31.1319 30.3652C30.6981 30.3652 30.3659 30.2119 30.1161 29.8967C29.8567 29.5692 29.7251 29.1095 29.7251 28.5311V27.9712C29.7251 27.3712 29.8568 26.9037 30.1167 26.5813C30.3677 26.2698 30.6974 26.1186 31.1245 26.1186C31.5612 26.1186 31.8938 26.2692 32.141 26.5786C32.3976 26.8997 32.5277 27.361 32.5277 27.9491V28.5164C32.5277 29.1149 32.3996 29.5823 32.147 29.9052C31.9046 30.2146 31.5725 30.3652 31.1319 30.3652Z" fill="#B5243D"/>
<path d="M46.8732 50.9991C46.7582 50.9991 46.6434 50.9553 46.5555 50.8676L36.9503 41.2622C36.7748 41.0868 36.7748 40.8024 36.9503 40.627C37.1259 40.4515 37.4101 40.4515 37.5855 40.627L47.1907 50.2324C47.3663 50.4078 47.3663 50.6922 47.1907 50.8676C47.103 50.9553 46.9882 50.9991 46.8732 50.9991Z" fill="#EBE7F2"/>
<path d="M39.6377 26.0486C39.5991 25.8035 39.37 25.6364 39.124 25.6746C38.8791 25.7133 38.7116 25.9433 38.7503 26.1884C39.3829 30.2015 38.048 34.3102 35.1793 37.1793C32.6982 39.6602 29.4405 40.9006 26.1813 40.9003C22.923 40.8999 19.6639 39.6595 17.1833 37.1793C12.2219 32.2178 12.2219 24.1448 17.1833 19.1832C20.6437 15.7228 25.859 14.5505 30.4703 16.1975C30.7042 16.2807 30.9608 16.1593 31.0444 15.9255C31.1277 15.6919 31.0059 15.4348 30.7723 15.3514C25.8358 13.5887 20.2525 14.8434 16.5479 18.548C11.2362 23.86 11.2362 32.5029 16.5479 37.8147C19.2037 40.4706 22.6925 41.7985 26.1811 41.7985C29.6698 41.7985 33.1586 40.4706 35.8144 37.8147C38.8859 34.7431 40.3152 30.3447 39.6377 26.0486Z" fill="#B5243D"/>
<path d="M48.5317 45.7123L42.2533 39.4339C41.6662 38.8466 40.8859 38.5234 40.0555 38.5234C39.9765 38.5234 39.8983 38.5289 39.8203 38.5349L38.2552 36.9698C38.0797 36.7942 37.7954 36.7942 37.62 36.9698C37.4445 37.1452 37.4445 37.4296 37.62 37.605L38.8029 38.7879C38.4552 38.9411 38.1345 39.157 37.8578 39.4337L37.4337 39.8577C37.1529 40.1386 36.9401 40.4611 36.7895 40.8047L35.605 39.6202C35.4295 39.4446 35.1452 39.4446 34.9698 39.6202C34.7943 39.7956 34.7943 40.08 34.9698 40.2554L36.5362 41.8217C36.4709 42.6937 36.7685 43.5882 37.4339 44.2536L43.7123 50.5321C44.3182 51.138 45.1143 51.4409 45.9101 51.4409C46.7059 51.4409 47.5019 51.138 48.1079 50.5321L48.5317 50.1082C49.119 49.5211 49.442 48.7406 49.442 47.9104C49.4422 47.0797 49.119 46.2992 48.5317 45.7123ZM47.8965 49.4726L47.4727 49.8965C46.6111 50.7581 45.209 50.7581 44.3474 49.8965L38.0689 43.6181C37.2075 42.7564 37.2075 41.3544 38.0689 40.4929L38.493 40.0689C38.9104 39.6515 39.4652 39.4216 40.0553 39.4216C40.6456 39.4216 41.2005 39.6515 41.6179 40.0689L47.8964 46.3475C48.3138 46.7647 48.5436 47.3198 48.5436 47.9101C48.5438 48.5003 48.314 49.0552 47.8965 49.4726Z" fill="#B5243D"/>
<path d="M26.1813 38.4165C23.4474 38.4165 20.8771 37.3518 18.944 35.4186C17.0108 33.4853 15.9461 30.9151 15.9461 28.1811C15.9461 25.4472 17.0108 22.8769 18.944 20.9437C21.7632 18.1244 26.0018 17.1977 29.7425 18.5826C29.9743 18.669 30.2335 18.5501 30.3199 18.3174C30.406 18.0847 30.2872 17.8263 30.0545 17.7402C25.9858 16.2335 21.3752 17.2417 18.3089 20.3085C16.206 22.4114 15.0479 25.2073 15.0479 28.1811C15.0479 31.1551 16.206 33.9509 18.3089 36.0538C20.4116 38.1567 23.2077 39.3147 26.1815 39.3147C29.1555 39.3147 31.9513 38.1567 34.0541 36.0538C36.3434 33.7647 37.521 30.5983 37.2853 27.3666C37.2673 27.119 37.0515 26.9328 36.8046 26.9512C36.5572 26.9691 36.3712 27.1844 36.3892 27.4318C36.6057 30.4031 35.5231 33.3141 33.4188 35.4186C31.4855 37.3518 28.9151 38.4165 26.1813 38.4165Z" fill="#B5243D"/>
<path d="M37.47 26.057H36.2614C35.8138 26.057 35.4228 25.7544 35.3105 25.321L35.0403 24.2725L34.1082 24.8227C33.7219 25.05 33.2314 24.9875 32.9149 24.6709L32.0605 23.8165C31.7437 23.5001 31.6812 23.0093 31.9085 22.6235L32.4589 21.6913L31.4109 21.4214C30.9772 21.3091 30.6744 20.9181 30.6744 20.4703V19.2618C30.6744 18.814 30.9772 18.423 31.4104 18.3109L32.4589 18.0408L31.9087 17.1089C31.681 16.7228 31.7437 16.2321 32.0607 15.9155L32.9151 15.061C33.231 14.7446 33.7214 14.6819 34.1077 14.909L35.0401 15.4594L35.3102 14.4115C35.4225 13.9775 35.8136 13.6749 36.2613 13.6749H37.4698C37.9174 13.6749 38.3086 13.9775 38.4207 14.4107L38.691 15.4592L39.6228 14.9092C40.009 14.6819 40.4997 14.7444 40.8161 15.0609L41.6707 15.9155C41.9875 16.2321 42.0499 16.7228 41.8228 17.1084L41.2724 18.0406L42.3203 18.3105H42.3209C42.7541 18.4228 43.0569 18.8138 43.0569 19.2614V20.47C43.0569 20.9178 42.7541 21.3088 42.3209 21.4209L41.2724 21.691L41.8226 22.623C42.0501 23.009 41.9875 23.4995 41.6707 23.8163L40.8161 24.6709C40.4997 24.9875 40.009 25.0499 39.6234 24.8229L38.6912 24.2725L38.4211 25.3205C38.3088 25.7544 37.9176 26.057 37.47 26.057ZM35.3263 23.1328C35.3846 23.1328 35.443 23.1441 35.4983 23.1669C35.6287 23.2208 35.7261 23.3331 35.7614 23.4699L36.1804 25.0962C36.1899 25.1327 36.2232 25.1584 36.2614 25.1584H37.47C37.5083 25.1584 37.5415 25.1325 37.5512 25.0955L37.9701 23.4697C38.0053 23.3329 38.1027 23.2208 38.2331 23.1667C38.3636 23.1127 38.512 23.1231 38.6335 23.1949L40.0796 24.0486C40.1121 24.0677 40.1536 24.0623 40.181 24.0353L41.0355 23.1808C41.0625 23.1536 41.0681 23.1119 41.0485 23.0791L40.1951 21.6331C40.1235 21.5115 40.113 21.3634 40.1671 21.2328C40.2212 21.1023 40.3333 21.0049 40.4701 20.9697L42.0962 20.5507C42.1327 20.5411 42.1586 20.5079 42.1586 20.4696V19.2611C42.1586 19.223 42.1327 19.1895 42.0959 19.1798L40.4701 18.7608C40.3333 18.7256 40.2212 18.6282 40.1671 18.4977C40.113 18.3673 40.1235 18.219 40.1951 18.0976L41.0487 16.6514C41.0679 16.6189 41.0625 16.5771 41.0355 16.5501L40.181 15.6955C40.154 15.6686 40.112 15.6632 40.0791 15.6826L38.6335 16.5359C38.5122 16.6078 38.364 16.6182 38.2331 16.5641C38.1027 16.5102 38.0053 16.3979 37.9701 16.2612L37.551 14.635C37.5415 14.5985 37.5083 14.5728 37.47 14.5728H36.2614C36.2232 14.5728 36.1899 14.5987 36.1802 14.6355L35.7614 16.2612C35.7261 16.3979 35.6287 16.5102 35.4983 16.5641C35.3675 16.6182 35.2194 16.6078 35.098 16.5359L33.6516 15.6822C33.6191 15.6632 33.5774 15.6684 33.5505 15.6953L32.6957 16.5499C32.6688 16.5771 32.6632 16.6187 32.6828 16.6516L33.5361 18.0976C33.6078 18.219 33.6182 18.3673 33.5641 18.4977C33.5101 18.6282 33.3979 18.7258 33.2612 18.7608L31.635 19.1798C31.5985 19.1894 31.5727 19.2226 31.5727 19.2609V20.4694C31.5727 20.5077 31.5985 20.541 31.6356 20.5507L33.2612 20.9695C33.3979 21.0047 33.5101 21.1021 33.5641 21.2326C33.6182 21.363 33.6078 21.5113 33.5361 21.6329L32.6826 23.0792C32.6634 23.1118 32.6688 23.1536 32.6955 23.1804L33.5503 24.0352C33.5771 24.0621 33.6188 24.0675 33.652 24.0481L35.0978 23.1948C35.168 23.1538 35.2471 23.1328 35.3263 23.1328Z" fill="#B5243D"/>
<path d="M36.8657 22.2255C35.5646 22.2255 34.506 21.167 34.506 19.8659C34.506 18.5648 35.5646 17.5062 36.8657 17.5062C38.1668 17.5062 39.2255 18.5648 39.2255 19.8659C39.2255 21.167 38.1668 22.2255 36.8657 22.2255ZM36.8657 18.4047C36.06 18.4047 35.4045 19.0602 35.4045 19.8659C35.4045 20.6716 36.0598 21.3271 36.8657 21.3271C37.6716 21.3271 38.3271 20.6716 38.3271 19.8659C38.3271 19.0602 37.6714 18.4047 36.8657 18.4047Z" fill="#B5243D"/>
</svg>
