<svg width="171" height="58" viewBox="0 0 171 58" fill="none" xmlns="http://www.w3.org/2000/svg">
<g clip-path="url(#clip0)">
<path d="M119.872 28.9618V57.9312L131.252 57.9005C143.6 57.8699 143.307 57.8776 146.546 57.4261C153.99 56.3702 159.68 53.7074 163.713 49.3918C168.766 43.9897 171.18 36.7818 170.978 27.7757C170.91 24.8298 170.618 22.4655 170.018 20.0322C167.199 8.56994 158.286 1.66045 144.529 0.26784C142.235 0.0382891 140.249 3.05176e-05 130.128 3.05176e-05H119.872V28.9618ZM143.15 7.57522C150.317 8.01136 155.624 10.3222 159.193 14.5536C162.409 18.3641 163.961 23.4678 163.773 29.6122C163.631 34.4633 162.551 38.3198 160.4 41.6636C157.221 46.599 152.431 49.2694 145.099 50.2029C143.787 50.3713 143.532 50.3789 135.263 50.4019L126.769 50.4325V29.0153C126.769 17.2393 126.792 7.57523 126.822 7.55227C126.897 7.4681 141.748 7.49106 143.15 7.57522Z" fill="#B5243D"/>
<path d="M136.965 28.9158V39.4829H140.338C144.552 39.4829 145.616 39.3757 147.438 38.7559C148.885 38.2662 149.867 37.6464 150.916 36.5829C151.966 35.5116 152.498 34.6087 152.963 33.1319C153.405 31.724 153.495 31.0277 153.495 28.9617C153.495 27.0412 153.443 26.5668 153.12 25.2889C152.228 21.7921 149.747 19.5425 145.901 18.7467C144.477 18.4559 143.982 18.4253 140.473 18.3871L136.965 18.3488V28.9158Z" fill="#B5243D"/>
<path d="M8.17139 18.2952V24.5696L12.8418 24.5467C16.935 24.5161 17.5948 24.5008 18.217 24.3784C20.7434 23.8886 22.2352 22.4884 22.9174 19.9633C23.0224 19.5807 23.0524 19.1828 23.0524 18.1728C23.0524 17.048 23.0299 16.7879 22.8799 16.2599C22.2202 13.9108 20.541 12.5412 17.8047 12.128C17.2049 12.0361 16.1629 12.0132 12.6169 12.0132H8.17139V18.2952ZM17.7297 14.4541C18.4194 14.6913 18.8017 14.9208 19.214 15.3723C19.7913 15.9997 20.0537 16.7037 20.1286 17.8132C20.2486 19.5042 19.6489 20.8815 18.5393 21.486C17.4973 22.0522 16.4627 22.19 13.3291 22.19H11.0201V18.2034V14.2245L14.1163 14.2475C17.1075 14.2781 17.2199 14.2857 17.7297 14.4541Z" fill="#B5243D"/>
<path d="M28.3376 18.2876V24.562H29.7994H31.2613V18.2876V12.0132H29.7994H28.3376V18.2876Z" fill="#B5243D"/>
<path d="M38.9155 12.128C38.0084 12.3346 37.566 12.809 37.3636 13.7731C37.2662 14.2475 37.2587 14.9897 37.2737 18.5478C37.3037 23.3683 37.3037 23.3377 37.9034 23.9269C38.5181 24.5314 38.3382 24.5161 44.2306 24.5467C47.7691 24.562 49.5983 24.5467 49.9281 24.4855C50.5953 24.3707 51.1651 24.0799 51.39 23.7356C51.7573 23.1617 51.8023 22.7562 51.8023 19.9174V17.2929H48.0914H44.3806V18.3641V19.4353H46.7045H49.0285V20.8127V22.19H44.568H40.1074V18.2111V14.2322H44.568H49.0285V14.9667C49.0285 15.6937 49.0285 15.7013 49.2009 15.6631C49.2909 15.6401 49.8532 15.5253 50.4529 15.4182C51.0526 15.3111 51.5999 15.2039 51.6749 15.181C51.7798 15.1427 51.8023 15.0433 51.8023 14.5459C51.8023 13.5129 51.5024 12.7631 50.9402 12.434C50.273 12.0285 50.0181 12.0132 44.493 12.0208C40.4373 12.0208 39.2978 12.0438 38.9155 12.128Z" fill="#B5243D"/>
<path d="M57.8746 18.2876V24.562H59.3365H60.7984V18.2876V12.0132H59.3365H57.8746V18.2876Z" fill="#B5243D"/>
<path d="M64.2468 13.1227V14.2322H67.0581H69.8694V19.3971V24.562H71.3312H72.7931V19.3971V14.2322H75.6044H78.4156V13.1227V12.0132H71.3312H64.2468V13.1227Z" fill="#B5243D"/>
<path d="M81.6767 17.8438C79.9075 21.0499 78.3407 23.8733 78.2132 24.1182L77.9658 24.562H79.4127L80.8521 24.5543L81.5642 23.1847L82.2689 21.8074H86.1522H90.028L90.7627 23.1847L91.4974 24.5543L93.1242 24.562H94.751L92.6144 20.7514C91.4374 18.6625 89.8481 15.839 89.0834 14.477L87.6966 12.0132H86.3022L84.9003 12.0208L81.6767 17.8438ZM87.5241 16.9945C88.2288 18.3412 88.8136 19.4813 88.8211 19.5195C88.8361 19.5578 87.779 19.5884 86.1822 19.5884C84.7129 19.5884 83.5134 19.5654 83.5134 19.5425C83.5134 19.4583 86.1597 14.5382 86.2047 14.5382C86.2272 14.5382 86.8269 15.6401 87.5241 16.9945Z" fill="#B5243D"/>
<path d="M98.7317 18.2876V24.562H104.767H110.801V23.376V22.19H106.191H101.58V17.1016V12.0132H100.156H98.7317V18.2876Z" fill="#B5243D"/>
<path d="M7.79657 37.8301V43.3087H11.4924C16.1479 43.3087 16.9276 43.2322 18.1045 42.6583C19.334 42.0538 20.2786 40.8295 20.6684 39.3298C20.8558 38.6259 20.8483 36.8047 20.6609 36.1161C20.1661 34.295 18.9742 33.1472 16.98 32.581C16.3953 32.4127 16.2604 32.4127 12.0922 32.3821L7.79657 32.3591V37.8301ZM16.0055 34.448C16.98 34.7464 17.6847 35.3509 18.0071 36.1773C18.157 36.5599 18.1795 36.7435 18.1795 37.723C18.1795 38.7177 18.157 38.8784 17.9996 39.2916C17.7522 39.919 17.1375 40.5464 16.5302 40.776C15.5707 41.1433 15.2333 41.1815 12.6919 41.2198L10.2705 41.258V37.8224C10.2705 35.9325 10.293 34.3562 10.3305 34.3256C10.3604 34.295 11.5674 34.2797 13.0068 34.3026C15.0459 34.3256 15.7131 34.3562 16.0055 34.448Z" fill="#B5243D"/>
<path d="M25.4139 37.8377V43.3087H26.6883H27.9628V37.8377V32.3668H26.6883H25.4139V37.8377Z" fill="#B5243D"/>
<path d="M30.8865 32.3974C30.8865 32.4203 32.2659 34.8765 33.9526 37.853L37.0188 43.2705L37.9034 43.2934L38.7955 43.3087L41.4568 38.3581C42.9187 35.634 44.2456 33.1778 44.3955 32.8871L44.6729 32.3668H43.421H42.169L40.1074 36.3074L38.0533 40.2404L37.9259 40.0338C37.8584 39.919 36.8838 38.1515 35.7593 36.0931L33.7202 32.3668H32.3034C31.5237 32.3668 30.8865 32.3821 30.8865 32.3974Z" fill="#B5243D"/>
<path d="M47.6041 37.8377V43.3087H48.8786H50.153V37.8377V32.3668H48.8786H47.6041V37.8377Z" fill="#B5243D"/>
<path d="M57.0425 32.4739C56.4502 32.6346 56.2103 32.8259 55.9629 33.3232L55.738 33.7823V35.5422V37.3021L55.9479 37.7383C56.1654 38.1821 56.4202 38.404 56.915 38.5876C57.0875 38.6488 58.4219 38.6871 61.0982 38.7177L65.034 38.7559L65.0565 39.9955L65.0715 41.2427H61.2856H57.4998V40.5923C57.4998 40.2327 57.4848 39.9419 57.4773 39.9419C57.4623 39.9419 56.9675 40.0414 56.3903 40.1715C55.8055 40.2939 55.3032 40.4011 55.2807 40.4011C55.2058 40.4011 55.3032 41.6865 55.4007 42.0156C55.5881 42.6966 56.0604 43.0868 56.8625 43.2245C57.1549 43.2781 58.8192 43.3087 61.3156 43.3087C65.8586 43.3087 66.121 43.2857 66.6533 42.796C67.1555 42.3293 67.208 42.0768 67.208 39.9419V38.0673L66.9831 37.6082C66.7807 37.2026 66.7057 37.1261 66.3084 36.9195L65.8586 36.69L61.8854 36.6517L57.9121 36.6135L57.8896 35.4427L57.8671 34.2797H61.3981H64.9215V34.8995C64.9215 35.3662 64.944 35.5116 65.019 35.481C65.064 35.4657 65.5737 35.3356 66.1435 35.2055C66.9606 35.0066 67.1705 34.9301 67.1705 34.8306C67.1705 34.7541 67.1331 34.448 67.0956 34.1496C66.9681 33.1625 66.6083 32.7034 65.7836 32.4815C65.4088 32.3821 64.7191 32.3668 61.3606 32.3744C58.4668 32.3744 57.2974 32.405 57.0425 32.4739Z" fill="#B5243D"/>
<path d="M72.4932 37.8377V43.3087H73.7301H74.9671V37.8377V32.3668H73.7301H72.4932V37.8377Z" fill="#B5243D"/>
<path d="M81.4368 32.5198C80.8746 32.7111 80.5747 33.0325 80.3873 33.6523C80.2673 34.0425 80.2523 34.4633 80.2523 37.7995C80.2523 41.7707 80.2673 42.0003 80.6346 42.5589C80.8596 42.9108 81.2419 43.1174 81.8716 43.2322C82.5913 43.3623 91.8347 43.2934 92.262 43.1633C92.7119 43.018 93.1467 42.6124 93.3041 42.1839C93.4315 41.8549 93.4465 41.4647 93.469 38.1285C93.4915 34.2338 93.469 33.8206 93.1617 33.2085C93.0267 32.933 92.8993 32.8182 92.5469 32.6346L92.1046 32.405L87.0069 32.3897C82.1115 32.3744 81.8791 32.3821 81.4368 32.5198ZM90.9951 37.7765L91.0101 41.2428H86.8869H82.7637V37.7612V34.2797L86.8719 34.295L90.9726 34.318L90.9951 37.7765Z" fill="#B5243D"/>
<path d="M98.7317 37.8377V43.3087H99.8637H100.996L100.973 39.5211L100.943 35.7412L101.356 36.1467C101.58 36.3763 103.537 38.0826 105.704 39.9343L109.639 43.3087H110.517H111.401V37.8377V32.3668H110.269H109.145L109.167 36.1544L109.19 39.9343L108.777 39.5211C108.552 39.2916 106.596 37.5929 104.429 35.7412L100.493 32.3744L99.6163 32.3668H98.7317V37.8377Z" fill="#B5243D"/>
</g>
<defs>
<clipPath id="clip0">
<rect width="171" height="58" fill="white"/>
</clipPath>
</defs>
</svg>
