<svg width="61" height="62" viewBox="0 0 61 62" fill="none" xmlns="http://www.w3.org/2000/svg">
<rect width="61" height="62" rx="30.5" fill="#EFEFEF"/>
<path d="M45.2656 21.9063H44.1719V21.3126H44.7188C45.1539 21.3126 45.5712 21.1249 45.8788 20.7908C46.1865 20.4568 46.3594 20.0037 46.3594 19.5313C46.3594 19.0589 46.1865 18.6058 45.8788 18.2718C45.5712 17.9377 45.1539 17.7501 44.7188 17.7501H44.1719V14.7813C44.1727 14.6883 44.1527 14.5966 44.1136 14.5138C44.0746 14.4311 44.0176 14.3599 43.9477 14.3063C43.8799 14.2506 43.8011 14.213 43.7175 14.1965C43.6339 14.18 43.5479 14.1851 43.4664 14.2113L36.4336 16.5626H32.6875C32.5425 16.5626 32.4034 16.6251 32.3008 16.7365C32.1982 16.8478 32.1406 16.9988 32.1406 17.1563V17.7501H31.0469C30.9018 17.7501 30.7627 17.8126 30.6602 17.924C30.5576 18.0353 30.5 18.1863 30.5 18.3438V20.7188C30.5 20.8763 30.5576 21.0273 30.6602 21.1386C30.7627 21.25 30.9018 21.3126 31.0469 21.3126H32.1406V21.9063H28.8594V16.5626C28.8594 16.4051 28.8018 16.2541 28.6992 16.1427C28.5966 16.0314 28.4575 15.9688 28.3125 15.9688H17.375C17.23 15.9688 17.0909 16.0314 16.9883 16.1427C16.8857 16.2541 16.8281 16.4051 16.8281 16.5626V21.9063H15.7344C15.2997 21.9077 14.8831 22.0958 14.5757 22.4296C14.2683 22.7633 14.095 23.2156 14.0938 23.6876V42.6875C14.095 43.1595 14.2683 43.6118 14.5757 43.9455C14.8831 44.2793 15.2997 44.4674 15.7344 44.4688H28.3125V46.25H25.0312C24.8862 46.25 24.7471 46.3126 24.6446 46.424C24.542 46.5353 24.4844 46.6863 24.4844 46.8438V49.2188C24.4844 49.3763 24.542 49.5273 24.6446 49.6386C24.7471 49.75 24.8862 49.8125 25.0312 49.8125H35.9688C36.1138 49.8125 36.2529 49.75 36.3554 49.6386C36.458 49.5273 36.5156 49.3763 36.5156 49.2188V46.8438C36.5156 46.6863 36.458 46.5353 36.3554 46.424C36.2529 46.3126 36.1138 46.25 35.9688 46.25H32.6875V44.4688H45.2656C45.7003 44.4674 46.1169 44.2793 46.4243 43.9455C46.7317 43.6118 46.905 43.1595 46.9062 42.6875V23.6876C46.905 23.2156 46.7317 22.7633 46.4243 22.4296C46.1169 22.0958 45.7003 21.9077 45.2656 21.9063ZM44.1719 18.9376H44.7188C44.8638 18.9376 45.0029 19.0001 45.1054 19.1115C45.208 19.2228 45.2656 19.3738 45.2656 19.5313C45.2656 19.6888 45.208 19.8398 45.1054 19.9511C45.0029 20.0625 44.8638 20.1251 44.7188 20.1251H44.1719V18.9376ZM37.0625 17.5957L43.0781 15.5829V23.4797L37.0625 21.4669V17.5957ZM33.2344 17.7501H35.9688V21.3126H33.2344V17.7501ZM34.793 22.5001L34.3992 25.4688H33.7812V22.5001H34.793ZM31.5938 20.1251V18.9376H32.1406V20.1251H31.5938ZM17.9219 17.1563H27.7656V25.4688H17.9219V17.1563ZM35.4219 47.4375V48.625H25.5781V47.4375H35.4219ZM29.4062 46.25V44.4688H31.5938V46.25H29.4062ZM45.8125 42.6875C45.8125 42.845 45.7549 42.996 45.6523 43.1074C45.5498 43.2187 45.4107 43.2813 45.2656 43.2813H15.7344C15.5893 43.2813 15.4502 43.2187 15.3477 43.1074C15.2451 42.996 15.1875 42.845 15.1875 42.6875V42.0938H45.8125V42.6875ZM45.8125 40.9063H15.1875V23.6876C15.1875 23.5301 15.2451 23.3791 15.3477 23.2677C15.4502 23.1564 15.5893 23.0938 15.7344 23.0938H16.8281V26.0626C16.8281 26.22 16.8857 26.371 16.9883 26.4824C17.0909 26.5937 17.23 26.6563 17.375 26.6563H28.3125C28.4575 26.6563 28.5966 26.5937 28.6992 26.4824C28.8018 26.371 28.8594 26.22 28.8594 26.0626V23.0938H32.6875V26.0626C32.6875 26.22 32.7451 26.371 32.8477 26.4824C32.9502 26.5937 33.0893 26.6563 33.2344 26.6563H34.875C35.0068 26.6563 35.1341 26.6046 35.2336 26.5108C35.333 26.417 35.398 26.2873 35.4164 26.1457L35.8977 22.5001H36.4336L43.4664 24.8513C43.5178 24.8683 43.5713 24.8763 43.625 24.8751C43.7694 24.8728 43.9073 24.8095 44.0094 24.6986C44.1115 24.5877 44.1698 24.4381 44.1719 24.2813V23.0938H45.2656C45.4107 23.0938 45.5498 23.1564 45.6523 23.2677C45.7549 23.3791 45.8125 23.5301 45.8125 23.6876V40.9063Z" fill="#B5243D"/>
<path d="M16.8281 39.7188H31.0469C31.1919 39.7188 31.331 39.6562 31.4336 39.5448C31.5361 39.4335 31.5938 39.2825 31.5938 39.125V29.625C31.5938 29.4675 31.5361 29.3165 31.4336 29.2052C31.331 29.0938 31.1919 29.0312 31.0469 29.0312H16.8281C16.6831 29.0312 16.544 29.0938 16.4414 29.2052C16.3389 29.3165 16.2812 29.4675 16.2812 29.625V39.125C16.2812 39.2825 16.3389 39.4335 16.4414 39.5448C16.544 39.6562 16.6831 39.7188 16.8281 39.7188ZM17.375 38.5312V30.6872L23.6509 34.8809C23.7371 34.9384 23.8363 34.9689 23.9375 34.9689C24.0387 34.9689 24.1379 34.9384 24.2241 34.8809L30.5 30.6872V38.5312H17.375ZM18.7602 30.2188H29.1148L23.9375 33.6779L18.7602 30.2188Z" fill="#B5243D"/>
<path d="M21.4623 23.5991C21.5416 23.6523 21.6321 23.6826 21.7253 23.6872C21.8184 23.6918 21.9111 23.6704 21.9945 23.6252L25.2757 21.8439C25.3667 21.7947 25.4433 21.7189 25.4968 21.625C25.5503 21.5311 25.5786 21.4229 25.5786 21.3125C25.5786 21.2021 25.5503 21.0939 25.4968 21.0001C25.4433 20.9062 25.3667 20.8304 25.2757 20.7811L21.9945 18.9999C21.9111 18.9546 21.8184 18.9333 21.7253 18.9379C21.6321 18.9424 21.5416 18.9728 21.4623 19.026C21.383 19.0793 21.3176 19.1537 21.2722 19.2421C21.2269 19.3305 21.2031 19.4301 21.2031 19.5313V23.0938C21.2031 23.195 21.2269 23.2946 21.2722 23.383C21.3176 23.4714 21.383 23.5458 21.4623 23.5991ZM22.2969 20.492L23.8084 21.3125L22.2969 22.1331V20.492Z" fill="#B5243D"/>
<g clip-path="url(#clip0)">
<path d="M44.5061 32.8483L43.8894 32.6982C43.7584 32.111 43.5368 31.5583 43.2283 31.05L43.5317 30.5284C43.6146 30.3861 43.5928 30.2038 43.479 30.0864L42.4868 29.0631C42.373 28.9457 42.1963 28.9233 42.0583 29.0087L41.5526 29.3216C41.0598 29.0035 40.524 28.7749 39.9546 28.6398L39.8091 28.0037C39.7717 27.8404 39.6304 27.725 39.4677 27.725H38.0645C37.9018 27.725 37.7605 27.8404 37.7231 28.0037L37.5776 28.6398C37.0082 28.7749 36.4724 29.0035 35.9796 29.3216L35.4739 29.0087C35.3359 28.9233 35.1592 28.9457 35.0454 29.0631L34.0532 30.0864C33.9394 30.2038 33.9176 30.3861 34.0005 30.5284L34.3039 31.05C33.9948 31.5593 33.7729 32.113 33.6421 32.7015L33.0683 32.8495C32.9122 32.8897 32.8026 33.0344 32.8026 33.2005V34.6477C32.8026 34.8138 32.9122 34.9585 33.0684 34.9987L33.6421 35.1467C33.7729 35.7353 33.9948 36.2889 34.3039 36.7981L34.0005 37.3197C33.9176 37.4621 33.9394 37.6443 34.0532 37.7617L35.0454 38.7851C35.1592 38.9025 35.3359 38.9249 35.4739 38.8395L35.9796 38.5266C36.4733 38.8454 37.0102 39.0742 37.5808 39.2091L37.7242 39.8009C37.7632 39.962 37.9035 40.075 38.0645 40.075H39.4677C39.6286 40.075 39.769 39.962 39.808 39.8009L39.9514 39.2091C40.522 39.0742 41.0588 38.8454 41.5526 38.5266L42.0583 38.8395C42.1963 38.925 42.373 38.9025 42.4868 38.7851L43.479 37.7617C43.5928 37.6443 43.6145 37.4621 43.5317 37.3197L43.2283 36.7981C43.5368 36.2899 43.7584 35.7373 43.8893 35.15L44.5061 34.9999C44.6644 34.9613 44.7763 34.8155 44.7763 34.6477V33.2005C44.7763 33.0327 44.6644 32.8869 44.5061 32.8483ZM44.0747 34.3614L43.5108 34.4986C43.3754 34.5316 43.2717 34.6439 43.2464 34.7849C43.1295 35.4367 42.8868 36.0422 42.5252 36.5846C42.4474 36.7013 42.4428 36.8542 42.5135 36.9757L42.7892 37.4498L42.1844 38.0736L41.7248 37.7892C41.607 37.7163 41.4588 37.721 41.3456 37.8013C40.8197 38.1743 40.2327 38.4246 39.6007 38.5452C39.4656 38.571 39.3576 38.6758 39.3242 38.8132L39.1938 39.3513H38.3384L38.208 38.8132C38.1747 38.6758 38.0666 38.571 37.9315 38.5452C37.2996 38.4246 36.7125 38.1743 36.1867 37.8013C36.0734 37.7211 35.9252 37.7163 35.8074 37.7892L35.3478 38.0737L34.743 37.4498L35.0188 36.9758C35.0894 36.8542 35.0848 36.7014 35.007 36.5846C34.6454 36.0423 34.4028 35.4368 34.2858 34.7849C34.2608 34.6456 34.1592 34.5341 34.0259 34.4998L33.5042 34.3652V33.4829L34.0259 33.3484C34.1592 33.314 34.2608 33.2026 34.2858 33.0633C34.4027 32.4115 34.6454 31.806 35.007 31.2636C35.0848 31.1468 35.0894 30.9939 35.0187 30.8724L34.743 30.3984L35.3478 29.7745L35.8075 30.059C35.9253 30.1319 36.0735 30.1271 36.1867 30.0468C36.7125 29.6739 37.2996 29.4236 37.9315 29.303C38.0683 29.2769 38.1771 29.1699 38.2091 29.0303L38.3422 28.4486H39.19L39.3231 29.0303C39.3551 29.1699 39.4639 29.2769 39.6007 29.303C40.2326 29.4236 40.8197 29.6739 41.3455 30.0468C41.4587 30.1271 41.6069 30.1319 41.7247 30.059L42.1844 29.7745L42.7892 30.3984L42.5134 30.8724C42.4428 30.994 42.4474 31.1468 42.5252 31.2636C42.8868 31.806 43.1294 32.4115 43.2464 33.0633C43.2717 33.2043 43.3754 33.3167 43.5108 33.3496L44.0747 33.4868V34.3614Z" fill="#B5243D"/>
<path d="M38.7661 29.9441C36.6384 29.9441 34.9074 31.7295 34.9074 33.9241C34.9074 36.1197 36.6394 37.9041 38.7661 37.9041C40.8939 37.9041 42.6248 36.1184 42.6248 33.9241C42.6248 31.7295 40.8938 29.9441 38.7661 29.9441ZM39.1169 35.9714V37.1602C39.0017 37.1734 38.8847 37.1804 38.7661 37.1804C38.6475 37.1804 38.5305 37.1734 38.4153 37.1602V35.9714C38.4153 35.8181 38.3216 35.6814 38.1814 35.6303C37.482 35.3753 37.0121 34.6897 37.0121 33.9241C37.0121 33.3454 37.2806 32.8124 37.7137 32.4765V33.9241C37.7137 34.1239 37.8708 34.2859 38.0645 34.2859H39.4677C39.6614 34.2859 39.8185 34.1239 39.8185 33.9241V32.4765C40.2516 32.8124 40.52 33.3454 40.52 33.9241C40.52 34.6897 40.0501 35.3753 39.3508 35.6303C39.2106 35.6814 39.1169 35.8181 39.1169 35.9714ZM39.8185 36.9942V36.213C40.667 35.7976 41.2216 34.9079 41.2216 33.924C41.2216 32.8524 40.5638 31.8925 39.5846 31.5356C39.3564 31.4524 39.1169 31.6274 39.1169 31.8767V33.5623H38.4153V31.8767C38.4153 31.6271 38.1755 31.4525 37.9476 31.5356C36.9684 31.8925 36.3105 32.8524 36.3105 33.9241C36.3105 34.908 36.8651 35.7977 37.7137 36.213V36.9942C36.4887 36.5462 35.609 35.3392 35.609 33.9241C35.609 32.1285 37.0252 30.6677 38.7661 30.6677C40.5069 30.6677 41.9232 32.1285 41.9232 33.9241C41.9232 35.3392 41.0434 36.5461 39.8185 36.9942Z" fill="#B5243D"/>
</g>
<defs>
<clipPath id="clip0">
<rect width="11.9737" height="12.35" fill="white" transform="translate(32.8026 27.725)"/>
</clipPath>
</defs>
</svg>
