<svg width="61" height="62" viewBox="0 0 61 62" fill="none" xmlns="http://www.w3.org/2000/svg">
<rect width="61" height="62" rx="30.5" fill="#EFEFEF"/>
<path d="M20.4355 31.5161H40.5645V32.7097H20.4355V31.5161Z" fill="#B5243D"/>
<path d="M32.3871 33.9032H40.5645V35.0967H32.3871V33.9032Z" fill="#B5243D"/>
<path d="M20.4355 33.9032H28.6129V35.0967H20.4355V33.9032Z" fill="#B5243D"/>
<path d="M32.3871 29.129H40.5645V30.3226H32.3871V29.129Z" fill="#B5243D"/>
<path d="M20.4355 29.129H28.6129V30.3226H20.4355V29.129Z" fill="#B5243D"/>
<path d="M20.4355 26.7419H40.5645V27.9355H20.4355V26.7419Z" fill="#B5243D"/>
<path d="M44.3387 29.8278V26.7419C44.3387 24.7671 42.646 23.1613 40.5645 23.1613V24.3548C41.9522 24.3548 43.0806 25.4254 43.0806 26.7419V29.8278C43.0806 30.8858 43.4486 31.8908 44.128 32.7096C43.4486 33.5285 43.0806 34.5335 43.0806 35.5915V38.6774C43.0806 39.9939 41.9522 41.0645 40.5645 41.0645V42.258C42.646 42.258 44.3387 40.6522 44.3387 38.6774V35.5915C44.3387 34.6623 44.7199 33.7887 45.4125 33.1316L45.8572 32.7096L45.4125 32.2877C44.7199 31.6306 44.3387 30.7576 44.3387 29.8278Z" fill="#B5243D"/>
<path d="M17.9193 38.6774V35.5915C17.9193 34.5335 17.5514 33.5285 16.872 32.7096C17.5514 31.8908 17.9193 30.8858 17.9193 29.8278V26.7419C17.9193 25.4254 19.0478 24.3548 20.4355 24.3548V23.1613C18.354 23.1613 16.6613 24.7671 16.6613 26.7419V29.8278C16.6613 30.757 16.2801 31.6306 15.5875 32.2877L15.1428 32.7096L15.5875 33.1316C16.2801 33.7887 16.6613 34.6617 16.6613 35.5915V38.6774C16.6613 40.6522 18.354 42.258 20.4355 42.258V41.0645C19.0478 41.0645 17.9193 39.9939 17.9193 38.6774Z" fill="#B5243D"/>
<path d="M30.5 42.2581C29.1123 42.2581 27.9839 43.3286 27.9839 44.6452C27.9839 45.9617 29.1123 47.0322 30.5 47.0322C31.8877 47.0322 33.0161 45.9617 33.0161 44.6452C33.0161 43.3286 31.8877 42.2581 30.5 42.2581ZM30.5 45.8387C29.8061 45.8387 29.2419 45.3034 29.2419 44.6452C29.2419 43.9869 29.8061 43.4516 30.5 43.4516C31.1938 43.4516 31.758 43.9869 31.758 44.6452C31.758 45.3034 31.1938 45.8387 30.5 45.8387Z" fill="#B5243D"/>
<path d="M30.5 39.871C29.6646 39.871 28.8362 40.0697 28.1052 40.445L28.7047 41.4949C29.2527 41.2137 29.8728 41.0645 30.5 41.0645C32.5815 41.0645 34.2742 42.6704 34.2742 44.6452C34.2742 45.2402 34.1169 45.8285 33.8205 46.3484L34.9272 46.9172C35.3228 46.2236 35.5323 45.4378 35.5323 44.6452C35.5323 42.0127 33.2747 39.871 30.5 39.871Z" fill="#B5243D"/>
<path d="M30.5 48.2258C28.4185 48.2258 26.7258 46.6199 26.7258 44.6452C26.7258 44.0501 26.8831 43.4618 27.1795 42.942L26.0728 42.3732C25.6772 43.0667 25.4677 43.8526 25.4677 44.6452C25.4677 47.2776 27.7253 49.4194 30.5 49.4194C31.3354 49.4194 32.1638 49.2206 32.8948 48.8453L32.2953 47.7954C31.7473 48.0766 31.1272 48.2258 30.5 48.2258Z" fill="#B5243D"/>
<path d="M50 17.7903C50 16.8034 49.1532 16 48.1129 16H12.8871C11.8468 16 11 16.8034 11 17.7903V45.2419H21.6935V46.3046L23.268 46.6785C23.4179 47.157 23.6197 47.6188 23.8712 48.0583L23.0352 49.3794L25.5086 51.726L26.9012 50.9329C27.3644 51.1721 27.8512 51.3635 28.3555 51.5052L28.7508 53H32.2492L32.6433 51.5063C33.1476 51.3641 33.6344 51.1727 34.0976 50.934L35.4902 51.7272L37.9636 49.3806L37.1276 48.0594C37.3797 47.62 37.5815 47.1581 37.7308 46.6797L39.3065 46.3046V45.2419H50V17.7903ZM12.8871 17.1935H48.1129C48.4594 17.1935 48.7419 17.4616 48.7419 17.7903V20.7742H12.2581V17.7903C12.2581 17.4616 12.5406 17.1935 12.8871 17.1935ZM38.0484 45.3728L36.6985 45.693L36.6091 46.0447C36.4565 46.6473 36.2046 47.222 35.8624 47.7526L35.6631 48.0612L36.3803 49.1944L35.2958 50.2233L34.1013 49.5429L33.776 49.732C33.2167 50.0566 32.611 50.2953 31.9758 50.4404L31.6051 50.5252L31.2669 51.8065H29.7331L29.3955 50.5258L29.0248 50.441C28.3896 50.2962 27.7839 50.0572 27.2246 49.7326L26.8993 49.5435L25.7049 50.2239L24.6203 49.195L25.3375 48.0618L25.1382 47.7532C24.796 47.2225 24.5445 46.6479 24.3915 46.0453L24.3021 45.6936L22.9516 45.3728V43.9176L24.3015 43.5973L24.3909 43.2456C24.5435 42.643 24.7954 42.0684 25.1376 41.5377L25.3369 41.2292L24.6197 40.0959L25.7042 39.067L26.8987 39.7474L27.224 39.5583C27.7833 39.2337 28.389 38.995 29.0242 38.8499L29.3949 38.7651L29.7331 37.4839H31.2669L31.6045 38.7645L31.9752 38.8493C32.6104 38.9942 33.2161 39.2331 33.7754 39.5577L34.1007 39.7468L35.2951 39.0664L36.3797 40.0953L35.6625 41.2286L35.8618 41.5372C36.204 42.0678 36.4555 42.6424 36.6085 43.245L36.6979 43.5967L38.0484 43.9176V45.3728ZM39.3065 44.0484V42.9857L37.732 42.6118C37.5821 42.1334 37.3803 41.6715 37.1288 41.2321L37.9648 39.9109L35.4914 37.5643L34.0988 38.3575C33.6356 38.1182 33.1488 37.9268 32.6445 37.7852L32.2492 36.2903H28.7508L28.3567 37.784C27.8524 37.9262 27.3656 38.1177 26.9024 38.3563L25.5098 37.5631L23.0364 39.9097L23.8724 41.2309C23.6203 41.6703 23.4185 42.1322 23.2692 42.6107L21.6935 42.9857V44.0484H12.2581V21.9677H48.7419V44.0484H39.3065Z" fill="#B5243D"/>
<path d="M13.5161 18.3871H14.7742V19.5806H13.5161V18.3871Z" fill="#B5243D"/>
<path d="M16.0323 18.3871H17.2903V19.5806H16.0323V18.3871Z" fill="#B5243D"/>
<path d="M18.5484 18.3871H19.8065V19.5806H18.5484V18.3871Z" fill="#B5243D"/>
</svg>
