<svg width="58" height="58" viewBox="0 0 58 58" fill="none" xmlns="http://www.w3.org/2000/svg">
<rect width="58" height="58" rx="29" fill="#F4F4F4"/>
<path d="M41.5781 21.2656H40.6094V20.7813H41.0938C41.4791 20.7813 41.8488 20.6282 42.1213 20.3557C42.3938 20.0831 42.5469 19.7135 42.5469 19.3281C42.5469 18.9427 42.3938 18.5731 42.1213 18.3006C41.8488 18.0281 41.4791 17.875 41.0938 17.875H40.6094V15.4531C40.6101 15.3773 40.5924 15.3024 40.5578 15.2349C40.5232 15.1674 40.4728 15.1094 40.4108 15.0656C40.3508 15.0202 40.2809 14.9895 40.2069 14.9761C40.1329 14.9626 40.0567 14.9667 39.9845 14.9881L33.7555 16.9063H30.4375C30.309 16.9063 30.1858 16.9573 30.095 17.0481C30.0042 17.139 29.9531 17.2622 29.9531 17.3906V17.875H28.9844C28.8559 17.875 28.7327 17.926 28.6419 18.0169C28.551 18.1077 28.5 18.2309 28.5 18.3594V20.2969C28.5 20.4254 28.551 20.5486 28.6419 20.6394C28.7327 20.7302 28.8559 20.7813 28.9844 20.7813H29.9531V21.2656H27.0469V16.9063C27.0469 16.7778 26.9958 16.6546 26.905 16.5638C26.8142 16.4729 26.691 16.4219 26.5625 16.4219H16.875C16.7465 16.4219 16.6233 16.4729 16.5325 16.5638C16.4417 16.6546 16.3906 16.7778 16.3906 16.9063V21.2656H15.4219C15.0368 21.2668 14.6679 21.4203 14.3956 21.6925C14.1234 21.9648 13.9699 22.3337 13.9688 22.7188V38.2188C13.9699 38.6038 14.1234 38.9727 14.3956 39.245C14.6679 39.5173 15.0368 39.6707 15.4219 39.6719H26.5625V41.125H23.6562C23.5278 41.125 23.4046 41.176 23.3137 41.2669C23.2229 41.3577 23.1719 41.4809 23.1719 41.6094V43.5469C23.1719 43.6754 23.2229 43.7986 23.3137 43.8894C23.4046 43.9802 23.5278 44.0313 23.6562 44.0313H33.3438C33.4722 44.0313 33.5954 43.9802 33.6863 43.8894C33.7771 43.7986 33.8281 43.6754 33.8281 43.5469V41.6094C33.8281 41.4809 33.7771 41.3577 33.6863 41.2669C33.5954 41.176 33.4722 41.125 33.3438 41.125H30.4375V39.6719H41.5781C41.9632 39.6707 42.3321 39.5173 42.6044 39.245C42.8766 38.9727 43.0301 38.6038 43.0312 38.2188V22.7188C43.0301 22.3337 42.8766 21.9648 42.6044 21.6925C42.3321 21.4203 41.9632 21.2668 41.5781 21.2656V21.2656ZM40.6094 18.8438H41.0938C41.2222 18.8438 41.3454 18.8948 41.4363 18.9856C41.5271 19.0765 41.5781 19.1997 41.5781 19.3281C41.5781 19.4566 41.5271 19.5798 41.4363 19.6706C41.3454 19.7615 41.2222 19.8125 41.0938 19.8125H40.6094V18.8438ZM34.3125 17.7491L39.6406 16.107V22.5492L34.3125 20.9072V17.7491ZM30.9219 17.875H33.3438V20.7813H30.9219V17.875ZM32.3023 21.75L31.9536 24.1719H31.4062V21.75H32.3023ZM29.4688 19.8125V18.8438H29.9531V19.8125H29.4688ZM17.3594 17.3906H26.0781V24.1719H17.3594V17.3906ZM32.8594 42.0938V43.0625H24.1406V42.0938H32.8594ZM27.5312 41.125V39.6719H29.4688V41.125H27.5312ZM42.0625 38.2188C42.0625 38.3472 42.0115 38.4704 41.9206 38.5613C41.8298 38.6521 41.7066 38.7031 41.5781 38.7031H15.4219C15.2934 38.7031 15.1702 38.6521 15.0794 38.5613C14.9885 38.4704 14.9375 38.3472 14.9375 38.2188V37.7344H42.0625V38.2188ZM42.0625 36.7656H14.9375V22.7188C14.9375 22.5903 14.9885 22.4671 15.0794 22.3763C15.1702 22.2854 15.2934 22.2344 15.4219 22.2344H16.3906V24.6563C16.3906 24.7847 16.4417 24.9079 16.5325 24.9988C16.6233 25.0896 16.7465 25.1406 16.875 25.1406H26.5625C26.691 25.1406 26.8142 25.0896 26.905 24.9988C26.9958 24.9079 27.0469 24.7847 27.0469 24.6563V22.2344H30.4375V24.6563C30.4375 24.7847 30.4885 24.9079 30.5794 24.9988C30.6702 25.0896 30.7934 25.1406 30.9219 25.1406H32.375C32.4917 25.1406 32.6045 25.0985 32.6926 25.0219C32.7807 24.9454 32.8382 24.8396 32.8545 24.7241L33.2808 21.75H33.7555L39.9845 23.6681C40.03 23.682 40.0774 23.6886 40.125 23.6875C40.2529 23.6856 40.375 23.634 40.4654 23.5436C40.5559 23.4531 40.6075 23.331 40.6094 23.2031V22.2344H41.5781C41.7066 22.2344 41.8298 22.2854 41.9206 22.3763C42.0115 22.4671 42.0625 22.5903 42.0625 22.7188V36.7656Z" fill="#B5243D"/>
<path d="M16.3906 35.7969H28.9844C29.1128 35.7969 29.236 35.7458 29.3269 35.655C29.4177 35.5642 29.4688 35.441 29.4688 35.3125V27.5625C29.4688 27.434 29.4177 27.3108 29.3269 27.22C29.236 27.1292 29.1128 27.0781 28.9844 27.0781H16.3906C16.2622 27.0781 16.139 27.1292 16.0481 27.22C15.9573 27.3108 15.9062 27.434 15.9062 27.5625V35.3125C15.9062 35.441 15.9573 35.5642 16.0481 35.655C16.139 35.7458 16.2622 35.7969 16.3906 35.7969ZM16.875 34.8281V28.429L22.4337 31.8502C22.51 31.8971 22.5979 31.922 22.6875 31.922C22.7771 31.922 22.865 31.8971 22.9413 31.8502L28.5 28.429V34.8281H16.875ZM18.1019 28.0469H27.2731L22.6875 30.8688L18.1019 28.0469Z" fill="#B5243D"/>
<path d="M30.9219 32.8906H31.8906V34.3437C31.8906 34.4722 31.9417 34.5954 32.0325 34.6863C32.1233 34.7771 32.2465 34.8281 32.375 34.8281H40.6094C40.7378 34.8281 40.861 34.7771 40.9519 34.6863C41.0427 34.5954 41.0938 34.4722 41.0938 34.3437V28.5312C41.0938 28.4028 41.0427 28.2796 40.9519 28.1887C40.861 28.0979 40.7378 28.0469 40.6094 28.0469H40.125V26.5937C40.125 26.4653 40.074 26.3421 39.9831 26.2512C39.8923 26.1604 39.7691 26.1094 39.6406 26.1094H30.9219C30.7934 26.1094 30.6702 26.1604 30.5794 26.2512C30.4885 26.3421 30.4375 26.4653 30.4375 26.5937V32.4062C30.4375 32.5347 30.4885 32.6579 30.5794 32.7488C30.6702 32.8396 30.7934 32.8906 30.9219 32.8906ZM40.125 33.8594H32.8594V29.0156H40.125V33.8594ZM31.4062 27.0781H39.1562V28.0469H32.375C32.2465 28.0469 32.1233 28.0979 32.0325 28.1887C31.9417 28.2796 31.8906 28.4028 31.8906 28.5312V31.9219H31.4062V27.0781Z" fill="#B5243D"/>
<path d="M33.8281 29.9844H34.7969V30.9531H33.8281V29.9844Z" fill="#B5243D"/>
<path d="M35.7656 29.9844H39.1562V30.9531H35.7656V29.9844Z" fill="#B5243D"/>
<path d="M33.8281 31.9219H35.7656V32.8906H33.8281V31.9219Z" fill="#B5243D"/>
<path d="M36.7344 31.9219H39.1562V32.8906H36.7344V31.9219Z" fill="#B5243D"/>
<path d="M20.4952 22.6466C20.5654 22.69 20.6456 22.7148 20.7281 22.7185C20.8106 22.7223 20.8927 22.7048 20.9665 22.6679L23.8728 21.2148C23.9534 21.1746 24.0212 21.1128 24.0686 21.0362C24.116 20.9596 24.1411 20.8714 24.1411 20.7813C24.1411 20.6912 24.116 20.603 24.0686 20.5264C24.0212 20.4498 23.9534 20.3879 23.8728 20.3478L20.9665 18.8947C20.8927 18.8577 20.8106 18.8403 20.7281 18.8441C20.6456 18.8478 20.5654 18.8726 20.4952 18.916C20.425 18.9594 20.367 19.0201 20.3268 19.0922C20.2867 19.1644 20.2656 19.2456 20.2656 19.3282V22.2344C20.2656 22.317 20.2867 22.3982 20.3268 22.4704C20.367 22.5425 20.425 22.6032 20.4952 22.6466V22.6466ZM21.2344 20.1119L22.5732 20.7813L21.2344 21.4507V20.1119Z" fill="#B5243D"/>
</svg>
