<svg width="61" height="62" viewBox="0 0 61 62" fill="none" xmlns="http://www.w3.org/2000/svg">
<rect width="61" height="62" rx="30.5" fill="#EFEFEF"/>
<g clip-path="url(#clip0)">
<path d="M44.6667 23.3209C44.6634 20.5241 42.2774 18.2573 39.3333 18.2542H37.3034C36.9583 14.667 33.792 11.9209 30 11.9209C26.208 11.9209 23.0417 14.667 22.6966 18.2542H20.6667C17.721 18.2542 15.3333 20.5225 15.3333 23.3209C15.3333 26.1193 17.721 28.3876 20.6667 28.3876H28V27.1209H20.6667C18.4577 27.1209 16.6667 25.4194 16.6667 23.3209C16.6667 21.2224 18.4577 19.5209 20.6667 19.5209H24V18.8876C24 15.7395 26.6862 13.1876 30 13.1876C33.3138 13.1876 36 15.7395 36 18.8876V19.5209H39.3333C41.5423 19.5209 43.3333 21.2224 43.3333 23.3209C43.3333 25.4194 41.5423 27.1209 39.3333 27.1209H32V28.3876H39.3333C42.2774 28.3845 44.6634 26.1177 44.6667 23.3209Z" fill="#B5243D"/>
<path d="M42 48.0209V37.2543C41.9987 36.2053 41.1042 35.3555 40 35.3543H38.6667V33.971C39.544 33.6778 40.0918 32.8478 39.9873 31.9699C39.8828 31.0919 39.1533 30.3989 38.2292 30.2997C37.305 30.2004 36.4313 30.7208 36.1227 31.5543H30.6667V23.5832L32.1953 25.0354L33.138 24.1398L30 21.1587L26.862 24.1398L27.8047 25.0354L29.3333 23.5832V31.5543H23.8773C23.5687 30.7208 22.695 30.2001 21.7708 30.2997C20.8467 30.3989 20.1172 31.0916 20.0127 31.9696C19.9082 32.8475 20.4561 33.6778 21.3333 33.9707V35.9876H17.3333C16.2292 35.9888 15.3346 36.8386 15.3333 37.8876V45.4876C15.3346 46.5366 16.2292 47.3864 17.3333 47.3876H21.3333V48.6543H19.3333V49.9209H24.6667V48.6543H22.6667V47.3876H26.6667C27.7708 47.3864 28.6654 46.5366 28.6667 45.4876V37.8876C28.6654 36.8386 27.7708 35.9888 26.6667 35.9876H22.6667V33.971C23.2315 33.7796 23.6758 33.3575 23.8773 32.8209H36.1227C36.3242 33.3575 36.7686 33.7796 37.3333 33.9707V35.3543H33.3333C32.2292 35.3555 31.3346 36.2053 31.3333 37.2543V48.0209C31.3346 49.0699 32.2292 49.9197 33.3333 49.9209H40C41.1042 49.9197 41.9987 49.0699 42 48.0209ZM27.3333 45.4876C27.333 45.8374 27.0348 46.1206 26.6667 46.1209H17.3333C16.9652 46.1206 16.667 45.8374 16.6667 45.4876V44.2209H27.3333V45.4876ZM26.6667 37.2543C27.0348 37.2546 27.333 37.5378 27.3333 37.8876V42.9543H16.6667V37.8876C16.667 37.5378 16.9652 37.2546 17.3333 37.2543H26.6667ZM22 32.8209C21.6318 32.8209 21.3333 32.5374 21.3333 32.1876C21.3333 31.8378 21.6318 31.5543 22 31.5543C22.3682 31.5543 22.6667 31.8378 22.6667 32.1876C22.6664 32.5374 22.3682 32.8206 22 32.8209ZM38 31.5543C38.3682 31.5543 38.6667 31.8378 38.6667 32.1876C38.6667 32.5374 38.3682 32.8209 38 32.8209C37.6318 32.8209 37.3333 32.5374 37.3333 32.1876C37.3337 31.8378 37.6318 31.5546 38 31.5543ZM32.6667 37.2543C32.667 36.9045 32.9652 36.6212 33.3333 36.6209H40C40.3682 36.6212 40.6664 36.9045 40.6667 37.2543V45.4876H32.6667V37.2543ZM32.6667 48.0209V46.7543H40.6667V48.0209C40.6664 48.3707 40.3682 48.654 40 48.6543H33.3333C32.9652 48.654 32.667 48.3707 32.6667 48.0209Z" fill="#B5243D"/>
</g>
<defs>
<clipPath id="clip0">
<rect width="40" height="38" fill="white" transform="translate(10 12)"/>
</clipPath>
</defs>
</svg>
