<svg width="61" height="62" viewBox="0 0 61 62" fill="none" xmlns="http://www.w3.org/2000/svg">
<rect width="61" height="62" rx="30.5" fill="#EFEFEF"/>
<g clip-path="url(#clip0)">
<path d="M52.512 36.8877L46.8012 30.8755C48.1809 28.9617 49.0423 26.6677 49.2632 24.2627C49.5337 21.311 48.8353 18.3288 47.2964 15.8651C47.1274 15.5948 46.7821 15.5197 46.5255 15.6976C46.2686 15.8755 46.1973 16.239 46.3663 16.5094C49.2786 21.1712 48.6677 27.4234 44.9139 31.3751C40.5295 35.9905 33.3961 35.9905 29.012 31.3751C24.6275 26.7596 24.6275 19.2495 29.012 14.6341C33.3961 10.0186 40.5297 10.0186 44.9124 14.6325L44.9429 14.6649C45.1597 14.8944 45.512 14.8959 45.73 14.6676C45.9483 14.4397 45.9494 14.0686 45.7329 13.8391L45.701 13.8052C40.8826 8.7329 33.0429 8.7329 28.2245 13.8052C28.0732 13.9645 27.9268 14.1269 27.785 14.2923H15.5566C15.2493 14.2923 15 14.5547 15 14.8782V17.4698C15 17.7935 15.2493 18.056 15.5566 18.056C15.8642 18.056 16.1133 17.7935 16.1133 17.4698V15.4645H26.8921C26.4668 16.0934 26.1009 16.7532 25.7945 17.4359H18.8594C18.5521 17.4359 18.3027 17.698 18.3027 18.0218C18.3027 18.3456 18.5521 18.6078 18.8594 18.6078H25.3338C25.174 19.0783 25.041 19.5565 24.9343 20.0402H18.8594C18.5521 20.0402 18.3027 20.3024 18.3027 20.6262C18.3027 20.9497 18.5521 21.2121 18.8594 21.2121H24.7284C24.6661 21.6873 24.6287 22.1655 24.6162 22.6443H18.8594C18.5521 22.6443 18.3027 22.9068 18.3027 23.2305C18.3027 23.554 18.5521 23.8165 18.8594 23.8165H24.6357C24.736 25.5188 25.1508 27.2039 25.8817 28.7655H24.9456C24.638 28.7655 24.3889 29.028 24.3889 29.3518V46.6979C24.3889 47.0217 24.638 47.2841 24.9456 47.2841H29.3987C29.7063 47.2841 29.9553 47.0217 29.9553 46.6979V33.7216C30.4566 34.085 30.9776 34.4055 31.5139 34.6822V46.6979C31.5139 47.0217 31.7633 47.2841 32.0706 47.2841H36.5237C36.8313 47.2841 37.0803 47.0217 37.0803 46.6979V36.007C37.5143 36.0024 37.9478 35.9747 38.3794 35.9228V44.974C38.3794 45.2978 38.6285 45.5602 38.9361 45.5602C39.2434 45.5602 39.4927 45.2978 39.4927 44.974V35.7342C41.2522 35.3497 42.9468 34.5593 44.4399 33.3627L50.1495 39.3737C50.4652 39.7057 50.8847 39.8888 51.3306 39.8888C51.7768 39.8888 52.1963 39.7057 52.5117 39.3737C53.1626 38.6889 53.1629 37.5738 52.512 36.8877ZM28.8421 46.112H25.5022V29.9377H26.505C26.9866 30.7424 27.5595 31.5035 28.2245 32.2039C28.4252 32.4151 28.6316 32.6168 28.8421 32.8103V46.112ZM32.6275 46.112V35.1864C33.7071 35.6103 34.832 35.8697 35.9673 35.9655V46.112H32.6275ZM51.7249 38.5448C51.6196 38.6556 51.4796 38.7167 51.3309 38.7167C51.1821 38.7167 51.0421 38.6556 50.9372 38.5448L45.298 32.6086C45.4346 32.4771 45.5691 32.3428 45.701 32.2039C45.8326 32.0654 45.9608 31.9241 46.0857 31.7797L51.7243 37.7163C51.9414 37.9449 51.9417 38.3169 51.7249 38.5448Z" fill="#B5243D"/>
<path d="M38.9361 46.9138C38.6288 46.9138 38.3795 47.1759 38.3795 47.4997V48.8281H16.1133V20.0085C16.1133 19.6848 15.8642 19.4226 15.5566 19.4226C15.2493 19.4226 15 19.6848 15 20.0085V49.4141C15 49.7379 15.2493 50 15.5566 50H38.9361C39.2437 50 39.4928 49.7379 39.4928 49.4141V47.4997C39.4928 47.1759 39.2437 46.9138 38.9361 46.9138Z" fill="#B5243D"/>
<path d="M17.4121 34.0387V46.6971C17.4121 47.0206 17.6614 47.283 17.9688 47.283H22.4222C22.7295 47.283 22.9788 47.0206 22.9788 46.6971V34.0387C22.9788 33.7152 22.7295 33.4528 22.4222 33.4528H17.9688C17.6614 33.4528 17.4121 33.7152 17.4121 34.0387ZM18.5254 34.6249H21.8655V46.1108H18.5254V34.6249Z" fill="#B5243D"/>
<path d="M23.0217 26.4206C23.3293 26.4206 23.5784 26.1581 23.5784 25.8344C23.5784 25.5109 23.3293 25.2484 23.0217 25.2484H18.8594C18.5521 25.2484 18.3027 25.5109 18.3027 25.8344C18.3027 26.1581 18.5521 26.4206 18.8594 26.4206H23.0217Z" fill="#B5243D"/>
<path d="M36.963 12.3429C34.254 12.3429 31.7097 13.4507 29.7991 15.4621C27.8885 17.4735 26.8362 20.152 26.8362 23.0039C26.8362 25.8558 27.8885 28.5343 29.7991 30.5457C31.7099 32.5571 34.254 33.6649 36.963 33.6649C39.6719 33.6649 42.216 32.5571 44.1268 30.5457C46.0374 28.5343 47.0895 25.8558 47.0895 23.0039C47.0895 20.152 46.0374 17.4735 44.1268 15.4621C42.216 13.4507 39.6719 12.3429 36.963 12.3429ZM43.3394 29.7169C41.639 31.507 39.3745 32.4927 36.963 32.4927C34.5511 32.4927 32.2869 31.507 30.5865 29.7169C28.8859 27.9267 27.9494 25.5427 27.9494 23.0039C27.9494 20.4648 28.8859 18.0808 30.5865 16.2906C32.3443 14.4401 34.6538 13.5145 36.963 13.5145C39.2721 13.5145 41.5816 14.4401 43.3394 16.2906C45.0397 18.0808 45.9762 20.4648 45.9762 23.0039C45.9762 25.5427 45.0397 27.9267 43.3394 29.7169Z" fill="#B5243D"/>
</g>
<defs>
<clipPath id="clip0">
<rect width="38" height="40" fill="white" transform="translate(15 10)"/>
</clipPath>
</defs>
</svg>
