<svg width="58" height="58" viewBox="0 0 58 58" fill="none" xmlns="http://www.w3.org/2000/svg">
<rect width="58" height="58" rx="29" fill="#F4F4F4"/>
<path d="M41.4 13C39.4146 13 37.8 14.5657 37.8 16.4909C37.8 17.0931 37.9578 17.6598 38.2356 18.1549L32.3382 23.8736C31.5252 23.2598 30.5076 22.8909 29.4 22.8909C28.2924 22.8909 27.2748 23.2598 26.4612 23.873L21.8598 19.4111C22.071 19.0649 22.2 18.6669 22.2 18.2364C22.2 16.9529 21.1236 15.9091 19.8 15.9091C18.4764 15.9091 17.4 16.9529 17.4 18.2364C17.4 19.5199 18.4764 20.5636 19.8 20.5636C20.244 20.5636 20.6544 20.4385 21.0114 20.2337L25.6128 24.6957C24.9804 25.4847 24.6 26.4714 24.6 27.5455C24.6 28.6195 24.9804 29.6063 25.6128 30.3946L18.0144 37.7633C17.3748 37.2007 16.5294 36.8545 15.6 36.8545C13.6146 36.8545 12 38.4202 12 40.3455C12 42.2707 13.6146 43.8364 15.6 43.8364C17.5854 43.8364 19.2 42.2707 19.2 40.3455C19.2 39.7433 19.0422 39.1766 18.7644 38.6815L26.4618 31.2173C27.1254 31.7177 27.9258 32.0528 28.8006 32.1593V38.0705C27.1008 38.3487 25.8006 39.7823 25.8006 41.5091C25.8006 43.4343 27.4152 45 29.4006 45C31.386 45 33.0006 43.4343 33.0006 41.5091C33.0006 39.7828 31.7004 38.3492 30.0006 38.0705V32.1593C30.8754 32.0528 31.6758 31.7177 32.3394 31.2173L36.9408 35.6793C36.729 36.026 36.6 36.424 36.6 36.8545C36.6 38.138 37.6764 39.1818 39 39.1818C40.3236 39.1818 41.4 38.138 41.4 36.8545C41.4 35.5711 40.3236 34.5273 39 34.5273C38.556 34.5273 38.1456 34.6524 37.7886 34.8572L33.1872 30.3952C33.8196 29.6063 34.2 28.6195 34.2 27.5455C34.2 26.4714 33.8196 25.4847 33.1872 24.6963L38.9862 19.073C39.6252 19.6356 40.4706 19.9818 41.4 19.9818C43.3854 19.9818 45 18.4161 45 16.4909C45 14.5657 43.3854 13 41.4 13ZM18.6 18.2364C18.6 17.5946 19.1382 17.0727 19.8 17.0727C20.4618 17.0727 21 17.5946 21 18.2364C21 18.8781 20.4618 19.4 19.8 19.4C19.1382 19.4 18.6 18.8781 18.6 18.2364ZM15.6 42.6727C14.2764 42.6727 13.2 41.6289 13.2 40.3455C13.2 39.062 14.2764 38.0182 15.6 38.0182C16.9236 38.0182 18 39.062 18 40.3455C18 41.6289 16.9236 42.6727 15.6 42.6727ZM31.8 41.5091C31.8 42.7926 30.7236 43.8364 29.4 43.8364C28.0764 43.8364 27 42.7926 27 41.5091C27 40.2256 28.0764 39.1818 29.4 39.1818C30.7236 39.1818 31.8 40.2256 31.8 41.5091ZM29.4 31.0364C27.4146 31.0364 25.8 29.4707 25.8 27.5455C25.8 25.6202 27.4146 24.0545 29.4 24.0545C31.3854 24.0545 33 25.6202 33 27.5455C33 29.4707 31.3854 31.0364 29.4 31.0364ZM40.2 36.8545C40.2 37.4963 39.6618 38.0182 39 38.0182C38.3382 38.0182 37.8 37.4963 37.8 36.8545C37.8 36.2128 38.3382 35.6909 39 35.6909C39.6618 35.6909 40.2 36.2128 40.2 36.8545ZM41.4 18.8182C40.0764 18.8182 39 17.7744 39 16.4909C39 15.2074 40.0764 14.1636 41.4 14.1636C42.7236 14.1636 43.8 15.2074 43.8 16.4909C43.8 17.7744 42.7236 18.8182 41.4 18.8182Z" fill="#B5243D"/>
</svg>
