<svg width="61" height="62" viewBox="0 0 61 62" fill="none" xmlns="http://www.w3.org/2000/svg">
<rect width="61" height="62" rx="30.5" fill="#EFEFEF"/>
<path d="M48.4167 27.6675H45.55V19.0012C45.55 18.4708 45.3235 17.9621 44.9203 17.587C44.5171 17.212 43.9702 17.0013 43.4 17.0013H39.7801C39.6022 14.8244 38.5467 12.7905 36.8251 11.3068C35.1035 9.8231 32.8429 8.99916 30.496 9C28.149 9.00084 25.8891 9.82641 24.1687 11.3114C22.4483 12.7963 21.3946 14.831 21.2184 17.0079C21.2063 17.0079 21.1955 17.0013 21.1826 17.0013H16.8833C16.3131 17.0013 15.7663 17.212 15.3631 17.587C14.9598 17.9621 14.7333 18.4708 14.7333 19.0012V27.6675H12.5833C12.0131 27.6675 11.4663 27.8782 11.0631 28.2533C10.6599 28.6283 10.4333 29.137 10.4333 29.6674V43.6669H9.71667C9.52659 43.6669 9.34431 43.7371 9.20991 43.8621C9.07551 43.9872 9 44.1567 9 44.3335V45.6668C9.00114 46.5505 9.37903 47.3977 10.0508 48.0226C10.7225 48.6474 11.6333 48.9989 12.5833 49H32.65C33.6 48.9989 34.5108 48.6474 35.1825 48.0226C35.8543 47.3977 36.2322 46.5505 36.2333 45.6668V44.3335C36.2333 44.1567 36.1578 43.9872 36.0234 43.8621C35.889 43.7371 35.7067 43.6669 35.5167 43.6669H34.8V29.6674C34.8 29.137 34.5735 28.6283 34.1703 28.2533C33.7671 27.8782 33.2202 27.6675 32.65 27.6675H16.1667V19.0012C16.1667 18.8244 16.2422 18.6548 16.3766 18.5298C16.511 18.4048 16.6933 18.3346 16.8833 18.3346H21.1833C21.1962 18.3346 21.207 18.3286 21.2192 18.3279C21.3953 20.5048 22.4491 22.5395 24.1694 24.0245C25.8898 25.5094 28.1497 26.335 30.4967 26.3358C32.8436 26.3367 35.1042 25.5127 36.8258 24.029C38.5474 22.5453 39.6029 20.5114 39.7808 18.3346H43.4C43.5901 18.3346 43.7724 18.4048 43.9068 18.5298C44.0412 18.6548 44.1167 18.8244 44.1167 19.0012V27.6675H41.25C40.3 27.6686 39.3892 28.0201 38.7175 28.645C38.0457 29.2698 37.6678 30.117 37.6667 31.0007V45.6668C37.6678 46.5505 38.0457 47.3977 38.7175 48.0226C39.3892 48.6474 40.3 48.9989 41.25 49H48.4167C49.3667 48.9989 50.2774 48.6474 50.9492 48.0226C51.621 47.3977 51.9989 46.5505 52 45.6668V31.0007C51.9989 30.117 51.621 29.2698 50.9492 28.645C50.2774 28.0201 49.3667 27.6686 48.4167 27.6675ZM34.8 45.6668C34.8 46.1972 34.5735 46.7059 34.1703 47.081C33.7671 47.456 33.2202 47.6667 32.65 47.6667H12.5833C12.0131 47.6667 11.4663 47.456 11.0631 47.081C10.6599 46.7059 10.4333 46.1972 10.4333 45.6668V45.0002H19.0333C19.0333 45.5306 19.2598 46.0393 19.6631 46.4143C20.0663 46.7894 20.6131 47.0001 21.1833 47.0001H24.05C24.6202 47.0001 25.1671 46.7894 25.5703 46.4143C25.9735 46.0393 26.2 45.5306 26.2 45.0002H34.8V45.6668ZM20.4667 45.0002H24.7667C24.7667 45.177 24.6912 45.3465 24.5568 45.4715C24.4224 45.5966 24.2401 45.6668 24.05 45.6668H21.1833C20.9933 45.6668 20.811 45.5966 20.6766 45.4715C20.5422 45.3465 20.4667 45.177 20.4667 45.0002ZM32.65 29.0008C32.8401 29.0008 33.0224 29.071 33.1568 29.196C33.2912 29.3211 33.3667 29.4906 33.3667 29.6674V43.6669H11.8667V29.6674C11.8667 29.4906 11.9422 29.3211 12.0766 29.196C12.211 29.071 12.3933 29.0008 12.5833 29.0008H32.65ZM30.5 25.001C28.9408 25.001 27.4167 24.5709 26.1203 23.7651C24.8238 22.9593 23.8134 21.8141 23.2168 20.4741C22.6201 19.1342 22.464 17.6598 22.7681 16.2373C23.0723 14.8148 23.8231 13.5082 24.9256 12.4827C26.0281 11.4571 27.4328 10.7587 28.962 10.4758C30.4913 10.1928 32.0763 10.338 33.5168 10.8931C34.9573 11.4481 36.1885 12.388 37.0548 13.5939C37.921 14.7998 38.3833 16.2176 38.3833 17.6679C38.3809 19.6121 37.5495 21.4759 36.0716 22.8506C34.5938 24.2253 32.59 24.9987 30.5 25.001ZM39.1 33.0006H50.5667V43.6669H39.1V33.0006ZM41.25 29.0008H48.4167C48.9869 29.0008 49.5337 29.2115 49.9369 29.5866C50.3401 29.9616 50.5667 30.4703 50.5667 31.0007V31.6674H39.1V31.0007C39.1 30.4703 39.3265 29.9616 39.7297 29.5866C40.1329 29.2115 40.6798 29.0008 41.25 29.0008ZM48.4167 47.6667H41.25C40.6798 47.6667 40.1329 47.456 39.7297 47.081C39.3265 46.7059 39.1 46.1972 39.1 45.6668V45.0002H50.5667V45.6668C50.5667 46.1972 50.3401 46.7059 49.9369 47.081C49.5337 47.456 48.9869 47.6667 48.4167 47.6667Z" fill="#B5243D"/>
<path d="M45.55 45.6667H44.1167C43.9266 45.6667 43.7443 45.737 43.6099 45.862C43.4755 45.987 43.4 46.1566 43.4 46.3334C43.4 46.5102 43.4755 46.6798 43.6099 46.8048C43.7443 46.9298 43.9266 47 44.1167 47H45.55C45.7401 47 45.9224 46.9298 46.0568 46.8048C46.1912 46.6798 46.2667 46.5102 46.2667 46.3334C46.2667 46.1566 46.1912 45.987 46.0568 45.862C45.9224 45.737 45.7401 45.6667 45.55 45.6667Z" fill="#B5243D"/>
<path d="M14.0167 42.3335H31.2167C31.4067 42.3335 31.589 42.2633 31.7234 42.1383C31.8578 42.0132 31.9333 41.8437 31.9333 41.6669V31.0006C31.9333 30.8238 31.8578 30.6543 31.7234 30.5292C31.589 30.4042 31.4067 30.334 31.2167 30.334H14.0167C13.8266 30.334 13.6443 30.4042 13.5099 30.5292C13.3755 30.6543 13.3 30.8238 13.3 31.0006V41.6669C13.3 41.8437 13.3755 42.0132 13.5099 42.1383C13.6443 42.2633 13.8266 42.3335 14.0167 42.3335ZM14.7333 31.6673H30.5V41.0002H14.7333V31.6673Z" fill="#B5243D"/>
<path d="M44.1167 31.0008H45.55C45.7401 31.0008 45.9224 30.9305 46.0568 30.8055C46.1912 30.6805 46.2667 30.5109 46.2667 30.3341C46.2667 30.1573 46.1912 29.9878 46.0568 29.8627C45.9224 29.7377 45.7401 29.6675 45.55 29.6675H44.1167C43.9266 29.6675 43.7443 29.7377 43.6099 29.8627C43.4755 29.9878 43.4 30.1573 43.4 30.3341C43.4 30.5109 43.4755 30.6805 43.6099 30.8055C43.7443 30.9305 43.9266 31.0008 44.1167 31.0008Z" fill="#B5243D"/>
<path d="M41.9667 34.3337H41.25C41.0599 34.3337 40.8776 34.404 40.7432 34.529C40.6088 34.654 40.5333 34.8236 40.5333 35.0004C40.5333 35.1772 40.6088 35.3467 40.7432 35.4718C40.8776 35.5968 41.0599 35.667 41.25 35.667H41.9667C42.1567 35.667 42.339 35.5968 42.4734 35.4718C42.6078 35.3467 42.6833 35.1772 42.6833 35.0004C42.6833 34.8236 42.6078 34.654 42.4734 34.529C42.339 34.404 42.1567 34.3337 41.9667 34.3337Z" fill="#B5243D"/>
<path d="M44.1167 35.667H48.4167C48.6067 35.667 48.789 35.5968 48.9234 35.4718C49.0578 35.3467 49.1333 35.1772 49.1333 35.0004C49.1333 34.8236 49.0578 34.654 48.9234 34.529C48.789 34.404 48.6067 34.3337 48.4167 34.3337H44.1167C43.9266 34.3337 43.7443 34.404 43.6099 34.529C43.4755 34.654 43.4 34.8236 43.4 35.0004C43.4 35.1772 43.4755 35.3467 43.6099 35.4718C43.7443 35.5968 43.9266 35.667 44.1167 35.667Z" fill="#B5243D"/>
<path d="M41.9667 37.0006H41.25C41.0599 37.0006 40.8776 37.0708 40.7432 37.1959C40.6088 37.3209 40.5333 37.4904 40.5333 37.6673C40.5333 37.8441 40.6088 38.0136 40.7432 38.1386C40.8776 38.2637 41.0599 38.3339 41.25 38.3339H41.9667C42.1567 38.3339 42.339 38.2637 42.4734 38.1386C42.6078 38.0136 42.6833 37.8441 42.6833 37.6673C42.6833 37.4904 42.6078 37.3209 42.4734 37.1959C42.339 37.0708 42.1567 37.0006 41.9667 37.0006Z" fill="#B5243D"/>
<path d="M48.4167 37.0006H44.1167C43.9266 37.0006 43.7443 37.0708 43.6099 37.1959C43.4755 37.3209 43.4 37.4904 43.4 37.6673C43.4 37.8441 43.4755 38.0136 43.6099 38.1386C43.7443 38.2637 43.9266 38.3339 44.1167 38.3339H48.4167C48.6067 38.3339 48.789 38.2637 48.9234 38.1386C49.0578 38.0136 49.1333 37.8441 49.1333 37.6673C49.1333 37.4904 49.0578 37.3209 48.9234 37.1959C48.789 37.0708 48.6067 37.0006 48.4167 37.0006Z" fill="#B5243D"/>
<path d="M41.9667 39.6671H41.25C41.0599 39.6671 40.8776 39.7373 40.7432 39.8624C40.6088 39.9874 40.5333 40.157 40.5333 40.3338C40.5333 40.5106 40.6088 40.6801 40.7432 40.8051C40.8776 40.9302 41.0599 41.0004 41.25 41.0004H41.9667C42.1567 41.0004 42.339 40.9302 42.4734 40.8051C42.6078 40.6801 42.6833 40.5106 42.6833 40.3338C42.6833 40.157 42.6078 39.9874 42.4734 39.8624C42.339 39.7373 42.1567 39.6671 41.9667 39.6671Z" fill="#B5243D"/>
<path d="M48.4167 39.6671H44.1167C43.9266 39.6671 43.7443 39.7373 43.6099 39.8624C43.4755 39.9874 43.4 40.157 43.4 40.3338C43.4 40.5106 43.4755 40.6801 43.6099 40.8051C43.7443 40.9302 43.9266 41.0004 44.1167 41.0004H48.4167C48.6067 41.0004 48.789 40.9302 48.9234 40.8051C49.0578 40.6801 49.1333 40.5106 49.1333 40.3338C49.1333 40.157 49.0578 39.9874 48.9234 39.8624C48.789 39.7373 48.6067 39.6671 48.4167 39.6671Z" fill="#B5243D"/>
<path d="M19.0333 33.0006H18.3167C18.1266 33.0006 17.9443 33.0708 17.8099 33.1959C17.6755 33.3209 17.6 33.4904 17.6 33.6673C17.6 33.8441 17.6755 34.0136 17.8099 34.1386C17.9443 34.2637 18.1266 34.3339 18.3167 34.3339H19.0333C19.2234 34.3339 19.4057 34.2637 19.5401 34.1386C19.6745 34.0136 19.75 33.8441 19.75 33.6673C19.75 33.4904 19.6745 33.3209 19.5401 33.1959C19.4057 33.0708 19.2234 33.0006 19.0333 33.0006Z" fill="#B5243D"/>
<path d="M26.2 33.0006H21.1833C20.9933 33.0006 20.811 33.0708 20.6766 33.1959C20.5422 33.3209 20.4667 33.4904 20.4667 33.6673C20.4667 33.8441 20.5422 34.0136 20.6766 34.1386C20.811 34.2637 20.9933 34.3339 21.1833 34.3339H26.2C26.3901 34.3339 26.5724 34.2637 26.7068 34.1386C26.8412 34.0136 26.9167 33.8441 26.9167 33.6673C26.9167 33.4904 26.8412 33.3209 26.7068 33.1959C26.5724 33.0708 26.3901 33.0006 26.2 33.0006Z" fill="#B5243D"/>
<path d="M19.0333 35.6671H18.3167C18.1266 35.6671 17.9443 35.7373 17.8099 35.8624C17.6755 35.9874 17.6 36.157 17.6 36.3338C17.6 36.5106 17.6755 36.6801 17.8099 36.8051C17.9443 36.9302 18.1266 37.0004 18.3167 37.0004H19.0333C19.2234 37.0004 19.4057 36.9302 19.5401 36.8051C19.6745 36.6801 19.75 36.5106 19.75 36.3338C19.75 36.157 19.6745 35.9874 19.5401 35.8624C19.4057 35.7373 19.2234 35.6671 19.0333 35.6671Z" fill="#B5243D"/>
<path d="M26.2 35.6671H21.1833C20.9933 35.6671 20.811 35.7373 20.6766 35.8624C20.5422 35.9874 20.4667 36.157 20.4667 36.3338C20.4667 36.5106 20.5422 36.6801 20.6766 36.8051C20.811 36.9302 20.9933 37.0004 21.1833 37.0004H26.2C26.3901 37.0004 26.5724 36.9302 26.7068 36.8051C26.8412 36.6801 26.9167 36.5106 26.9167 36.3338C26.9167 36.157 26.8412 35.9874 26.7068 35.8624C26.5724 35.7373 26.3901 35.6671 26.2 35.6671Z" fill="#B5243D"/>
<path d="M19.0333 38.3339H18.3167C18.1266 38.3339 17.9443 38.4041 17.8099 38.5291C17.6755 38.6541 17.6 38.8237 17.6 39.0005C17.6 39.1773 17.6755 39.3469 17.8099 39.4719C17.9443 39.5969 18.1266 39.6671 18.3167 39.6671H19.0333C19.2234 39.6671 19.4057 39.5969 19.5401 39.4719C19.6745 39.3469 19.75 39.1773 19.75 39.0005C19.75 38.8237 19.6745 38.6541 19.5401 38.5291C19.4057 38.4041 19.2234 38.3339 19.0333 38.3339Z" fill="#B5243D"/>
<path d="M26.2 38.3339H21.1833C20.9933 38.3339 20.811 38.4041 20.6766 38.5291C20.5422 38.6541 20.4667 38.8237 20.4667 39.0005C20.4667 39.1773 20.5422 39.3469 20.6766 39.4719C20.811 39.5969 20.9933 39.6671 21.1833 39.6671H26.2C26.3901 39.6671 26.5724 39.5969 26.7068 39.4719C26.8412 39.3469 26.9167 39.1773 26.9167 39.0005C26.9167 38.8237 26.8412 38.6541 26.7068 38.5291C26.5724 38.4041 26.3901 38.3339 26.2 38.3339Z" fill="#B5243D"/>
<path d="M28.2262 19.8454C28.4929 20.1552 28.5101 20.6751 28.2778 21.018C28.1488 21.206 27.9767 21.2945 27.796 21.2945C27.6412 21.2945 27.4863 21.2282 27.3659 21.0844L25.2151 18.5954C25.0774 18.4405 25 18.2082 25 17.9759C25 17.7436 25.0774 17.5113 25.2151 17.3565L27.3659 14.8675C27.6326 14.5688 28.0369 14.5909 28.2778 14.9339C28.5101 15.2768 28.4929 15.7967 28.2262 16.1064L26.6088 17.9759L28.2262 19.8454Z" fill="#B5243D"/>
<path d="M31.8642 14.0484L30.5728 21.4686C30.5005 21.8899 30.2112 22.1992 29.7979 22.1079C29.4536 22.0052 29.2383 21.5371 29.3158 21.0805L30.6072 13.6602C30.6847 13.2036 31.0377 12.9182 31.3821 13.0209C31.7265 13.1237 31.9417 13.5917 31.8642 14.0484Z" fill="#B5243D"/>
<path d="M35.1049 18.5954L32.9541 21.0844C32.8337 21.2282 32.6788 21.2945 32.524 21.2945C32.3433 21.2945 32.1713 21.206 32.0422 21.018C31.8099 20.6751 31.8271 20.1552 32.0938 19.8454L33.7112 17.9759L32.0938 16.1064C31.8271 15.7967 31.8099 15.2768 32.0422 14.9339C32.2831 14.5909 32.6874 14.5688 32.9541 14.8675L35.1049 17.3565C35.2426 17.5113 35.32 17.7436 35.32 17.9759C35.32 18.2082 35.2426 18.4405 35.1049 18.5954Z" fill="#B5243D"/>
</svg>
