<svg width="1242" height="381" viewBox="0 0 1242 381" fill="none" xmlns="http://www.w3.org/2000/svg">
<path d="M0 190.475V380.95H420.107H840.213V373.15V365.349H428.819H17.425V190.726V16.1036H428.819H840.213V8.05182V3.05176e-05H420.107H0V190.475Z" fill="#B5243D"/>
<path d="M870.707 190.475V381L953.367 380.799C1043.05 380.597 1040.93 380.648 1064.45 377.679C1118.52 370.734 1159.85 353.221 1189.15 324.839C1225.85 289.31 1243.38 241.906 1241.91 182.675C1241.42 163.3 1239.3 147.75 1234.94 131.747C1214.47 56.3625 1149.73 10.9202 1049.8 1.76132C1033.14 0.251617 1018.71 0 945.199 0H870.707V190.475ZM1039.78 49.8204C1091.84 52.6888 1130.39 67.8865 1156.31 95.7155C1179.67 120.777 1190.95 154.342 1189.59 194.752C1188.55 226.658 1180.71 252.021 1165.08 274.012C1141.99 306.471 1107.2 324.034 1053.94 330.173C1044.41 331.28 1042.56 331.331 982.499 331.482L920.804 331.683V190.827C920.804 113.379 920.967 49.8204 921.185 49.6694C921.73 49.1158 1029.6 49.2668 1039.78 49.8204Z" fill="#B5243D"/>
<path d="M994.86 190.173V259.67H1019.36C1049.97 259.67 1057.7 258.965 1070.93 254.889C1081.44 251.668 1088.57 247.592 1096.2 240.597C1103.82 233.552 1107.69 227.614 1111.06 217.901C1114.28 208.642 1114.93 204.062 1114.93 190.475C1114.93 177.844 1114.55 174.724 1112.21 166.32C1105.73 143.322 1087.7 128.526 1059.77 123.293C1049.42 121.381 1045.83 121.179 1020.34 120.928L994.86 120.676V190.173Z" fill="#B5243D"/>
<path d="M59.354 120.324V161.589L93.2784 161.438C123.01 161.237 127.802 161.136 132.321 160.331C150.672 157.11 161.508 147.901 166.463 131.294C167.226 128.778 167.444 126.161 167.444 119.519C167.444 112.121 167.28 110.41 166.191 106.938C161.399 91.4883 149.202 82.4804 129.326 79.7629C124.97 79.159 117.401 79.0081 91.6448 79.0081H59.354V120.324ZM128.782 95.0613C133.792 96.6213 136.569 98.131 139.564 101.1C143.757 105.227 145.662 109.856 146.207 117.153C147.078 128.275 142.722 137.333 134.663 141.309C127.094 145.033 119.579 145.938 96.8178 145.938H80.0462V119.72V93.5516L102.535 93.7026C124.262 93.9039 125.079 93.9542 128.782 95.0613Z" fill="#B5243D"/>
<path d="M205.833 120.273V161.539H216.452H227.07V120.273V79.0081H216.452H205.833V120.273Z" fill="#B5243D"/>
<path d="M282.667 79.7629C276.078 81.1216 272.865 84.2417 271.395 90.5824C270.687 93.7025 270.633 98.5839 270.741 121.984C270.959 153.688 270.959 153.487 275.315 157.362C279.781 161.337 278.474 161.237 321.274 161.438C346.976 161.539 360.263 161.438 362.658 161.035C367.505 160.281 371.643 158.368 373.277 156.104C375.945 152.329 376.272 149.662 376.272 130.992V113.731H349.317H322.363V120.777V127.822H339.244H356.124V136.88V145.938H323.724H291.325V119.77V93.6018H323.724H356.124V98.4329C356.124 103.214 356.124 103.264 357.376 103.012C358.03 102.861 362.114 102.107 366.47 101.402C370.826 100.697 374.802 99.9929 375.346 99.842C376.108 99.5904 376.272 98.9361 376.272 95.6651C376.272 88.8714 374.094 83.9397 370.01 81.7758C365.163 79.1087 363.312 79.008 323.18 79.0583C293.721 79.0583 285.444 79.2093 282.667 79.7629Z" fill="#B5243D"/>
<path d="M420.379 120.273V161.539H430.997H441.616V120.273V79.0081H430.997H420.379V120.273Z" fill="#B5243D"/>
<path d="M466.664 86.305V93.602H487.084H507.504V127.57V161.539H518.122H528.741V127.57V93.602H549.161H569.581V86.305V79.0081H518.122H466.664V86.305Z" fill="#B5243D"/>
<path d="M593.268 117.355C580.417 138.44 569.036 157.01 568.11 158.62L566.313 161.539H576.823L587.278 161.488L592.451 152.481L597.57 143.422H625.776H653.929L659.265 152.481L664.602 161.488L676.418 161.539H688.234L672.715 136.478C664.166 122.739 652.622 104.17 647.068 95.2123L636.994 79.0081H626.865L616.683 79.0584L593.268 117.355ZM635.741 111.769C640.86 120.626 645.107 128.124 645.162 128.376C645.271 128.627 637.593 128.828 625.994 128.828C615.321 128.828 606.609 128.678 606.609 128.527C606.609 127.973 625.831 95.6149 626.158 95.6149C626.321 95.6149 630.677 102.861 635.741 111.769Z" fill="#B5243D"/>
<path d="M717.149 120.273V161.539H760.984H804.819V153.739V145.939H771.33H737.841V112.473V79.0081H727.495H717.149V120.273Z" fill="#B5243D"/>
<path d="M56.6313 248.8V284.832H83.4768C117.292 284.832 122.955 284.328 131.505 280.554C140.435 276.578 147.296 268.527 150.128 258.663C151.489 254.033 151.434 242.056 150.073 237.527C146.479 225.55 137.821 218.002 123.337 214.278C119.089 213.171 118.109 213.171 87.833 212.969L56.6313 212.818V248.8ZM116.258 226.557C123.337 228.519 128.455 232.495 130.797 237.93C131.886 240.446 132.049 241.654 132.049 248.095C132.049 254.637 131.886 255.694 130.742 258.412C128.945 262.538 124.48 266.665 120.069 268.174C113.099 270.59 110.649 270.842 92.1893 271.093L74.6009 271.345V248.75C74.6009 236.32 74.7643 225.953 75.0365 225.752C75.2544 225.55 84.0213 225.45 94.4763 225.601C109.288 225.752 114.134 225.953 116.258 226.557Z" fill="#B5243D"/>
<path d="M184.596 248.85V284.832H193.853H203.111V248.85V212.869H193.853H184.596V248.85Z" fill="#B5243D"/>
<path d="M224.347 213.07C224.347 213.221 234.367 229.375 246.619 248.951L268.89 284.58L275.316 284.731L281.795 284.832L301.126 252.272C311.745 234.357 321.383 218.203 322.472 216.291L324.487 212.869H315.393H306.299L291.325 238.785L276.405 264.652L275.479 263.293C274.989 262.538 267.91 250.913 259.742 237.376L244.931 212.869H234.639C228.976 212.869 224.347 212.969 224.347 213.07Z" fill="#B5243D"/>
<path d="M345.778 248.85V284.832H355.035H364.292V248.85V212.869H355.035H345.778V248.85Z" fill="#B5243D"/>
<path d="M414.335 213.573C410.033 214.63 408.29 215.888 406.493 219.159L404.86 222.179V233.753V245.328L406.384 248.196C407.964 251.115 409.815 252.574 413.409 253.782C414.661 254.184 424.354 254.436 443.794 254.637L472.382 254.889L472.545 263.041L472.654 271.244H445.155H417.656V266.967C417.656 264.601 417.547 262.689 417.493 262.689C417.384 262.689 413.79 263.343 409.597 264.199C405.35 265.004 401.701 265.709 401.538 265.709C400.994 265.709 401.701 274.163 402.409 276.327C403.771 280.806 407.201 283.372 413.028 284.278C415.151 284.63 427.24 284.832 445.373 284.832C478.372 284.832 480.277 284.681 484.144 281.46C487.792 278.39 488.173 276.729 488.173 262.689V250.36L486.54 247.34C485.069 244.673 484.525 244.17 481.639 242.811L478.372 241.302L449.511 241.05L420.651 240.798L420.488 233.099L420.324 225.45H445.972H471.565V229.526C471.565 232.596 471.728 233.552 472.273 233.35C472.6 233.25 476.302 232.394 480.441 231.539C486.376 230.23 487.901 229.727 487.901 229.073C487.901 228.57 487.629 226.557 487.356 224.594C486.431 218.102 483.817 215.083 477.827 213.624C475.104 212.969 470.095 212.869 445.7 212.919C424.681 212.919 416.186 213.12 414.335 213.573Z" fill="#B5243D"/>
<path d="M526.563 248.85V284.832H535.548H544.532V248.85V212.869H535.548H526.563V248.85Z" fill="#B5243D"/>
<path d="M591.525 213.875C587.441 215.133 585.263 217.247 583.902 221.323C583.031 223.89 582.922 226.658 582.922 248.599C582.922 274.717 583.031 276.226 585.699 279.9C587.333 282.215 590.11 283.574 594.684 284.328C599.911 285.184 667.052 284.731 670.156 283.875C673.423 282.919 676.581 280.252 677.725 277.434C678.651 275.27 678.76 272.704 678.923 250.763C679.086 225.148 678.923 222.43 676.69 218.404C675.71 216.593 674.784 215.838 672.225 214.63L669.012 213.12L631.984 213.02C596.426 212.919 594.738 212.97 591.525 213.875ZM660.953 248.448L661.062 271.244H631.113H601.164V248.347V225.45L631.004 225.55L660.79 225.701L660.953 248.448Z" fill="#B5243D"/>
<path d="M717.149 248.85V284.832H725.371H733.594L733.43 259.921L733.213 235.061L736.208 237.729C737.841 239.238 752.053 250.461 767.79 262.639L796.378 284.832H802.749H809.175V248.85V212.869H800.952H792.784L792.948 237.779L793.111 262.639L790.116 259.921C788.483 258.412 774.27 247.24 758.533 235.061L729.945 212.919L723.574 212.869H717.149V248.85Z" fill="#B5243D"/>
</svg>
