<svg width="58" height="58" viewBox="0 0 58 58" fill="none" xmlns="http://www.w3.org/2000/svg">
<rect width="58" height="58" rx="29" fill="#F4F4F4"/>
<g clip-path="url(#clip0)">
<path d="M21.1378 19.0052H28.1744C28.4171 19.0052 28.6139 18.8019 28.6139 18.5511C28.6139 18.3004 28.4171 18.097 28.1744 18.097H21.1378C20.8951 18.097 20.6984 18.3004 20.6984 18.5511C20.6984 18.8019 20.8951 19.0052 21.1378 19.0052Z" fill="#B5243D"/>
<path d="M21.1378 21.3809H28.1744C28.4171 21.3809 28.6139 21.1775 28.6139 20.9268C28.6139 20.676 28.4171 20.4727 28.1744 20.4727H21.1378C20.8951 20.4727 20.6984 20.676 20.6984 20.9268C20.6984 21.1775 20.8951 21.3809 21.1378 21.3809Z" fill="#B5243D"/>
<path d="M35.545 25.3575H21.1378C20.8951 25.3575 20.6984 25.5609 20.6984 25.8116C20.6984 26.0624 20.8951 26.2657 21.1378 26.2657H35.5449C35.7877 26.2657 35.9844 26.0624 35.9844 25.8116C35.9844 25.5609 35.7877 25.3575 35.545 25.3575Z" fill="#B5243D"/>
<path d="M35.9844 29.2236C35.9844 28.9728 35.7877 28.7695 35.545 28.7695H21.1378C20.8951 28.7695 20.6984 28.9728 20.6984 29.2236C20.6984 29.4744 20.8951 29.6777 21.1378 29.6777H35.5449C35.7877 29.6777 35.9844 29.4744 35.9844 29.2236V29.2236Z" fill="#B5243D"/>
<path d="M34.2391 32.6356C34.2391 32.3848 34.0424 32.1815 33.7996 32.1815H21.1378C20.8951 32.1815 20.6984 32.3848 20.6984 32.6356C20.6984 32.8864 20.8951 33.0897 21.1378 33.0897H33.7996C34.0424 33.0897 34.2391 32.8864 34.2391 32.6356Z" fill="#B5243D"/>
<path d="M21.1378 35.5934C20.8951 35.5934 20.6984 35.7968 20.6984 36.0475C20.6984 36.2983 20.8951 36.5016 21.1378 36.5016H29.0974C29.3401 36.5016 29.5369 36.2983 29.5369 36.0475C29.5369 35.7968 29.3401 35.5934 29.0974 35.5934H21.1378Z" fill="#B5243D"/>
<path d="M36.3959 35.6405C34.722 35.6405 33.3602 37.0477 33.3602 38.7774C33.3602 40.5071 34.722 41.9143 36.3959 41.9143C38.0699 41.9143 39.4317 40.5071 39.4317 38.7774C39.4317 37.0477 38.0698 35.6405 36.3959 35.6405ZM36.3959 41.006C35.2066 41.006 34.2391 40.0062 34.2391 38.7774C34.2391 37.5485 35.2066 36.5486 36.3959 36.5486C37.5852 36.5486 38.5528 37.5485 38.5528 38.7774C38.5528 40.0062 37.5852 41.006 36.3959 41.006Z" fill="#B5243D"/>
<path d="M41.2928 37.304C41.1877 37.304 41.0939 37.2342 41.0597 37.1305C40.9928 36.9283 40.9126 36.7282 40.8213 36.5362C40.7741 36.4367 40.7924 36.3182 40.8669 36.2413C41.3054 35.788 41.3054 35.0505 40.8669 34.5972L40.4413 34.1575C40.0027 33.7043 39.2889 33.7043 38.8502 34.1577C38.7758 34.2346 38.6613 34.2534 38.5649 34.2045C38.379 34.1102 38.1855 34.0274 37.9898 33.9583C37.8894 33.9228 37.8219 33.826 37.8219 33.7174C37.8219 33.0764 37.3172 32.5549 36.6968 32.5549H36.0951C35.4748 32.5549 34.9701 33.0764 34.9701 33.7174C34.9701 33.826 34.9026 33.9229 34.8022 33.9583C34.6064 34.0274 34.4129 34.1103 34.227 34.2045C34.1306 34.2534 34.0161 34.2345 33.9417 34.1575C33.503 33.7043 32.7892 33.7043 32.3506 34.1575L31.9251 34.5972C31.4865 35.0505 31.4865 35.788 31.9252 36.2414C31.9996 36.3183 32.0178 36.4367 31.9705 36.5362C31.8792 36.7285 31.799 36.9285 31.7323 37.1305C31.698 37.2343 31.6042 37.304 31.4991 37.304C30.8788 37.304 30.3741 37.8255 30.3741 38.4665V39.0884C30.3741 39.7294 30.8788 40.2509 31.4991 40.2509C31.6043 40.2509 31.698 40.3206 31.7323 40.4243C31.7991 40.6264 31.8792 40.8263 31.9706 41.0188C32.0178 41.1182 31.9996 41.2366 31.9252 41.3135C31.924 41.3147 31.9229 41.3159 31.9217 41.3172C31.7113 41.5364 31.5956 41.8268 31.5956 42.1357C31.5956 42.4462 31.7126 42.7381 31.9251 42.9577L32.3506 43.3974C32.7892 43.8507 33.503 43.8507 33.9418 43.3973C34.0162 43.3205 34.1307 43.3017 34.227 43.3504C34.4129 43.4448 34.6065 43.5276 34.8022 43.5967C34.9026 43.6321 34.9701 43.729 34.9701 43.8376C34.9701 44.4786 35.4748 45.0001 36.0951 45.0001H36.6968C37.3172 45.0001 37.8219 44.4786 37.8219 43.8376C37.8219 43.729 37.8894 43.6321 37.9898 43.5967C38.1855 43.5275 38.3791 43.4447 38.565 43.3504C38.6613 43.3016 38.7759 43.3205 38.8503 43.3974C39.2889 43.8507 40.0027 43.8507 40.4413 43.3974L40.8669 42.9577C41.0793 42.7382 41.1963 42.4462 41.1963 42.1357C41.1963 41.8268 41.0805 41.5364 40.8703 41.3173C40.8691 41.316 40.8679 41.3148 40.8667 41.3135C40.7923 41.2366 40.7741 41.1182 40.8213 41.0188C40.9127 40.8266 40.9929 40.6266 41.0596 40.4244C41.094 40.3206 41.1877 40.2509 41.2928 40.2509C41.9132 40.2509 42.4178 39.7294 42.4178 39.0884V38.4665C42.4178 37.8255 41.9132 37.304 41.2928 37.304V37.304ZM41.5389 39.0883C41.5389 39.2285 41.4285 39.3426 41.2928 39.3426C40.8118 39.3426 40.3838 39.6593 40.2279 40.1308C40.173 40.2966 40.1072 40.4607 40.0323 40.6186C39.8201 41.0651 39.9044 41.6004 40.2417 41.952C40.2429 41.9533 40.2441 41.9546 40.2453 41.9558C40.2918 42.0039 40.3173 42.0677 40.3173 42.1356C40.3173 42.2035 40.2917 42.2674 40.2452 42.3154L39.8197 42.7551C39.7237 42.8543 39.5675 42.8542 39.4716 42.755C39.1312 42.4034 38.6112 42.3151 38.1776 42.535C38.025 42.6124 37.8662 42.6804 37.7055 42.7371C37.2493 42.8982 36.9428 43.3404 36.9428 43.8375C36.9428 43.9777 36.8324 44.0918 36.6967 44.0918H36.0949C35.9592 44.0918 35.8488 43.9777 35.8488 43.8375C35.8488 43.3404 35.5424 42.8982 35.0861 42.7371C34.9254 42.6804 34.7667 42.6124 34.614 42.535C34.4551 42.4543 34.2845 42.4152 34.1154 42.4152C33.8232 42.4152 33.5355 42.5323 33.3199 42.7551C33.2239 42.8542 33.0677 42.8542 32.9719 42.7551L32.5464 42.3154C32.4998 42.2674 32.4743 42.2035 32.4743 42.1356C32.4743 42.0676 32.4999 42.0038 32.5463 41.9558C32.5475 41.9545 32.5487 41.9532 32.5499 41.952C32.8873 41.6003 32.9715 41.0651 32.7593 40.6185C32.6843 40.4606 32.6185 40.2965 32.5637 40.1307C32.4078 39.6593 31.9799 39.3426 31.4988 39.3426C31.3631 39.3426 31.2527 39.2285 31.2527 39.0883V38.4665C31.2527 38.3263 31.3631 38.2122 31.4988 38.2122C31.9799 38.2122 32.4078 37.8955 32.5638 37.424C32.6185 37.2582 32.6843 37.0941 32.7593 36.9363C32.9723 36.4881 32.8867 35.9508 32.5464 35.599C32.4504 35.4999 32.4504 35.3385 32.5464 35.2394L32.9719 34.7997C33.0678 34.7005 33.224 34.7006 33.32 34.7998C33.6603 35.1515 34.1805 35.2397 34.614 35.0198C34.7666 34.9424 34.9254 34.8744 35.0861 34.8177C35.5423 34.6566 35.8488 34.2145 35.8488 33.7173C35.8488 33.5771 35.9592 33.463 36.0949 33.463H36.6967C36.8324 33.463 36.9428 33.5771 36.9428 33.7173C36.9428 34.2144 37.2492 34.6566 37.7055 34.8177C37.8661 34.8744 38.0249 34.9424 38.1775 35.0198C38.6113 35.2398 39.1314 35.1514 39.4717 34.7998C39.5677 34.7006 39.7239 34.7006 39.8197 34.7998L40.2452 35.2395C40.3412 35.3386 40.3412 35.5 40.2451 35.5992C39.9049 35.9508 39.8193 36.4882 40.0322 36.9365C40.1072 37.0941 40.173 37.2582 40.2279 37.4242C40.3837 37.8955 40.8117 38.2122 41.2928 38.2122C41.4285 38.2122 41.5389 38.3263 41.5389 38.4665V39.0883H41.5389Z" fill="#B5243D"/>
<path d="M29.7461 41.5538H19.4419C18.9011 41.5538 18.4611 41.0991 18.4611 40.5402V15.9218C18.4611 15.3629 18.9011 14.9082 19.4419 14.9082H32.2947V19.8178C32.2947 20.6797 32.9733 21.3808 33.8073 21.3808H38.5586V32.4517C38.5586 32.7024 38.7553 32.9058 38.998 32.9058C39.2408 32.9058 39.4375 32.7024 39.4375 32.4517V20.9267C39.4375 20.8063 39.3912 20.6908 39.3088 20.6057L33.0449 14.133C32.9624 14.0478 32.8507 14 32.7342 14H19.4419C18.4165 14 17.5822 14.8621 17.5822 15.9218V40.5402C17.5822 41.5999 18.4165 42.462 19.4419 42.462H29.7461C29.9888 42.462 30.1855 42.2587 30.1855 42.0079C30.1855 41.7571 29.9888 41.5538 29.7461 41.5538ZM33.1736 19.8178V15.5504L37.9371 20.4726H33.8074C33.4579 20.4726 33.1736 20.1789 33.1736 19.8178V19.8178Z" fill="#B5243D"/>
</g>
<defs>
<clipPath id="clip0">
<rect width="30" height="31" fill="white" transform="translate(15 14)"/>
</clipPath>
</defs>
</svg>
