<svg width="64" height="60" viewBox="0 0 64 60" fill="none" xmlns="http://www.w3.org/2000/svg">
<path d="M12.8999 16.4307C9.46952 16.4307 6.68881 13.7845 6.68881 10.5209C6.68881 7.25689 9.46952 4.61157 12.8999 4.61157C16.3299 4.61157 19.111 7.25689 19.111 10.5209C19.1077 13.7829 16.3285 16.4269 12.8999 16.4307ZM12.8999 6.58133C10.6129 6.58133 8.75909 8.34476 8.75909 10.5209C8.75909 12.6966 10.6129 14.4608 12.8999 14.4608C15.1866 14.4608 17.0405 12.6966 17.0405 10.5209C17.0405 8.34476 15.1866 6.58133 12.8999 6.58133Z" fill="#B5243D"/>
<path d="M37.8398 43.0039V48.7069H26.2778V35.6649L19.9712 33.7637V23.9937H29.4308C32.3319 23.9905 34.6829 21.8646 34.6867 19.2415V17.3403H5.25551C2.35436 17.3431 0.00372056 19.469 0 22.093V32.5482C0 34.1229 1.41198 35.3997 3.15339 35.3997H5.25551V52.5087H0V59.1621H2.10254V54.4095H16.8177V59.1621H18.92V50.6076H37.8398V59.1621H39.9421V44.9046H60.9643V59.1621H63.0661V43.0039H37.8398ZM5.25551 23.0433V33.4986H3.15339C2.57293 33.4986 2.10254 33.0731 2.10254 32.5482V22.093C2.10254 20.5174 3.5141 19.2415 5.25551 19.2415H32.5844C32.5844 20.8162 31.1724 22.093 29.4308 22.093H17.8688V35.1345L24.1754 37.0352V48.7069H21.0224V38.5427L10.511 34.9783V52.5087H7.358V23.0433H5.25551ZM16.8177 48.7069V52.5087H12.6134V37.7218L18.92 39.86V48.7069H16.8177Z" fill="#B5243D"/>
<path d="M46.3493 40.0696H54.9383V16.178H61.1551L50.6438 0.974854L40.133 16.178H46.3493V40.0696ZM43.9767 14.2667L50.6438 4.62145L57.3114 14.2667H52.7913V38.1585H48.4968V14.2667H43.9767Z" fill="#B5243D"/>
</svg>
