<svg width="100" height="101" viewBox="0 0 100 101" fill="none" xmlns="http://www.w3.org/2000/svg">
<rect width="100" height="101" rx="50" fill="white"/>
<path d="M32.8999 31.4307C29.4695 31.4307 26.6888 28.7845 26.6888 25.5209C26.6888 22.2569 29.4695 19.6116 32.8999 19.6116C36.3299 19.6116 39.111 22.2569 39.111 25.5209C39.1077 28.7829 36.3285 31.4269 32.8999 31.4307ZM32.8999 21.5813C30.6129 21.5813 28.7591 23.3448 28.7591 25.5209C28.7591 27.6966 30.6129 29.4608 32.8999 29.4608C35.1866 29.4608 37.0405 27.6966 37.0405 25.5209C37.0405 23.3448 35.1866 21.5813 32.8999 21.5813Z" fill="#B5243D"/>
<path d="M57.8398 58.0039V63.7069H46.2778V50.6649L39.9712 48.7637V38.9937H49.4308C52.3319 38.9905 54.6829 36.8646 54.6867 34.2415V32.3403H25.2555C22.3544 32.3431 20.0037 34.469 20 37.093V47.5482C20 49.1229 21.412 50.3997 23.1534 50.3997H25.2555V67.5087H20V74.1621H22.1025V69.4095H36.8177V74.1621H38.92V65.6076H57.8398V74.1621H59.9421V59.9046H80.9643V74.1621H83.0661V58.0039H57.8398ZM25.2555 38.0433V48.4986H23.1534C22.5729 48.4986 22.1025 48.0731 22.1025 47.5482V37.093C22.1025 35.5174 23.5141 34.2415 25.2555 34.2415H52.5844C52.5844 35.8162 51.1724 37.093 49.4308 37.093H37.8688V50.1345L44.1754 52.0352V63.7069H41.0224V53.5427L30.511 49.9783V67.5087H27.358V38.0433H25.2555ZM36.8177 63.7069V67.5087H32.6134V52.7218L38.92 54.86V63.7069H36.8177Z" fill="#B5243D"/>
<path d="M66.3493 55.0696H74.9383V31.178H81.1551L70.6438 15.9749L60.133 31.178H66.3493V55.0696ZM63.9767 29.2667L70.6438 19.6214L77.3114 29.2667H72.7913V53.1585H68.4968V29.2667H63.9767Z" fill="#B5243D"/>
</svg>
