<svg width="74" height="75" viewBox="0 0 74 75" fill="none" xmlns="http://www.w3.org/2000/svg">
<path d="M37 0C16.5985 0 0 16.8228 0 37.5C0 58.1772 16.5985 75 37 75C57.4015 75 74 58.1772 74 37.5C74 16.8228 57.4015 0 37 0ZM37 71.7391C18.3713 71.7391 3.21739 56.3804 3.21739 37.5C3.21739 18.6196 18.3713 3.26087 37 3.26087C55.6287 3.26087 70.7826 18.6196 70.7826 37.5C70.7826 56.3804 55.6287 71.7391 37 71.7391Z" fill="#B5243D"/>
<path d="M28.9565 30.9782C28.9565 28.2815 26.7912 26.0869 24.1304 26.0869C21.4696 26.0869 19.3043 28.2815 19.3043 30.9782C19.3043 33.675 21.4696 35.8695 24.1304 35.8695C26.7912 35.8695 28.9565 33.675 28.9565 30.9782ZM22.5217 30.9782C22.5217 30.0798 23.244 29.3478 24.1304 29.3478C25.0168 29.3478 25.7391 30.0798 25.7391 30.9782C25.7391 31.8766 25.0168 32.6087 24.1304 32.6087C23.244 32.6087 22.5217 31.8766 22.5217 30.9782Z" fill="#B5243D"/>
<path d="M49.8696 26.0869C47.2088 26.0869 45.0435 28.2815 45.0435 30.9782C45.0435 33.675 47.2088 35.8695 49.8696 35.8695C52.5304 35.8695 54.6957 33.675 54.6957 30.9782C54.6957 28.2815 52.5304 26.0869 49.8696 26.0869ZM48.4902 28.5644C47.6039 28.5644 48.2609 31.8766 48.2609 30.9782C48.2609 30.0798 48.5433 31.7138 49.4297 31.7138C50.3161 31.7138 48.2609 30.0798 48.2609 30.9782C48.2609 31.8766 49.3766 28.5644 48.4902 28.5644Z" fill="#B5243D"/>
<path d="M24.1933 26.0742C21.5325 26.0742 19.3672 28.2688 19.3672 30.9655C19.3672 33.6623 21.5325 35.8568 24.1933 35.8568C26.8541 35.8568 29.0194 33.6623 29.0194 30.9655C29.0194 28.2688 26.8541 26.0742 24.1933 26.0742ZM22.8139 28.5517C21.9276 28.5517 22.5846 31.8639 22.5846 30.9655C22.5846 30.0672 22.867 31.7011 23.7534 31.7011C24.6398 31.7011 22.5846 30.0672 22.5846 30.9655C22.5846 31.8639 23.7003 28.5517 22.8139 28.5517Z" fill="#B5243D"/>
<path d="M52.5512 46.068C51.8885 45.4663 50.8702 45.525 50.2798 46.1951C46.924 49.9957 42.0851 52.1739 37 52.1739C31.9165 52.1739 27.0759 49.9957 23.7202 46.1951C23.1266 45.525 22.1115 45.4663 21.4487 46.068C20.7859 46.668 20.7313 47.6984 21.3233 48.3701C25.2887 52.8604 31.0028 55.4348 37 55.4348C42.9988 55.4348 48.7129 52.8587 52.6767 48.3701C53.2687 47.6984 53.2124 46.668 52.5512 46.068Z" fill="#B5243D"/>
</svg>
