<svg width="31" height="31" viewBox="0 0 31 31" fill="none" xmlns="http://www.w3.org/2000/svg">
<path d="M15.5499 0.480469C7.21322 0.480469 0.454834 7.2244 0.454834 15.5433C0.454834 23.0043 5.89691 29.1833 13.0324 30.3798V18.6858H9.39099V14.4776H13.0324V11.3746C13.0324 7.77424 15.2361 5.81226 18.4552 5.81226C19.9969 5.81226 21.3219 5.9269 21.7065 5.97739V9.74071L19.4738 9.74178C17.7236 9.74178 17.3861 10.5716 17.3861 11.7897V14.4754H21.5625L21.0178 18.6836H17.3861V30.4805C24.8547 29.5734 30.6448 23.237 30.6448 15.539C30.6448 7.2244 23.8864 0.480469 15.5499 0.480469Z" fill="white"/>
</svg>
