<svg width="171" height="58" viewBox="0 0 171 58" fill="none" xmlns="http://www.w3.org/2000/svg">
<g clip-path="url(#clip0)">
<path d="M125.246 8.34848V16.697H132.178H139.111V37.3485V58H148.123H157.135V37.3485V16.697H164.068H171V8.34848V0H148.123H125.246V8.34848Z" fill="#B5243D"/>
<path d="M7.62573 20.6515V24.6061H8.55006H9.47438V20.6515V16.697H8.55006H7.62573V20.6515Z" fill="#B5243D"/>
<path d="M11.7852 17.3561V18.0151H13.7493H15.7135V21.3106V24.6061H16.6379H17.5622V21.3106V18.0151H19.5264H21.4906V17.3561V16.697H16.6379H11.7852V17.3561Z" fill="#B5243D"/>
<path d="M30.5951 17.0045C30.2254 17.2682 30.1561 17.5977 30.1561 18.8939C30.1561 21.2007 30.341 21.3106 34.3387 21.3106H37.4352V22.1894V23.0682H34.4311C31.5195 23.0682 31.427 23.0462 31.427 22.6068C31.427 22.2773 31.3346 22.1894 31.0573 22.2773C30.8493 22.3432 30.5027 22.4091 30.2485 22.4091C29.6246 22.4091 29.6477 23.5735 30.2947 24.1887C30.7338 24.6061 30.988 24.628 34.5466 24.5621C37.2734 24.5182 38.4288 24.4083 38.6368 24.2106C39.0527 23.8152 39.0527 20.5636 38.6368 20.1682C38.4288 19.9704 37.3427 19.8606 35.0088 19.8167L31.6581 19.7507V18.872V18.0151H34.4311C37.0654 18.0151 37.2041 18.0371 37.2041 18.4545C37.2041 18.828 37.2965 18.872 37.8511 18.7621C38.7523 18.5424 38.8216 18.4765 38.8216 17.9273C38.8216 16.8507 38.267 16.697 34.5235 16.697C31.8892 16.697 30.9418 16.7629 30.5951 17.0045Z" fill="#B5243D"/>
<path d="M43.2122 20.6515V24.6061H47.4872H51.7622V23.8371V23.0682H48.4115H45.0608V22.0795V21.0909H47.025H48.9892V20.4318V19.7727H47.025H45.0608V18.8939V18.0151H48.4115H51.7622V17.3561V16.697H47.4872H43.2122V20.6515Z" fill="#B5243D"/>
<path d="M55.4595 20.6515V24.6061H56.3838H57.3081V23.0682V21.5303H58.14C58.8333 21.5303 59.2261 21.772 60.7281 23.0682C62.5074 24.6061 62.5074 24.6061 63.8708 24.6061H65.2111L63.3393 23.1121L61.4445 21.6402L62.623 21.5303C63.2931 21.4644 63.8939 21.2667 64.0095 21.0909C64.1481 20.9152 64.2405 19.9924 64.2405 19.0697C64.2405 16.6311 64.3561 16.697 59.4803 16.697H55.4595V20.6515ZM62.5305 18.5644C62.5999 18.872 62.5999 19.3553 62.5305 19.6629C62.3919 20.2121 62.3688 20.2121 59.85 20.2121H57.3081V19.1136V18.0152H59.85C62.3688 18.0152 62.3919 18.0152 62.5305 18.5644Z" fill="#B5243D"/>
<path d="M66.5514 16.8508C66.5514 16.9606 67.5913 18.6962 68.8391 20.7614C70.8726 24.1447 71.173 24.4962 71.7738 24.5621C72.4902 24.628 72.5364 24.5841 75.9102 18.6084L77.0194 16.675L76.0257 16.7409L75.0552 16.8068L73.4838 19.619L71.9356 22.4311L70.2487 19.575L68.5618 16.697H67.545C66.9904 16.697 66.5514 16.7629 66.5514 16.8508Z" fill="#B5243D"/>
<path d="M79.4919 20.6515V24.6061H80.4163H81.3406V20.6515V16.697H80.4163H79.4919V20.6515Z" fill="#B5243D"/>
<path d="M85.8928 17.0924C85.5693 17.444 85.5 18.0371 85.5 20.7174C85.5 24.8697 85.2458 24.672 90.214 24.5621C92.5942 24.5182 93.8882 24.4083 94.0731 24.2326C94.2117 24.1008 94.3966 23.4856 94.4659 22.8924C94.5584 21.8159 94.5584 21.8159 93.8189 21.6621C92.6866 21.4644 92.6635 21.4644 92.6635 22.2992V23.0682H90.0061H87.3486V20.5417V17.9932L89.9599 18.0591L92.548 18.125L92.6173 18.85C92.6866 19.3993 92.779 19.5531 93.0563 19.4652C93.2412 19.3993 93.6571 19.3334 93.9576 19.3334C94.4428 19.3334 94.5121 19.2455 94.5121 18.4546C94.5121 17.8614 94.3504 17.422 94.05 17.1364C93.634 16.7409 93.2874 16.697 89.9367 16.697C86.6785 16.697 86.2163 16.7409 85.8928 17.0924Z" fill="#B5243D"/>
<path d="M98.4406 20.6515V24.6061H102.854H107.245L107.175 23.8811L107.106 23.178L103.825 23.1121L100.52 23.0462V22.0795V21.0909H102.369H104.218V20.4318V19.7727H102.369H100.52V18.8939V18.0151H103.755H106.991V17.3561V16.697H102.716H98.4406V20.6515Z" fill="#B5243D"/>
<path d="M111.289 17.0485C111.011 17.2901 110.919 17.8174 110.919 19.0038C110.919 21.2447 111.034 21.3106 115.009 21.3106H118.082V22.1894V23.0682H115.078C112.305 23.0682 112.074 23.0462 112.074 22.6507C112.074 22.2992 111.959 22.2773 111.335 22.3871C110.642 22.5409 110.572 22.6288 110.618 23.2659C110.618 23.6614 110.757 24.1007 110.919 24.2545C111.081 24.4083 112.467 24.4962 115.101 24.4962C119.746 24.4962 119.7 24.5182 119.7 22.1894C119.7 19.9265 119.654 19.9045 115.795 19.8167L112.536 19.7288V18.872V18.0151H115.194C117.736 18.0151 117.851 18.0371 117.851 18.4765C117.851 18.828 117.967 18.8939 118.313 18.8061C118.568 18.7401 118.984 18.6083 119.261 18.5424C119.654 18.4326 119.7 18.3007 119.584 17.8394C119.33 16.7848 118.96 16.697 115.171 16.697C112.282 16.697 111.589 16.7629 111.289 17.0485Z" fill="#B5243D"/>
<path d="M125.015 38.1174V58H131.254H137.493L137.447 38.1614L137.378 18.3447L131.208 18.2788L125.015 18.2348V38.1174Z" fill="#B5243D"/>
<path d="M8.31897 37.7879V43.2803H11.9701C15.8984 43.2803 18.371 43.0167 19.3878 42.5333C22.646 40.9296 23.1775 35.7667 20.3121 33.5697C19.018 32.5811 17.308 32.2955 12.5478 32.2955H8.31897V37.7879ZM17.724 34.6462C18.8794 35.1735 19.4109 36.0962 19.4109 37.6341C19.4109 40.3583 18.1861 41.1273 13.7494 41.1712L10.9764 41.1932L10.9071 37.722L10.8378 34.2727H13.888C16.245 34.2727 17.1 34.3606 17.724 34.6462Z" fill="#B5243D"/>
<path d="M27.0827 37.722L27.152 43.1705H28.423H29.6939L29.7633 37.722L29.8095 32.2955H28.423H27.0365L27.0827 37.722Z" fill="#B5243D"/>
<path d="M33.0446 32.4273C33.0446 32.4932 34.5004 34.9538 36.3028 37.9197L39.561 43.2803H40.4391H41.2941L44.4369 37.8318L47.5796 32.4053L46.5166 32.3394C45.9389 32.2955 45.3381 32.3174 45.1763 32.3833C45.0146 32.4273 44.0671 33.9432 43.0735 35.7447C42.1029 37.5243 41.1093 39.2599 40.9013 39.5894L40.5316 40.1606L38.2439 36.228L35.9331 32.2955H34.5004C33.6916 32.2955 33.0446 32.3394 33.0446 32.4273Z" fill="#B5243D"/>
<path d="M50.8379 37.7879V43.2803H52.1088H53.3798V37.7879V32.2955H52.1088H50.8379V37.7879Z" fill="#B5243D"/>
<path d="M60.5432 32.5811C59.7113 32.9765 59.3878 33.7674 59.3878 35.3932C59.3878 37.1947 59.7113 38.0954 60.4508 38.425C60.8205 38.5788 62.5767 38.6667 65.1648 38.6667H69.3243V39.9848V41.303L65.3497 41.2591L61.352 41.1932L61.2827 40.578C61.2134 40.0068 61.144 39.9629 60.4739 40.0947C59.0412 40.3803 58.9257 40.4462 58.9257 41.0394C58.9257 41.9841 59.4571 42.7091 60.3121 42.9947C61.2827 43.3023 68.7697 43.3682 70.1331 43.0606C71.4734 42.775 71.6351 42.4235 71.6351 39.9409C71.6351 37.9197 71.5889 37.722 71.0574 37.2386C70.5028 36.6894 70.4566 36.6894 66.0892 36.6894H61.6986V35.4811V34.2727H65.5115H69.3243V34.822C69.3243 35.4371 69.5092 35.4811 70.8032 35.1295C71.6582 34.9098 71.6813 34.8659 71.5427 34.097C71.4734 33.6576 71.1961 33.1083 70.9419 32.8667C70.5028 32.4273 70.1562 32.4053 65.7888 32.3394C62.3457 32.2954 60.9823 32.3614 60.5432 32.5811Z" fill="#B5243D"/>
<path d="M77.4121 37.7879V43.2803H78.6831H79.954V37.7879V32.2955H78.6831H77.4121V37.7879Z" fill="#B5243D"/>
<path d="M86.9327 32.4492C85.8466 32.647 85.6156 33.3939 85.5462 37.3485C85.4538 41.7424 85.6618 42.5992 86.8865 42.9947C87.857 43.3023 96.7305 43.3682 98.0939 43.0606C98.6023 42.9508 99.1338 42.6871 99.2956 42.4894C99.6653 42.0061 99.7115 33.8114 99.3649 33.1742C98.9489 32.4273 97.8628 32.2955 92.5711 32.3174C89.7519 32.3394 87.2331 32.4053 86.9327 32.4492ZM97.0541 37.7879V41.303H92.6635H88.273V37.7879V34.2727H92.6635H97.0541V37.7879Z" fill="#B5243D"/>
<path d="M105.373 37.7879V43.2803H106.528H107.707L107.638 39.4796L107.568 35.6788L112.282 39.4796C116.696 43.0386 117.066 43.3023 117.828 43.2364L118.66 43.1705L118.729 37.722L118.776 32.2955H117.482H116.188L116.28 36.0083L116.349 39.7212L115.748 39.2379C115.402 38.9962 113.299 37.3265 111.081 35.525C107.499 32.669 106.944 32.2955 106.205 32.2955H105.373V37.7879Z" fill="#B5243D"/>
</g>
<defs>
<clipPath id="clip0">
<rect width="171" height="58" fill="white"/>
</clipPath>
</defs>
</svg>
