<svg width="1289" height="430" viewBox="0 0 1289 430" fill="none" xmlns="http://www.w3.org/2000/svg">
<path d="M944 61.894V123.788H996.273H1048.55V276.894V430H1116.5H1184.45V276.894V123.788H1236.73H1289V61.894V1.66893e-05H1116.5H944V61.894Z" fill="#B5243D"/>
<path d="M0 215V428H465.5H931V419.057V410.115H475.089H19.1779V215V19.8855H475.089H931V10.9427V2H465.5H0V215Z" fill="#B5243D"/>
<path d="M57 153V182H64H71V153V124H64H57V153Z" fill="#B5243D"/>
<path d="M88 128.833V133.667H102.976H117.952V157.833V182H125H132.048V157.833V133.667H147.024H162V128.833V124H125H88V128.833Z" fill="#B5243D"/>
<path d="M231.034 126.26C228.247 128.197 227.724 130.619 227.724 140.143C227.724 157.094 229.118 157.901 259.251 157.901H282.591V164.358V170.815H259.948C238.001 170.815 237.304 170.654 237.304 167.425C237.304 165.004 236.607 164.358 234.517 165.004C232.95 165.488 230.337 165.973 228.421 165.973C223.718 165.973 223.892 174.528 228.769 179.049C232.079 182.116 233.995 182.277 260.819 181.793C281.372 181.47 290.081 180.663 291.649 179.21C294.784 176.304 294.784 152.412 291.649 149.506C290.081 148.053 281.894 147.246 264.302 146.923L239.046 146.439V139.982V133.686H259.948C279.804 133.686 280.849 133.847 280.849 136.915C280.849 139.659 281.546 139.982 285.726 139.175C292.519 137.56 293.042 137.076 293.042 133.04C293.042 125.13 288.862 124 260.644 124C240.788 124 233.646 124.484 231.034 126.26Z" fill="#B5243D"/>
<path d="M326 153V182H358.5H391V176.361V170.722H365.527H340.054V163.472V156.222H354.986H369.919V151.389V146.556H354.986H340.054V140.111V133.667H365.527H391V128.833V124H358.5H326V153Z" fill="#B5243D"/>
<path d="M418 153.001V182H424.919H431.839V170.722V159.445H438.066C443.256 159.445 446.197 161.217 457.441 170.722C470.761 182 470.761 182 480.967 182H491L476.988 171.045L462.803 160.25L471.626 159.445C476.642 158.962 481.14 157.512 482.005 156.223C483.043 154.934 483.735 148.167 483.735 141.401C483.735 123.518 484.6 124.001 448.1 124.001H418V153.001ZM470.934 137.695C471.453 139.951 471.453 143.495 470.934 145.751C469.896 149.778 469.723 149.778 450.867 149.778H431.839V141.723V133.668H450.867C469.723 133.668 469.896 133.668 470.934 137.695Z" fill="#B5243D"/>
<path d="M501 125.291C501 126.097 508.947 138.843 518.483 154.009C534.024 178.855 536.32 181.436 540.912 181.92C546.386 182.404 546.74 182.081 572.523 138.198L581 124L573.406 124.484L565.989 124.968L553.98 145.619L542.148 166.27L529.256 145.297L516.364 124.161H508.594C504.355 124.161 501 124.645 501 125.291Z" fill="#B5243D"/>
<path d="M600 153V182H606.5H613V153V124H606.5H600V153Z" fill="#B5243D"/>
<path d="M647.98 126.901C645.539 129.479 645.017 133.83 645.017 153.491C645.017 183.948 643.099 182.498 680.577 181.692C698.532 181.37 708.293 180.564 709.688 179.275C710.734 178.308 712.128 173.796 712.651 169.445C713.349 161.548 713.349 161.548 707.771 160.42C699.229 158.97 699.055 158.97 699.055 165.093V170.734H679.008H658.962V152.201V133.508L678.66 133.991L698.183 134.475L698.706 139.793C699.229 143.822 699.926 144.95 702.018 144.305C703.413 143.822 706.55 143.338 708.816 143.338C712.477 143.338 713 142.694 713 136.892C713 132.541 711.78 129.318 709.514 127.223C706.376 124.322 703.761 124 678.485 124C653.907 124 650.42 124.322 647.98 126.901Z" fill="#B5243D"/>
<path d="M742 153V182H775.588H809L808.472 176.683L807.945 171.528L782.974 171.044L757.827 170.561V163.472V156.222H771.895H785.963V151.389V146.556H771.895H757.827V140.111V133.667H782.446H807.066V128.833V124H774.533H742V153Z" fill="#B5243D"/>
<path d="M839.096 126.614C837.022 128.411 836.331 132.332 836.331 141.155C836.331 157.82 837.195 158.31 866.919 158.31H889.903V164.845V171.38H867.437C846.7 171.38 844.972 171.217 844.972 168.276C844.972 165.662 844.108 165.499 839.442 166.315C834.257 167.459 833.739 168.113 834.084 172.851C834.084 175.791 835.121 179.059 836.331 180.203C837.541 181.346 847.909 182 867.61 182C902.345 182 902 182.163 902 164.845C902 148.017 901.654 147.853 872.794 147.2L848.428 146.546V140.175V133.803H868.301C887.311 133.803 888.175 133.966 888.175 137.234C888.175 139.848 889.039 140.338 891.631 139.684C893.532 139.194 896.643 138.214 898.716 137.724C901.654 136.907 902 135.927 901.136 132.496C899.235 124.654 896.47 124 868.129 124C846.527 124 841.343 124.49 839.096 126.614Z" fill="#B5243D"/>
<path d="M942 282.5V430H989H1036L1035.65 282.826L1035.13 135.815L988.652 135.326L942 135V282.5Z" fill="#B5243D"/>
<path d="M62 280V321H89.6605C119.422 321 138.154 319.032 145.857 315.424C170.541 303.452 174.568 264.912 152.859 248.512C143.056 241.132 130.101 239 94.0371 239H62V280ZM133.252 256.548C142.005 260.484 146.032 267.372 146.032 278.852C146.032 299.188 136.753 304.928 103.141 305.256L82.1326 305.42L81.6074 279.508L81.0822 253.76H104.191C122.048 253.76 128.525 254.416 133.252 256.548Z" fill="#B5243D"/>
<path d="M204.35 279.418L204.875 320H214.5H224.125L224.65 279.418L225 239H214.5H204L204.35 279.418Z" fill="#B5243D"/>
<path d="M249 239.984C249 240.476 259.917 258.844 273.434 280.984L297.868 321H304.453H310.865L334.432 280.328L358 239.82L350.029 239.328C345.696 239 341.191 239.164 339.978 239.656C338.765 239.984 331.66 251.3 324.208 264.748C316.93 278.032 309.479 290.988 307.919 293.448L305.146 297.712L287.99 268.356L270.661 239H259.917C253.852 239 249 239.328 249 239.984Z" fill="#B5243D"/>
<path d="M383 280V321H392.5H402V280V239H392.5H383V280Z" fill="#B5243D"/>
<path d="M456.218 241.885C449.935 244.815 447.491 250.674 447.491 262.717C447.491 276.062 449.935 282.735 455.52 285.176C458.313 286.315 471.578 286.966 491.127 286.966H522.545V296.731V306.496L492.524 306.171L462.327 305.682L461.804 301.125C461.28 296.894 460.756 296.568 455.695 297.545C444.873 299.661 444 300.149 444 304.543C444 311.541 448.015 316.912 454.473 319.028C461.804 321.306 518.356 321.794 528.655 319.516C538.778 317.4 540 314.796 540 296.406C540 281.433 539.651 279.968 535.636 276.388C531.447 272.319 531.098 272.319 498.109 272.319H464.945V263.368V254.417H493.745H522.545V258.486C522.545 263.043 523.942 263.368 533.716 260.764C540.175 259.137 540.349 258.811 539.302 253.115C538.778 249.86 536.684 245.791 534.764 244.001C531.447 240.746 528.829 240.583 495.84 240.095C469.833 239.77 459.535 240.258 456.218 241.885Z" fill="#B5243D"/>
<path d="M584 280V321H593H602V280V239H593H584V280Z" fill="#B5243D"/>
<path d="M655.488 240.992C647.385 242.455 645.661 247.983 645.144 277.247C644.454 309.763 646.006 316.103 655.143 319.03C662.384 321.306 728.587 321.793 738.759 319.517C742.552 318.704 746.517 316.754 747.724 315.29C750.483 311.714 750.827 251.072 748.241 246.357C745.138 240.829 737.035 239.854 697.555 240.016C676.521 240.179 657.729 240.667 655.488 240.992ZM731.001 280.498V306.511H698.244H665.487V280.498V254.486H698.244H731.001V280.498Z" fill="#B5243D"/>
<path d="M794 280V321H802.793H811.762L811.234 292.628L810.707 264.256L846.583 292.628C880.172 319.196 882.986 321.164 888.79 320.672L895.121 320.18L895.648 279.508L896 239H886.152H876.303L877.007 266.716L877.534 294.432L872.962 290.824C870.324 289.02 854.321 276.556 837.438 263.108C810.179 241.788 805.959 239 800.331 239H794V280Z" fill="#B5243D"/>
</svg>
