<svg width="68" height="78" viewBox="0 0 68 78" fill="none" xmlns="http://www.w3.org/2000/svg">
<rect width="68" height="78" rx="11" fill="#B5243D"/>
<rect x="14" width="54" height="78" fill="#B5243D"/>
<path d="M34.5 16C25.7767 16 18.6797 23.4124 18.6797 32.5234C18.6797 35.6018 19.4961 38.6059 21.0412 41.2122L33.5995 62.3491C33.84 62.754 34.2638 63 34.7196 63C34.7232 63 34.7266 63 34.7301 63C35.1899 62.9962 35.6145 62.7426 35.8507 62.3306L48.0889 40.9889C49.5487 38.4377 50.3203 35.5104 50.3203 32.5234C50.3203 23.4124 43.2233 16 34.5 16ZM45.8261 39.5751L34.6997 58.978L23.2823 39.7613C21.9962 37.5919 21.2988 35.0892 21.2988 32.5234C21.2988 24.9309 27.2306 18.7355 34.5 18.7355C41.7694 18.7355 47.6924 24.9309 47.6924 32.5234C47.6924 35.0131 47.041 37.4518 45.8261 39.5751Z" fill="white"/>
<path d="M34.5 24.2617C30.1383 24.2617 26.5898 27.9679 26.5898 32.5234C26.5898 37.0498 30.0806 40.7852 34.5 40.7852C38.9739 40.7852 42.4102 37.0001 42.4102 32.5234C42.4102 27.9679 38.8617 24.2617 34.5 24.2617ZM34.5 38.0496C31.577 38.0496 29.209 35.5681 29.209 32.5234C29.209 29.4864 31.5922 26.9973 34.5 26.9973C37.4078 26.9973 39.7822 29.4864 39.7822 32.5234C39.7822 35.5236 37.4693 38.0496 34.5 38.0496Z" fill="white"/>
</svg>
