<svg width="68" height="78" viewBox="0 0 68 78" fill="none" xmlns="http://www.w3.org/2000/svg">
<rect width="68" height="78" rx="11" fill="#B5243D"/>
<rect x="14" width="54" height="78" fill="#B5243D"/>
<g clip-path="url(#clip0)">
<path d="M54.7948 24.3333H16.2052C14.9923 24.3333 14 25.3486 14 26.5896V51.4102C14 52.6511 14.9923 53.6666 16.2052 53.6666H54.7949C56.0076 53.6666 57.0001 52.6513 57.0001 51.4102V26.5896C57 25.3486 56.0077 24.3333 54.7948 24.3333ZM53.9673 26.0254L36.7685 39.2256C36.4593 39.4664 35.9846 39.6171 35.4999 39.6148C35.0153 39.6171 34.5407 39.4664 34.2314 39.2256L17.0326 26.0254H53.9673ZM44.7803 40.0966L54.1521 51.9428C54.1615 51.9547 54.173 51.9637 54.183 51.9745H16.817C16.8269 51.9632 16.8385 51.9547 16.8479 51.9428L26.2197 40.0966C26.5069 39.7333 26.4524 39.2008 26.0968 38.9063C25.7418 38.6125 25.2213 38.6681 24.9341 39.0315L15.6538 50.762V27.0832L33.2396 40.5793C33.9007 41.0831 34.7049 41.3048 35.4998 41.307C36.2937 41.3053 37.0986 41.0836 37.76 40.5793L55.3458 27.0832V50.7619L46.0658 39.0315C45.7786 38.6682 45.2576 38.6124 44.9031 38.9063C44.5476 39.2001 44.493 39.7333 44.7803 40.0966Z" fill="white"/>
</g>
<defs>
<clipPath id="clip0">
<rect width="43" height="44" fill="white" transform="translate(14 17)"/>
</clipPath>
</defs>
</svg>
