<svg width="85" height="80" viewBox="0 0 85 80" fill="none" xmlns="http://www.w3.org/2000/svg">
<path d="M83.9065 11.053L79.9169 8.08316L83.9065 5.11393C84.5269 4.65147 84.7391 3.93069 84.4478 3.27674C84.1551 2.6222 83.4321 2.19949 82.6051 2.19949H66.0957V1.59974C66.0957 0.960848 65.4831 0.442993 64.7274 0.442993C63.9716 0.442993 63.3591 0.960848 63.3591 1.59974V17.2004L52.1213 22.3591C52.0593 21.9412 51.9112 21.5305 51.6768 21.144L50.0934 18.5306C49.0064 16.7362 46.3952 16.025 44.274 16.9433L43.0496 17.4732C42.021 17.9188 41.2596 18.6751 40.9049 19.6048C40.5501 20.534 40.6449 21.5245 41.172 22.3934L42.7554 25.0074C43.1251 25.6174 43.6714 26.1003 44.3139 26.4387C43.4734 27.3955 43.0745 28.5722 42.6642 29.7945L42.3693 30.6773C42.1635 31.2921 42.5866 31.9316 43.3138 32.105C43.4378 32.1351 43.5631 32.149 43.6863 32.149C44.2832 32.149 44.8317 31.8166 45.0027 31.3066L45.2975 30.4256C45.8973 28.6378 46.2655 27.6804 47.438 27.142L49.5399 26.1768L49.7992 26.0648C49.8854 26.0274 49.9659 25.9853 50.0478 25.9437L65.0287 19.0665C64.9339 20.6496 63.926 22.1453 62.2664 22.9974L52.5244 28.0013C52.513 28.0067 52.5016 28.0122 52.491 28.0182L49.4587 29.5754C48.8134 29.9071 48.6076 30.6189 49 31.1651C49.3697 31.6799 50.139 31.863 50.7665 31.6046L48.4658 37.4841L46.7841 38.067L42.2112 39.6513L43.5289 35.7131C43.7341 35.0983 43.3117 34.4589 42.5844 34.2848C41.8565 34.1102 41.1007 34.4685 40.8949 35.0833L38.8129 41.3078C38.7858 41.3879 38.768 41.4758 38.7637 41.5595L38.2188 50.021C38.2024 50.3438 38.2836 50.9537 38.107 51.2687L32.0554 62.0316H27.6577C25.0814 62.0316 22.9858 63.8032 22.9858 65.9806V69.3195C22.396 69.0913 21.7414 68.9637 21.0512 68.9637H9.88323C7.3076 68.9637 5.21204 70.7346 5.21204 72.9126V77.0555H1.92696C1.17122 77.0555 0.558655 77.5733 0.558655 78.2122C0.558655 78.8511 1.17122 79.3689 1.92696 79.3689H82.6037C83.3594 79.3689 83.972 78.8511 83.972 78.2122C83.972 77.5733 83.3594 77.0555 82.6037 77.0555H79.0451V47.2396C79.0451 45.0622 76.9495 43.2907 74.3739 43.2907H66.0957V23.1106C67.6129 21.3722 68.1749 19.0936 67.4704 16.9282C67.36 16.588 67.0715 16.3086 66.6869 16.1707C66.4981 16.1027 66.2958 16.0726 66.0957 16.0792V13.9674H82.6044C83.4321 13.9674 84.1551 13.5447 84.4471 12.8908C84.7391 12.2368 84.5269 11.5155 83.9065 11.053ZM43.5097 20.3154C43.64 19.974 43.9193 19.6958 44.2968 19.5326L45.5212 19.0027C45.752 18.9027 45.9984 18.8552 46.242 18.8552C46.819 18.8552 47.3767 19.1219 47.6574 19.585L49.2415 22.1989C49.6112 22.8095 49.3718 23.5496 48.7144 23.9235L48.2685 24.1276L47.3276 24.5353C46.549 24.8725 45.5903 24.6112 45.1914 23.9524L43.6073 21.3391C43.4143 21.0199 43.3793 20.6562 43.5097 20.3154ZM40.7603 62.3875C40.2951 62.2081 39.7894 62.0906 39.258 62.0491L40.7603 60.3624V62.3875ZM47.2571 53.0667C47.9152 52.4001 48.0968 51.6215 48.2436 50.9941C48.2806 50.8447 48.9559 47.7268 48.9559 47.7268C48.9559 47.7268 49.5948 48.0634 49.6617 48.0875C49.708 48.1049 49.7408 48.1435 49.7458 48.1886L50.4901 54.5854H45.9044L47.2571 53.0667ZM55.3487 46.682L54.1933 54.5799H53.2396L52.4696 47.9622C52.3713 47.1144 51.7573 46.3743 50.8577 46.0064L49.4815 45.2688L50.3983 40.9736C50.3983 40.9736 54.2603 44.8521 54.35 44.9508C55.1492 45.8294 55.4227 46.181 55.3487 46.682ZM40.5687 52.2803C40.845 51.577 40.9732 50.861 40.9519 50.133L41.449 42.4158L47.7777 40.2233L46.6274 45.6102C46.6238 45.6246 46.6203 45.6397 46.6181 45.6542L45.6665 50.1083C45.5426 50.5696 45.4343 51.2693 45.0938 51.6492L35.8476 62.0316H35.0855L40.5687 52.2803ZM7.94866 72.912C7.94866 72.0106 8.81622 71.2771 9.88323 71.2771H21.0512C22.1182 71.2771 22.9865 72.0106 22.9865 72.912V77.0555H7.94866V72.912ZM25.7224 72.912V65.9806C25.7224 65.0785 26.5907 64.3451 27.6577 64.3451H38.8257C39.8927 64.3451 40.7603 65.0785 40.7603 65.9806V77.0555H25.7231V72.912H25.7224ZM76.3085 47.2396V77.0555H61.2713V70.1198C61.2713 69.4809 60.6588 68.9631 59.903 68.9631C59.1466 68.9631 58.534 69.4809 58.534 70.1198V77.0555H43.4969V58.5337C43.4969 57.6323 44.3644 56.8988 45.4315 56.8988H56.5994C57.6665 56.8988 58.534 57.6323 58.534 58.5337V64.3325C58.534 64.9714 59.1466 65.4892 59.9023 65.4892C60.6588 65.4892 61.2706 64.9714 61.2706 64.3325V47.2396C61.2706 46.3376 62.1389 45.6042 63.2059 45.6042H64.7131C64.7174 45.6042 64.7224 45.6048 64.7274 45.6048C64.7316 45.6048 64.7366 45.6042 64.7409 45.6042H74.3732C75.4402 45.6042 76.3085 46.3382 76.3085 47.2396ZM63.2059 43.2907C60.6303 43.2907 58.5347 45.0622 58.5347 47.2396V54.9412C58.0447 54.7521 57.5105 54.6323 56.9485 54.5974L58.0646 46.9669C58.284 45.4795 57.3865 44.4938 56.519 43.54C56.4271 43.4388 51.1084 38.1001 51.1084 38.1001L54.3714 29.7602L63.3591 25.1441V43.2907H63.2059ZM66.0957 11.6534V4.51358H80.5715L77.4538 6.83429C77.0293 7.15042 76.7857 7.60565 76.7857 8.08377C76.7857 8.56188 77.0293 9.01711 77.4538 9.33324L80.5715 11.654H66.0957V11.6534Z" fill="#B5243D"/>
</svg>
