<svg width="134" height="133" viewBox="0 0 134 133" fill="none" xmlns="http://www.w3.org/2000/svg">
<rect width="134" height="133" rx="66.5" fill="#B5243D"/>
<g clip-path="url(#clip0)">
<path d="M49.5169 40.4004H46.7502V43.2004H49.5169V40.4004Z" fill="white"/>
<path d="M55.0502 40.4004H52.2834V43.2004H55.0502V40.4004Z" fill="white"/>
<path d="M60.5834 40.4004H57.8169V43.2004H60.5834V40.4004Z" fill="white"/>
<path d="M91.0166 66.5718C91.0166 64.5082 89.5573 62.7667 87.5486 62.4292L82.9698 61.6565L83.8495 57.2002H95.1666V65.6002H97.9333V55.8003V50.2003V38.4656L108.235 33.252C108.704 33.0154 109 32.531 109 32.0004C109 31.4698 108.704 30.9854 108.235 30.7474L97.1683 25.1475C96.738 24.9319 96.229 24.9529 95.8223 25.2091C95.4156 25.4653 95.1666 25.9147 95.1666 26.4005V37.6004V48.8004H84.7363C86.056 47.3122 86.8666 45.3536 86.8666 43.2004C86.8666 38.5678 83.144 34.8004 78.5667 34.8004C73.9892 34.8004 70.2667 38.5678 70.2667 43.2004C70.2667 45.7147 71.3692 47.9687 73.104 49.5088L61.1866 60.2298L53.4497 64.1442L49.4824 63.4751C51.1962 61.9351 52.2834 59.6964 52.2834 57.2002C52.2834 52.5678 48.5609 48.8004 43.9836 48.8004C39.4062 48.8004 35.6836 52.5678 35.6836 57.2002C35.6836 59.7553 36.8207 62.0443 38.6052 63.5857C38.5858 63.6249 38.5582 63.6556 38.543 63.6963L34.2546 74.9802C33.4703 77.048 33.6819 79.3117 34.837 81.1919C35.057 81.5504 35.3129 81.8737 35.584 82.1804L31.8186 88.5321L26.4057 94.0103C25.8648 94.5576 25.8648 95.4424 26.4057 95.9898L30.5556 100.19C30.8254 100.463 31.1795 100.6 31.5337 100.6C31.8878 100.6 32.2419 100.463 32.5117 100.19L39.4283 93.1898C39.4933 93.124 39.5514 93.0526 39.6012 92.977L44.9146 84.9104L46.7502 85.0784V90.8001H45.3669C44.6019 90.8001 43.9836 91.4258 43.9836 92.2V102.286L27.0724 106.235C26.4444 106.382 26.0003 106.948 26.0003 107.6V109H28.767V108.714L45.6781 104.765C46.3061 104.618 46.7502 104.052 46.7502 103.4V93.6001H48.1336H55.0502H67.5002C67.8915 93.6001 68.2665 93.4321 68.5279 93.1366L80.5655 79.6002H82.7167H89.6333H109V76.8001H91.0166V66.5718ZM97.9333 28.6657L104.523 32.0004L97.9333 35.3352V28.6657ZM73.0334 43.2004C73.0334 40.112 75.515 37.6004 78.5667 37.6004C81.6183 37.6004 84.1 40.112 84.1 43.2004C84.1 46.2887 81.6183 48.8004 78.5667 48.8004C75.515 48.8004 73.0334 46.2887 73.0334 43.2004ZM71.0829 55.0723L68.9789 60.6078L65.071 63.5898L63.7845 61.6368L71.0829 55.0723ZM38.4503 57.2002C38.4503 54.1119 40.932 51.6003 43.9836 51.6003C47.0351 51.6003 49.5169 54.1119 49.5169 57.2002C49.5169 60.2887 47.0351 62.8002 43.9836 62.8002C40.932 62.8002 38.4503 60.2887 38.4503 57.2002ZM37.3754 91.3083L31.5337 97.2205L29.3397 95.0001L33.895 90.3899C33.9752 90.3087 34.0444 90.2191 34.1025 90.121L37.8167 83.8561C38.5208 84.1823 39.283 84.3923 40.0826 84.4666L41.7785 84.622L37.3754 91.3083ZM53.6669 90.8001H49.5169V83.8002C49.5169 83.0748 48.9704 82.4716 48.2594 82.4058L40.3344 81.6764C39.0271 81.556 37.8803 80.8405 37.1859 79.7122C36.4929 78.5838 36.3656 77.2272 36.8373 75.9867L40.7839 65.6002H45.2521L53.4399 66.9806C53.7291 67.0282 54.0251 66.9834 54.2852 66.8519L61.4924 63.2049L62.7594 65.1284L54.6822 69.8002H48.1336C47.4986 69.8002 46.9466 70.237 46.7917 70.8614L45.4084 76.4613C45.3144 76.8408 45.3807 77.2411 45.5938 77.5674C45.8041 77.8936 46.1416 78.1175 46.5234 78.1805L52.5117 79.1913C53.1799 79.3034 53.6669 79.8843 53.6669 80.5717V90.8001ZM81.3333 76.8001H79.95C79.5585 76.8001 79.1837 76.9681 78.9222 77.2636L66.8845 90.8001H56.4334V80.5717C56.4334 78.5082 54.9741 76.7666 52.9654 76.4292L48.4544 75.6676L49.2139 72.6001H55.0502C55.2909 72.6001 55.5274 72.5358 55.7364 72.4154L65.4195 66.8154C65.4402 66.8028 65.4527 66.7805 65.4735 66.7679C65.5025 66.7482 65.5372 66.7398 65.5662 66.7188L68.456 64.5138C68.5929 65.4476 68.9082 66.3577 69.4202 67.192C69.6402 67.5504 69.896 67.8738 70.1672 68.1804L66.4017 74.5321L60.9887 80.0103C60.4479 80.5578 60.4479 81.4426 60.9887 81.9899L65.1387 86.1899C65.4085 86.4629 65.7627 86.6001 66.1167 86.6001C66.4709 86.6001 66.825 86.4629 67.0947 86.1899L74.0114 79.19C74.0765 79.1242 74.1345 79.0527 74.1843 78.9772L79.4977 70.9104L81.3333 71.0784V76.8001ZM72.3998 69.8562C73.104 70.1823 73.8662 70.3923 74.6657 70.4666L76.3617 70.622L71.9572 77.3084L66.1167 83.2205L63.9227 81.0001L68.4782 76.39C68.5584 76.3087 68.6275 76.2192 68.6857 76.1212L72.3998 69.8562ZM88.25 76.8001H84.1V69.8002C84.1 69.0751 83.5535 68.4716 82.8425 68.4059L74.9175 67.6764C73.6102 67.556 72.4635 66.8407 71.769 65.7123C71.076 64.5839 70.9487 63.2272 71.4205 61.9869L75.367 51.6003H95.1666V54.4003H82.7167C82.0568 54.4003 81.4897 54.8722 81.361 55.526L79.9777 62.5259C79.9043 62.8983 79.9832 63.2832 80.1948 63.5969C80.408 63.9091 80.7372 64.1191 81.1065 64.1821L87.0948 65.1929C87.763 65.3034 88.25 65.8844 88.25 66.5718V76.8001Z" fill="white"/>
</g>
<defs>
<clipPath id="clip0">
<rect width="83" height="84" fill="white" transform="translate(26 25)"/>
</clipPath>
</defs>
</svg>
