<svg width="134" height="133" viewBox="0 0 134 133" fill="none" xmlns="http://www.w3.org/2000/svg">
<rect width="134" height="133" rx="66.5" fill="#B5243D"/>
<g clip-path="url(#clip0)">
<path d="M66.9724 33.9431C71.8123 33.9431 75.7892 37.7033 75.7892 42.3639C75.7892 47.025 71.8123 50.7849 66.9724 50.7849C62.1325 50.7849 58.1556 47.025 58.1556 42.3639C58.1556 37.7033 62.1325 33.9431 66.9724 33.9431Z" fill="#B5243D" stroke="white" stroke-width="3"/>
<path d="M77.9688 58.6923L77.9695 58.6925C77.97 58.6925 77.9704 58.6927 77.9706 58.6927C81.0662 59.6614 83.1781 62.4232 83.1785 65.5575C83.1785 65.5577 83.1785 65.5577 83.1785 65.5577V82.8098L76.7272 92.1636L76.4578 92.5538V93.0191V116.428H57.4872V93.0191V92.5538L57.218 92.1636L50.7666 82.8098V65.6034C50.7666 62.4572 52.8629 59.6903 55.9869 58.6889L55.9983 58.6856L56.0986 58.6569C56.1853 58.6319 56.3092 58.5963 56.4582 58.5538C56.7563 58.4682 57.1544 58.3544 57.5548 58.2408C57.8058 58.1696 58.0564 58.099 58.2833 58.0352L64.3326 73.8498L64.3327 73.85C65.2263 76.185 68.7187 76.185 69.6124 73.85L69.6125 73.8498L75.6678 58.0195L77.9688 58.6923Z" fill="#B5243D" stroke="white" stroke-width="3"/>
<path d="M87.7918 13.4329C84.8584 12.3071 82.5792 13.6221 81.4084 14.5955C80.2329 13.6258 77.9468 12.3161 75.0155 13.4406C73.3108 14.0945 71.9934 15.3683 71.3054 17.0272C70.5792 18.7787 70.6497 20.7636 71.499 22.473C73.4441 26.3871 77.4435 29.6752 80.456 31.7437C80.742 31.9403 81.0771 32.0385 81.4124 32.0385C81.7473 32.0385 82.0822 31.9403 82.3682 31.744C86.7293 28.7488 89.7373 25.6273 91.3082 22.4652C92.1575 20.7562 92.2282 18.7712 91.5018 17.0198C90.8138 15.3609 89.4964 14.0871 87.7918 13.4329ZM89.0272 21.4556C88.1068 23.3083 86.0404 26.1735 81.412 29.4541C76.7589 26.158 74.6942 23.3031 73.78 21.4633C73.2228 20.3416 73.176 19.0409 73.6513 17.8941C74.0851 16.8486 74.9065 16.0494 75.9641 15.6435C76.4296 15.4649 76.8676 15.3903 77.2753 15.3903C78.6292 15.3903 79.6454 16.2148 80.1973 16.8015C80.505 17.1291 80.9472 17.3167 81.4111 17.3167H81.4142C81.8792 17.3158 82.3219 17.1263 82.6294 16.7969C83.3416 16.0324 84.8359 14.8655 86.8429 15.6358C87.9012 16.0417 88.7222 16.8411 89.156 17.8867C89.6312 19.0332 89.5844 20.3342 89.0272 21.4556Z" fill="white"/>
</g>
<defs>
<clipPath id="clip0">
<rect width="43" height="105" fill="white" transform="translate(49 13)"/>
</clipPath>
</defs>
</svg>
