<svg width="100" height="100" viewBox="0 0 100 100" fill="none" xmlns="http://www.w3.org/2000/svg">
<rect width="100" height="100" rx="50" fill="white"/>
<path d="M88.4172 40.9138L86.4403 37.2654C86.031 36.5103 85.125 36.2517 84.4158 36.6875C83.7066 37.1239 83.4637 38.0895 83.873 38.8452L85.8499 42.4936C85.9541 42.6856 85.931 42.8688 85.908 42.9609C85.885 43.0531 85.819 43.2243 85.6385 43.3355L80.4107 46.551C80.1338 46.7205 79.78 46.6194 79.6204 46.3251L69.1036 26.9179C68.9445 26.6236 69.0393 26.2454 69.3156 26.0754L74.5428 22.86C74.8192 22.6904 75.1741 22.7911 75.3337 23.0855L77.2028 26.5356C77.6126 27.2913 78.5191 27.5499 79.2278 27.1135C79.9365 26.6777 80.1794 25.7115 79.7701 24.9564L77.901 21.5062C76.9243 19.7037 74.7533 19.0835 73.0611 20.1244L67.8333 23.3402C67.0393 23.829 66.4898 24.5978 66.2312 25.463H51.4116C49.3311 25.463 47.3746 26.3257 45.9033 27.8936L44.3849 29.5115C43.0534 29.1731 41.6899 28.9995 40.3181 28.9995H35.7163C35.4865 28.053 34.9155 27.2015 34.0603 26.6753L28.8327 23.4596C28.013 22.9554 27.0578 22.8216 26.144 23.0825C25.2299 23.3434 24.4658 23.9682 23.9927 24.8416L13.4763 44.2488C13.0031 45.1222 12.8773 46.1396 13.1222 47.1135C13.3671 48.088 13.9534 48.902 14.7731 49.4062L20.0007 52.6217C20.5572 52.9642 21.1654 53.1271 21.7662 53.1271C21.9851 53.1271 22.2029 53.1045 22.4169 53.0617L26.6956 57.621C26.63 57.9795 26.5961 58.347 26.5961 58.7204C26.5961 60.2377 27.1508 61.6647 28.1579 62.7374C29.1223 63.7648 30.3671 64.3148 31.6322 64.3891C31.6128 64.5877 31.6024 64.7875 31.6024 64.989C31.6024 66.507 32.1566 67.9334 33.1642 69.0066C34.1712 70.0799 35.5101 70.6709 36.9348 70.6709C36.9735 70.6709 37.0117 70.6685 37.0499 70.6679C37.0494 70.7089 37.0473 70.7494 37.0473 70.791C37.0473 72.3084 37.6021 73.7354 38.6092 74.808C39.6162 75.8812 40.9556 76.4722 42.3797 76.4722C42.4185 76.4722 42.4567 76.4704 42.4949 76.4693C42.4944 76.5103 42.4923 76.5513 42.4923 76.5923C42.4923 78.1097 43.0471 79.5367 44.0541 80.6099C45.0611 81.6826 46.4005 82.2742 47.8247 82.2742C49.2489 82.2742 50.5883 81.6832 51.5953 80.6099L53.7041 78.363C54.3222 77.7048 54.7551 76.9223 55.0058 76.0911C55.9422 76.8278 57.0554 77.1964 58.1692 77.1958C59.5343 77.1958 60.9004 76.6423 61.9398 75.5346C62.5616 74.8722 63.0102 74.0743 63.263 73.2038C64.1214 73.8014 65.1237 74.123 66.1726 74.123C67.5968 74.123 68.9362 73.532 69.9432 72.4588C70.6917 71.6614 71.1894 70.6685 71.3962 69.5887C71.9316 69.7772 72.4974 69.8771 73.0778 69.8771C74.502 69.8771 75.8414 69.2861 76.8484 68.2129C78.9274 65.9975 78.9274 62.3931 76.8484 60.1777L73.3887 56.4919L79.7036 49.763C79.8439 49.7808 79.9852 49.7909 80.127 49.7909C80.7279 49.7909 81.3361 49.6286 81.8925 49.2861L87.1202 46.0706C87.9393 45.5664 88.5261 44.7524 88.771 43.7785C89.016 42.804 88.8904 41.7872 88.4172 40.9138ZM16.2552 46.6705C16.0747 46.5594 16.0088 46.3887 15.9857 46.2965C15.9626 46.2044 15.9393 46.0213 16.0437 45.8286L26.5601 26.4208C26.6643 26.2282 26.8249 26.158 26.9114 26.1336C26.9483 26.1229 27.0008 26.1128 27.0627 26.1128C27.1462 26.1128 27.2468 26.1319 27.3502 26.1949L32.578 29.411C32.8538 29.581 32.9491 29.9586 32.7894 30.2529L22.2733 49.6607C22.1136 49.955 21.7593 50.0561 21.4829 49.8866L16.2552 46.6705ZM29.5606 58.7198C29.5606 58.0461 29.8071 57.4123 30.2541 56.936L31.5333 55.5726C31.9949 55.0809 32.6015 54.8348 33.2082 54.8348C33.8143 54.8348 34.4209 55.0809 34.8825 55.5726C35.3295 56.0495 35.576 56.6827 35.576 57.357C35.576 58.0306 35.3295 58.6645 34.8825 59.1407L33.6033 60.5035C32.68 61.4875 31.1774 61.4875 30.2541 60.5035C29.8071 60.0272 29.5606 59.394 29.5606 58.7198ZM36.9348 67.5125C36.302 67.5125 35.7074 67.2496 35.2604 66.7734C34.8129 66.2965 34.5669 65.6633 34.5669 64.989C34.5669 64.3154 34.8129 63.6816 35.2604 63.2053L37.3687 60.9584C37.8303 60.4666 38.437 60.2211 39.0431 60.2211C39.6497 60.2211 40.2563 60.4666 40.7179 60.9584C41.1649 61.4352 41.4114 62.0685 41.4114 62.7427C41.4114 63.4164 41.1649 64.0502 40.7179 64.5265L38.6092 66.7734C38.1622 67.2496 37.5671 67.5125 36.9348 67.5125ZM42.3797 73.3138C41.747 73.3138 41.1529 73.0516 40.7054 72.5747C40.2579 72.0985 40.0119 71.4646 40.0119 70.791C40.0119 70.1173 40.2579 69.4835 40.7054 69.0066L42.8142 66.7603C43.2753 66.2686 43.8819 66.0224 44.4885 66.0224C45.0946 66.0224 45.7013 66.2686 46.1629 66.7603C46.6099 67.2372 46.8564 67.8704 46.8564 68.5447C46.8564 69.2183 46.6099 69.8521 46.1629 70.3284L44.0541 72.5747C43.6071 73.0516 43.0125 73.3138 42.3797 73.3138ZM51.6079 76.1297L49.4991 78.3767C49.0521 78.8529 48.4575 79.1157 47.8247 79.1157C47.1924 79.1157 46.5978 78.8529 46.1503 78.3767C45.7034 77.8998 45.4568 77.2666 45.4568 76.5929C45.4568 75.9187 45.7034 75.2854 46.1503 74.8086L48.2591 72.5623C48.7208 72.0699 49.3269 71.8244 49.9335 71.8244C50.5396 71.8244 51.1462 72.0699 51.6079 72.5617C52.5311 73.5457 52.5311 75.1463 51.6079 76.1297ZM74.7527 65.9796C74.3052 66.4565 73.7106 66.7187 73.0778 66.7187C72.4456 66.7187 71.851 66.4565 71.4035 65.9796L57.2554 50.9052C56.677 50.2886 55.7386 50.2886 55.1591 50.9052C54.5803 51.5217 54.5803 52.5218 55.1591 53.1384L67.8475 66.6574C68.2945 67.1343 68.541 67.7675 68.541 68.4418C68.541 69.1154 68.2945 69.7493 67.8475 70.2255C67.4 70.7024 66.8054 70.9646 66.1731 70.9646C65.5403 70.9646 64.9457 70.7024 64.4987 70.2255L49.252 53.9809C48.6731 53.3644 47.7347 53.3644 47.1558 53.9809C46.5769 54.5975 46.5769 55.5976 47.1558 56.2142L59.8436 69.7332C60.2911 70.2101 60.5376 70.8433 60.5376 71.5176C60.5376 72.1912 60.2911 72.8251 59.8436 73.3013C58.9208 74.2848 57.4182 74.2854 56.4949 73.3013L53.7046 70.3278C53.7004 70.3242 53.6962 70.3207 53.6926 70.3165C52.6248 69.1862 51.2169 68.638 49.8183 68.6701C49.8189 68.6285 49.821 68.5863 49.821 68.5447C49.821 67.0267 49.2662 65.5997 48.2591 64.5271C47.1903 63.3878 45.7766 62.8361 44.3729 62.8682C44.3739 62.8265 44.376 62.7849 44.376 62.7427C44.376 61.2253 43.8212 59.7983 42.8142 58.7251C41.6449 57.4795 40.0637 56.9348 38.5343 57.0894C38.4731 55.6725 37.9261 54.3496 36.9782 53.3394C34.8993 51.1246 31.516 51.1246 29.437 53.3394L28.1579 54.7028C28.1564 54.7039 28.155 54.7057 28.1535 54.7075L24.862 51.2007L35.1803 32.158H40.3181C40.8211 32.158 41.323 32.1865 41.8223 32.2418L40.1281 34.0469C39.121 35.1202 38.5662 36.5472 38.5662 38.0645C38.5662 39.5825 39.121 41.0089 40.1281 42.0821C41.1675 43.1899 42.5331 43.7434 43.8987 43.7434C45.2642 43.7434 46.6298 43.1899 47.6693 42.0821L51.6707 37.819L74.7522 62.4115C75.6755 63.395 75.6755 64.9962 74.7527 65.9796ZM60.5115 42.7707C62.6684 41.1076 63.9905 38.4231 63.9905 35.5072C63.9905 34.635 63.3268 33.928 62.5082 33.928C61.6896 33.928 61.026 34.635 61.026 35.5072C61.026 37.5698 60.0032 39.4517 58.3713 40.491L52.7258 34.4756C52.147 33.8591 51.2101 33.843 50.6312 34.4596L45.573 39.8489C44.6497 40.8323 43.1476 40.8323 42.2243 39.8489C41.7768 39.372 41.5308 38.7388 41.5308 38.0645C41.5308 37.3909 41.7768 36.7571 42.2243 36.2802L47.9995 30.1269C48.9108 29.1559 50.1224 28.6214 51.4116 28.6214H66.6039L77.0531 47.9049C77.0777 47.9507 77.1049 47.9941 77.1311 48.0381L71.293 54.2586L60.5115 42.7707Z" fill="#B5243D"/>
</svg>
