<svg width="100" height="101" viewBox="0 0 100 101" fill="none" xmlns="http://www.w3.org/2000/svg">
<rect width="100" height="101" rx="50" fill="white"/>
<path d="M86.2489 33.38C86.2484 33.38 86.2484 33.38 86.2484 33.38L86.2459 33.3782L81.6233 32.7894C80.9734 32.7072 80.5219 32.1702 80.6143 31.5904C80.6587 31.3117 80.8257 31.0604 81.0781 30.8917L84.814 28.3914C85.3391 28.0401 85.4453 27.3755 85.0516 26.907L80.7738 21.8176C80.3797 21.349 79.6348 21.2541 79.1098 21.6055L75.3748 24.1057C74.8523 24.4597 74.1065 24.3685 73.7098 23.902C73.5172 23.6755 73.4347 23.3893 73.4807 23.1079L74.1415 18.9834C74.2344 18.4036 73.7834 17.8665 73.1339 17.7832C73.1334 17.7832 73.1329 17.7831 73.1325 17.7831L66.0784 16.884C65.4289 16.8007 64.8263 17.2031 64.7334 17.7828C64.7334 17.7829 64.7334 17.7829 64.7334 17.7831L64.0726 21.9077C63.9797 22.4874 63.3781 22.8904 62.7286 22.8079C62.416 22.7683 62.1344 22.6194 61.9453 22.3943L59.1443 19.0608C58.7506 18.5922 58.0058 18.4973 57.4808 18.8487L53.9098 21.2397C52.2942 21.0865 50.6648 21.0865 49.0492 21.2397C38.469 22.3187 30.1722 29.8472 29.1408 39.304C29.1087 39.6042 29.0968 39.9021 29.0802 40.2H28.7237C28.1598 40.201 27.6743 40.5552 27.5615 41.0481L26.7404 44.5326L23.451 42.5084C22.9789 42.2176 22.3414 42.2693 21.9359 42.6315L18.3708 45.8125C17.9658 46.1738 17.9079 46.7418 18.2329 47.1633L20.4908 50.0929L16.5847 50.8254C16.0383 50.932 15.6495 51.3643 15.6506 51.8633V56.1047C15.6503 56.606 16.0441 57.0392 16.5942 57.1426L20.5003 57.8751L18.2424 60.8051C17.9174 61.2261 17.9753 61.7942 18.3803 62.156L21.9453 65.3369C22.3508 65.6987 22.9884 65.7504 23.4605 65.4596L26.7439 63.4396L27.565 66.925C27.6778 67.4179 28.1634 67.7722 28.7273 67.7731H33.4805C34.0425 67.7736 34.5281 67.4221 34.6441 66.9316L35.465 63.4462L38.7486 65.461C39.2207 65.7509 39.8574 65.6992 40.2624 65.3379L42.1082 63.6858V66.7075C42.1136 68.2162 43.019 69.6075 44.4849 70.3592V76.2503C44.4849 78.5925 46.6132 80.4917 49.2383 80.4917H53.9918C56.6169 80.4917 58.7452 78.5925 58.7452 76.2503V70.3592C60.2107 69.6075 61.1165 68.2162 61.1219 66.7075V62.5112C61.154 60.745 62.1893 59.1151 63.8706 58.1829C64.8564 57.612 65.7919 56.9739 66.6681 56.2743L65.0826 54.6947C64.2988 55.321 63.4616 55.8923 62.579 56.4026C60.2191 57.7238 58.7748 60.0252 58.7452 62.5112V66.7075C58.7452 67.8789 57.6813 68.8284 56.3685 68.8284H46.8616C45.5488 68.8284 44.4849 67.8789 44.4849 66.7075V62.4229C44.4572 59.9843 43.0357 57.7276 40.7153 56.4388C31.2969 51.158 28.4588 40.0647 34.3769 31.6608C38.0492 26.4467 44.4577 23.2731 51.3597 23.2511C51.3419 23.2889 51.3261 23.3274 51.3133 23.3667C51.2688 23.645 51.3508 23.9277 51.54 24.1523L54.341 27.4849C54.6363 27.8259 54.665 28.2943 54.4126 28.6618C54.1696 29.0315 53.6994 29.2335 53.2242 29.172L48.6012 28.5823C47.9517 28.4992 47.3496 28.9018 47.2563 29.4812C47.2563 29.4816 47.2563 29.4821 47.2563 29.4826L46.2472 35.7796C46.1538 36.3594 46.6053 36.8965 47.2548 36.9796C47.2553 36.9796 47.2558 36.9801 47.2563 36.9801L51.8788 37.5693C52.5283 37.652 52.9802 38.189 52.8879 38.7688C52.8434 39.0475 52.6765 39.2984 52.4241 39.4675L48.6891 41.9667C48.1641 42.3177 48.0579 42.9825 48.4515 43.451L52.7298 48.5405C53.1235 49.0089 53.8683 49.1038 54.3933 48.7524L58.1293 46.2532C58.6553 45.9027 59.3996 45.9985 59.7928 46.4674C59.981 46.692 60.062 46.9735 60.018 47.2512L59.3582 51.3756C59.2648 51.9554 59.7157 52.4929 60.3657 52.5761C60.3657 52.5761 60.3657 52.5761 60.3662 52.5761L67.4248 53.4763C67.4806 53.4824 67.5364 53.4857 67.5922 53.4857C68.1839 53.4862 68.6857 53.0985 68.7702 52.5761L69.4296 48.4512C69.5219 47.8718 70.124 47.4687 70.7735 47.5509C71.0857 47.5909 71.3677 47.7398 71.5569 47.9649L74.3588 51.2971C74.7525 51.7656 75.4973 51.8605 76.0224 51.5095L81.7266 47.6924C82.2516 47.3409 82.3583 46.6761 81.9641 46.2076L79.1632 42.8754C78.8693 42.5338 78.8411 42.0658 79.092 41.6984C79.3301 41.3234 79.8043 41.1205 80.2804 41.1895L84.9029 41.7778C85.5529 41.861 86.155 41.4583 86.2484 40.879C86.2484 40.879 86.2484 40.879 86.2484 40.8785L87.256 34.5805C87.3493 34.0007 86.8984 33.4632 86.2489 33.38ZM46.8616 70.9489H56.3685V73.0694H46.8616V70.9489ZM46.8616 75.1903H56.3685V76.2503C56.3685 77.4217 55.3046 78.3712 53.9918 78.3712H49.2383C47.9255 78.3712 46.8616 77.4217 46.8616 76.2503V75.1903ZM37.4012 56.9053C38.0497 57.3785 38.7278 57.8192 39.4321 58.2252C40.5548 58.8585 41.3999 59.8161 41.8266 60.9386L39.2775 63.2085L36.8095 61.6904C35.7283 61.026 34.2485 61.2689 33.5037 62.233C33.3249 62.4647 33.1994 62.725 33.1347 62.9999L32.5124 65.6475H29.6875L29.0648 63.0041C28.7944 61.8581 27.534 61.1242 26.2496 61.3657C25.9416 61.4235 25.6496 61.5353 25.3904 61.6946L22.921 63.2085L20.7558 61.2811L22.4563 59.0798C23.2019 58.1157 22.9304 56.7954 21.85 56.1301C21.5906 55.9703 21.2983 55.858 20.9899 55.8002L18.0274 55.2434V52.7245L20.9899 52.1678C22.2739 51.9248 23.0942 50.7991 22.8219 49.6536C22.7573 49.3815 22.6336 49.1236 22.4575 48.8947L20.7558 46.6869L22.921 44.7595L25.3916 46.2776C26.4728 46.9415 27.9528 46.6977 28.6968 45.7331C28.8751 45.5019 29.0002 45.2416 29.0648 44.9672L29.2727 44.0848C29.4632 45.3069 29.7785 46.5102 30.2151 47.6806C26.305 48.0964 23.5131 51.2619 23.9792 54.7506C24.4453 58.2397 27.9932 60.7304 31.9034 60.3146C34.2569 60.0642 36.3175 58.7866 37.4012 56.9053ZM35.5554 55.4112C34.6683 57.612 31.9493 58.7542 29.4828 57.9625C27.0162 57.1708 25.736 54.7449 26.6233 52.5441C27.3021 50.8606 29.0937 49.7391 31.0993 49.7428C31.1146 49.7428 31.1289 49.7428 31.1443 49.7428C32.2373 51.8454 33.7294 53.7629 35.5554 55.4112ZM84.0569 39.5258L80.6108 39.0869C78.6618 38.8384 76.8561 40.0468 76.5775 41.7858C76.4437 42.6212 76.6877 43.4693 77.2547 44.1445L79.3429 46.6286L75.5403 49.1734L73.451 46.6902C72.2696 45.2848 70.0351 44.9996 68.46 46.0535C67.7038 46.5595 67.2035 47.3132 67.0696 48.1481L66.5881 51.2271L61.8835 50.6271L62.3755 47.5523C62.6545 45.8134 61.3007 44.2013 59.3517 43.9528C58.4153 43.833 57.464 44.0505 56.7073 44.557L53.9226 46.42L51.0708 43.0267L53.854 41.1628C55.4291 40.1089 55.7486 38.1153 54.5677 36.7094C54.0002 36.0347 53.1561 35.5884 52.2196 35.469L48.7736 35.0302L49.4463 30.8325L52.8923 31.2713C54.8413 31.5203 56.648 30.3123 56.9266 28.5733C57.061 27.7376 56.8175 26.8889 56.2495 26.2136L54.1543 23.7271L57.9574 21.1824L60.0462 23.6667C61.2276 25.0723 63.4621 25.3574 65.0372 24.3034C65.7939 23.7974 66.2937 23.0439 66.4281 22.2088L66.92 19.1339L71.6245 19.733L71.1326 22.8079C70.854 24.547 72.2083 26.1582 74.1578 26.4066C75.0938 26.5259 76.0446 26.3084 76.8008 25.8022L79.5855 23.9392L82.4373 27.3322L79.6531 29.1964C78.0775 30.2503 77.758 32.2439 78.9394 33.6493C79.5064 34.3245 80.351 34.7703 81.287 34.8902L84.733 35.329L84.0569 39.5258Z" fill="#B5243D"/>
<path d="M66.75 26.6948C61.4992 26.6948 57.2432 30.4926 57.2432 35.1775C57.2432 39.862 61.4992 43.6599 66.75 43.6599C72.0003 43.6599 76.2564 39.862 76.2564 35.1775C76.2505 30.4949 71.9979 26.7 66.75 26.6948ZM66.75 41.539C62.812 41.539 59.6199 38.6911 59.6199 35.1775C59.6199 31.6639 62.812 28.8154 66.75 28.8154C70.6875 28.8154 73.8802 31.6639 73.8802 35.1775C73.8752 38.6893 70.686 41.5352 66.75 41.539Z" fill="#B5243D"/>
<path d="M52.8035 63.5264H50.4268V66.7078H52.8035V63.5264Z" fill="#B5243D"/>
<path d="M46.4171 53.1125C39.0815 50.5556 35.4576 43.1764 38.3233 36.6313C39.4341 34.095 41.4271 31.9436 44.0097 30.4931L42.7394 28.699C34.9652 33.0689 32.6329 42.2344 37.5306 49.1709C39.4272 51.8575 42.2396 53.9305 45.5542 55.0859C48.4886 56.0886 50.4257 58.6019 50.4267 61.405H52.8034C52.8069 57.727 50.2667 54.4281 46.4171 53.1125Z" fill="#B5243D"/>
<path d="M82.5124 56.1038H74.1938V58.2251H82.5124V56.1038Z" fill="#B5243D"/>
<path d="M73.7661 61.6501L72.2449 63.2792L79.3754 68.5803L80.8967 66.9508L73.7661 61.6501Z" fill="#B5243D"/>
<path d="M69.4404 64.5859H67.0637V72.0088H69.4404V64.5859Z" fill="#B5243D"/>
<path d="M26.3702 32.8081L16.864 34.9279L17.4401 36.9839L26.9463 34.864L26.3702 32.8081Z" fill="#B5243D"/>
<path d="M20.2188 22.3726L18.8381 24.0973L27.1559 29.3984L28.5366 27.6738L20.2188 22.3726Z" fill="#B5243D"/>
<path d="M31.3226 16.6082L29.0201 17.1334L31.4505 25.615L33.7531 25.0897L31.3226 16.6082Z" fill="#B5243D"/>
</svg>
