<svg width="73" height="65" viewBox="0 0 73 65" fill="none" xmlns="http://www.w3.org/2000/svg">
<path d="M71.2489 17.38C71.2484 17.38 71.2484 17.38 71.2484 17.38L71.2459 17.3782L66.6233 16.7894C65.9733 16.7072 65.5219 16.1702 65.6143 15.5904C65.6587 15.3117 65.8257 15.0604 66.0781 14.8917L69.814 12.3914C70.3391 12.0401 70.4453 11.3755 70.0516 10.907L65.7738 5.81755C65.3797 5.34901 64.6348 5.25414 64.1098 5.6055L60.3748 8.10566C59.8523 8.4597 59.1065 8.3685 58.7098 7.90198C58.5172 7.67546 58.4347 7.38932 58.4807 7.10792L59.1415 2.98337C59.2344 2.40362 58.7834 1.86647 58.1339 1.78321C58.1334 1.78321 58.133 1.78307 58.1325 1.78307L51.0784 0.883955C50.4289 0.800696 49.8263 1.20308 49.7334 1.78284C49.7334 1.78293 49.7334 1.78293 49.7334 1.78307L49.0726 5.90767C48.9797 6.48738 48.3781 6.89042 47.7286 6.80787C47.416 6.76826 47.1344 6.61941 46.9453 6.39435L44.1443 3.06076C43.7506 2.59221 43.0058 2.49735 42.4808 2.84871L38.9098 5.23967C37.2942 5.08645 35.6648 5.08645 34.0492 5.23967C23.469 6.31865 15.1722 13.8472 14.1408 23.304C14.1087 23.6042 14.0968 23.9021 14.0802 24.2H13.7237C13.1598 24.201 12.6743 24.5552 12.5615 25.0481L11.7404 28.5326L8.45099 26.5084C7.9789 26.2176 7.34136 26.2693 6.93585 26.6315L3.37078 29.8125C2.96581 30.1738 2.90793 30.7418 3.23292 31.1633L5.49081 34.0929L1.58468 34.8254C1.03831 34.932 0.649452 35.3643 0.650637 35.8633V40.1047C0.650341 40.606 1.04414 41.0392 1.59416 41.1426L5.50029 41.8751L3.24241 44.8051C2.91741 45.2261 2.97535 45.7942 3.38026 46.156L6.94534 49.3369C7.35084 49.6987 7.98844 49.7504 8.46047 49.4596L11.7439 47.4396L12.565 50.925C12.6778 51.4179 13.1634 51.7722 13.7273 51.7731H18.4805C19.0425 51.7736 19.5281 51.4221 19.6441 50.9316L20.465 47.4462L23.7486 49.461C24.2207 49.7509 24.8574 49.6992 25.2624 49.3379L27.1082 47.6858V50.7075C27.1136 52.2162 28.019 53.6075 29.4849 54.3592V60.2503C29.4849 62.5925 31.6132 64.4917 34.2383 64.4917H38.9918C41.6169 64.4917 43.7452 62.5925 43.7452 60.2503V54.3592C45.2107 53.6075 46.1165 52.2162 46.1219 50.7075V46.5112C46.154 44.745 47.1893 43.1151 48.8706 42.1829C49.8564 41.612 50.7919 40.9739 51.6681 40.2743L50.0826 38.6947C49.2988 39.321 48.4616 39.8923 47.579 40.4026C45.2191 41.7238 43.7748 44.0252 43.7452 46.5112V50.7075C43.7452 51.8789 42.6813 52.8284 41.3685 52.8284H31.8616C30.5488 52.8284 29.4849 51.8789 29.4849 50.7075V46.4229C29.4572 43.9843 28.0357 41.7276 25.7153 40.4388C16.2969 35.158 13.4588 24.0647 19.3769 15.6608C23.0492 10.4467 29.4577 7.27308 36.3597 7.25109C36.3419 7.28886 36.3261 7.32744 36.3133 7.36667C36.2688 7.64497 36.3508 7.92768 36.54 8.15232L39.341 11.4849C39.6363 11.8259 39.665 12.2943 39.4126 12.6618C39.1696 13.0315 38.6994 13.2335 38.2242 13.172L33.6012 12.5823C32.9517 12.4992 32.3496 12.9018 32.2563 13.4812C32.2563 13.4816 32.2563 13.4821 32.2563 13.4826L31.2472 19.7796C31.1538 20.3594 31.6053 20.8965 32.2548 20.9796C32.2553 20.9796 32.2558 20.9801 32.2563 20.9801L36.8788 21.5693C37.5283 21.652 37.9802 22.189 37.8879 22.7688C37.8434 23.0475 37.6765 23.2984 37.4241 23.4675L33.6891 25.9667C33.1641 26.3177 33.0579 26.9825 33.4515 27.451L37.7298 32.5405C38.1235 33.0089 38.8683 33.1038 39.3933 32.7524L43.1293 30.2532C43.6553 29.9027 44.3996 29.9985 44.7928 30.4674C44.981 30.692 45.062 30.9735 45.018 31.2512L44.3582 35.3756C44.2648 35.9554 44.7157 36.4929 45.3657 36.5761C45.3657 36.5761 45.3657 36.5761 45.3662 36.5761L52.4248 37.4763C52.4806 37.4824 52.5364 37.4857 52.5922 37.4857C53.1839 37.4862 53.6857 37.0985 53.7702 36.5761L54.4296 32.4512C54.5219 31.8718 55.124 31.4687 55.7735 31.5509C56.0857 31.5909 56.3677 31.7398 56.5569 31.9649L59.3588 35.2971C59.7525 35.7656 60.4973 35.8605 61.0224 35.5095L66.7266 31.6924C67.2516 31.3409 67.3583 30.6761 66.9641 30.2076L64.1632 26.8754C63.8693 26.5338 63.8411 26.0658 64.092 25.6984C64.3301 25.3234 64.8043 25.1205 65.2804 25.1895L69.9029 25.7778C70.5529 25.861 71.155 25.4583 71.2484 24.879C71.2484 24.879 71.2484 24.879 71.2484 24.8785L72.256 18.5805C72.3493 18.0007 71.8984 17.4632 71.2489 17.38ZM31.8616 54.9489H41.3685V57.0694H31.8616V54.9489ZM31.8616 59.1903H41.3685V60.2503C41.3685 61.4217 40.3046 62.3712 38.9918 62.3712H34.2383C32.9255 62.3712 31.8616 61.4217 31.8616 60.2503V59.1903ZM22.4012 40.9053C23.0497 41.3785 23.7278 41.8192 24.4321 42.2252C25.5548 42.8585 26.3999 43.8161 26.8266 44.9386L24.2775 47.2085L21.8095 45.6904C20.7283 45.026 19.2485 45.2689 18.5037 46.233C18.3249 46.4647 18.1994 46.725 18.1347 46.9999L17.5124 49.6475H14.6875L14.0648 47.0041C13.7944 45.8581 12.534 45.1242 11.2496 45.3657C10.9416 45.4235 10.6496 45.5353 10.3904 45.6946L7.92097 47.2085L5.75579 45.2811L7.45634 43.0798C8.20185 42.1157 7.93035 40.7954 6.84996 40.1301C6.59061 39.9703 6.29826 39.858 5.98991 39.8002L3.02735 39.2434V36.7245L5.98991 36.1678C7.27394 35.9248 8.09418 34.7991 7.82189 33.6536C7.75728 33.3815 7.63356 33.1235 7.45753 32.8947L5.75579 30.6869L7.92097 28.7595L10.3916 30.2776C11.4728 30.9415 12.9528 30.6977 13.6968 29.7331C13.8751 29.5019 14.0002 29.2416 14.0648 28.9672L14.2727 28.0848C14.4632 29.3069 14.7785 30.5102 15.2151 31.6806C11.305 32.0964 8.51307 35.2619 8.97923 38.7506C9.44533 42.2397 12.9932 44.7304 16.9034 44.3146C19.2569 44.0642 21.3175 42.7866 22.4012 40.9053ZM20.5554 39.4112C19.6683 41.612 16.9493 42.7542 14.4828 41.9625C12.0162 41.1708 10.736 38.7449 11.6233 36.5441C12.3021 34.8606 14.0937 33.7391 16.0993 33.7428C16.1146 33.7428 16.1289 33.7428 16.1443 33.7428C17.2373 35.8454 18.7294 37.7629 20.5554 39.4112ZM69.0569 23.5258L65.6108 23.0869C63.6618 22.8384 61.8561 24.0468 61.5775 25.7858C61.4437 26.6212 61.6877 27.4693 62.2547 28.1445L64.3429 30.6286L60.5403 33.1734L58.451 30.6902C57.2696 29.2848 55.0351 28.9996 53.46 30.0535C52.7038 30.5595 52.2035 31.3132 52.0696 32.1481L51.5881 35.2271L46.8835 34.6271L47.3755 31.5523C47.6545 29.8134 46.3007 28.2013 44.3517 27.9528C43.4153 27.833 42.464 28.0505 41.7073 28.557L38.9226 30.42L36.0708 27.0267L38.854 25.1628C40.4291 24.1089 40.7486 22.1153 39.5677 20.7094C39.0002 20.0347 38.1561 19.5884 37.2196 19.469L33.7736 19.0302L34.4463 14.8325L37.8923 15.2713C39.8413 15.5203 41.648 14.3123 41.9266 12.5733C42.061 11.7376 41.8175 10.8889 41.2495 10.2136L39.1543 7.72715L42.9574 5.18244L45.0462 7.66672C46.2276 9.0723 48.4621 9.35736 50.0372 8.30343C50.7939 7.79739 51.2937 7.04393 51.4281 6.2088L51.92 3.13391L56.6245 3.73298L56.1326 6.80787C55.854 8.54705 57.2083 10.1582 59.1578 10.4066C60.0938 10.5259 61.0446 10.3084 61.8008 9.80218L64.5855 7.93919L67.4373 11.3322L64.6531 13.1964C63.0775 14.2503 62.758 16.2439 63.9394 17.6493C64.5064 18.3245 65.351 18.7703 66.287 18.8902L69.733 19.329L69.0569 23.5258Z" fill="#B5243D"/>
<path d="M51.75 10.6948C46.4992 10.6948 42.2432 14.4926 42.2432 19.1775C42.2432 23.862 46.4992 27.6599 51.75 27.6599C57.0003 27.6599 61.2564 23.862 61.2564 19.1775C61.2505 14.4949 56.9979 10.7 51.75 10.6948ZM51.75 25.539C47.812 25.539 44.6199 22.6911 44.6199 19.1775C44.6199 15.6639 47.812 12.8154 51.75 12.8154C55.6875 12.8154 58.8802 15.6639 58.8802 19.1775C58.8752 22.6893 55.686 25.5352 51.75 25.539Z" fill="#B5243D"/>
<path d="M37.8035 47.5264H35.4268V50.7078H37.8035V47.5264Z" fill="#B5243D"/>
<path d="M31.4171 37.1125C24.0815 34.5556 20.4576 27.1765 23.3233 20.6313C24.4341 18.095 26.4271 15.9436 29.0097 14.4931L27.7394 12.699C19.9652 17.0689 17.6329 26.2344 22.5306 33.1709C24.4272 35.8575 27.2396 37.9305 30.5542 39.0859C33.4886 40.0886 35.4257 42.6019 35.4267 45.405H37.8034C37.8069 41.727 35.2667 38.4281 31.4171 37.1125Z" fill="#B5243D"/>
<path d="M67.5124 40.1038H59.1938V42.2251H67.5124V40.1038Z" fill="#B5243D"/>
<path d="M58.7661 45.6501L57.2449 47.2792L64.3754 52.5803L65.8967 50.9508L58.7661 45.6501Z" fill="#B5243D"/>
<path d="M54.4404 48.5859H52.0637V56.0088H54.4404V48.5859Z" fill="#B5243D"/>
<path d="M11.3702 16.8081L1.86401 18.9279L2.44007 20.9839L11.9463 18.864L11.3702 16.8081Z" fill="#B5243D"/>
<path d="M5.21877 6.37256L3.83813 8.09729L12.1559 13.3984L13.5366 11.6738L5.21877 6.37256Z" fill="#B5243D"/>
<path d="M16.3226 0.608154L14.0201 1.1334L16.4505 9.61499L18.7531 9.08975L16.3226 0.608154Z" fill="#B5243D"/>
</svg>
