<svg width="68" height="78" viewBox="0 0 68 78" fill="none" xmlns="http://www.w3.org/2000/svg">
<rect width="68" height="78" rx="11" fill="#B5243D"/>
<rect x="14" width="54" height="78" fill="#B5243D"/>
<g clip-path="url(#clip0)">
<path d="M39.966 19C39.5889 19 39.2827 19.336 39.2827 19.75C39.2827 20.1639 39.5889 20.4999 39.966 20.4999C47.5019 20.4999 53.6327 27.2289 53.6327 35.5C53.6327 35.9139 53.9388 36.2499 54.316 36.2499C54.6939 36.2499 54.9993 35.9139 54.9993 35.5C54.9993 26.4018 48.2555 19 39.966 19Z" fill="white"/>
<path d="M39.966 23.5C39.5889 23.5 39.2827 23.836 39.2827 24.25C39.2827 24.6639 39.5889 24.9999 39.966 24.9999C45.2413 24.9999 49.5327 29.7099 49.5327 35.5C49.5327 35.9139 49.8388 36.2499 50.216 36.2499C50.5939 36.2499 50.8993 35.9139 50.8993 35.5C50.8993 28.8836 45.995 23.5 39.966 23.5Z" fill="white"/>
<path d="M39.966 28C39.5889 28 39.2827 28.336 39.2827 28.75C39.2827 29.1639 39.5889 29.4999 39.966 29.4999C42.9802 29.4999 45.4327 32.1917 45.4327 35.5C45.4327 35.9139 45.7388 36.2499 46.116 36.2499C46.4939 36.2499 46.7993 35.9139 46.7993 35.5C46.7993 31.3645 43.7338 28 39.966 28Z" fill="white"/>
<path d="M50.9776 47.1435C49.1183 46.875 47.2849 46.3741 45.5287 45.6563C43.8279 44.9565 41.8954 45.408 40.6012 46.8097L38.4412 49.1752C33.912 46.2442 30.1284 42.0998 27.4518 37.1385L29.6132 34.7716C30.891 33.3563 31.3037 31.2376 30.6649 29.3753C30.0096 27.4509 29.5524 25.4431 29.3064 23.3993C28.9791 20.8658 26.9803 18.99 24.6441 18.9998H18.6656C18.5262 18.9998 18.3868 19.0073 18.2488 19.0208C17.0071 19.1438 15.8831 19.7896 15.0842 20.8381C14.2854 21.8873 13.9068 23.2148 14.0203 24.588C14.6824 31.4191 16.8349 38.0768 20.2414 43.8368C23.3342 49.1677 27.5414 53.7765 32.4033 57.1605C37.6418 60.882 43.6912 63.2393 49.9116 63.9795C50.0524 63.993 50.1938 63.9997 50.336 63.9997C50.34 63.9997 50.3441 63.9997 50.3489 63.9997C52.9238 63.9877 55.0092 61.6837 54.999 58.8659V52.3267C55.053 49.734 53.3282 47.5065 50.9776 47.1435ZM53.6324 52.2997C53.6324 52.3057 53.6324 52.3125 53.6324 52.3184V58.8697C53.6392 60.8632 52.1639 62.4922 50.3442 62.5005C50.2376 62.496 50.1351 62.496 50.0449 62.4869C44.0494 61.7729 38.2054 59.4959 33.1399 55.8974C28.4414 52.6267 24.3796 48.1777 21.3907 43.0252C18.0977 37.4573 16.019 31.0268 15.3801 24.4411C15.3008 23.4796 15.568 22.5421 16.1331 21.8003C16.6983 21.0585 17.4929 20.6019 18.3717 20.5148C18.4694 20.5051 18.5672 20.4998 18.6655 20.4998H24.6502C24.6611 20.4998 24.672 20.4998 24.683 20.4998C26.3203 20.4998 27.7231 21.8311 27.952 23.6025C28.211 25.7513 28.6927 27.8708 29.3849 29.9025C29.8366 31.2195 29.5448 32.7165 28.6448 33.7133L26.1138 36.4852C25.8951 36.7245 25.85 37.0935 26.0024 37.3875C28.8984 42.9675 33.1221 47.5935 38.215 50.7652C38.4828 50.9325 38.8176 50.8815 39.035 50.6438L41.5633 47.8748C42.4769 46.8856 43.8456 46.5668 45.0496 47.0618C46.9028 47.8193 48.8373 48.3481 50.7923 48.63C52.4529 48.8865 53.674 50.4638 53.6324 52.2997Z" fill="white"/>
<path d="M24.2501 22H18.6652C18.6078 22 18.5511 22.003 18.4944 22.009C17.7981 22.078 17.3723 22.5114 17.181 22.7627C17.0273 22.9644 16.6761 23.515 16.7376 24.271C16.9959 26.9313 17.4632 29.5195 18.1281 31.9645C18.2169 32.2893 18.4882 32.5 18.7828 32.5C18.8477 32.5 18.9133 32.4903 18.9789 32.4686C19.3403 32.3501 19.5461 31.9323 19.438 31.5356C18.7971 29.1791 18.3461 26.6816 18.098 24.1248C18.0823 23.9344 18.1951 23.7701 18.2299 23.7236C18.2859 23.6501 18.4109 23.5234 18.6652 23.5001H24.2487C24.2494 23.5001 24.2494 23.5001 24.2494 23.5001C24.6266 23.5001 24.9328 23.1649 24.9328 22.7508C24.9334 22.3367 24.6273 22 24.2501 22Z" fill="white"/>
<path d="M51.5827 52C51.2055 52 50.8994 52.336 50.8994 52.75L50.8987 58.8692C50.8994 59.0379 50.8406 59.1969 50.7333 59.3154C50.626 59.4339 50.4838 59.4992 50.3486 59.4999L50.2857 59.4984C47.9508 59.2201 45.6944 58.7266 43.5795 58.0314C43.2194 57.9121 42.8374 58.1379 42.7288 58.5347C42.6201 58.9314 42.8258 59.3492 43.1873 59.4684C45.3815 60.1899 47.7205 60.7014 50.1505 60.9909C50.2065 60.9969 50.3206 60.9999 50.3371 60.9999C50.8544 60.9976 51.3395 60.7749 51.7038 60.3722C52.068 59.9687 52.2675 59.4332 52.2654 58.8662L52.2661 52.75C52.2661 52.336 51.9599 52 51.5827 52Z" fill="white"/>
</g>
<defs>
<clipPath id="clip0">
<rect width="41" height="45" fill="white" transform="translate(14 19)"/>
</clipPath>
</defs>
</svg>
