<svg width="68" height="69" viewBox="0 0 68 69" fill="none" xmlns="http://www.w3.org/2000/svg">
<g clip-path="url(#clip0)">
<path d="M14.5873 66.8718L12.5878 64.014C12.1633 63.407 11.3341 63.2643 10.736 63.6951C10.1379 64.126 9.99712 64.9672 10.4219 65.5742L12.4214 68.4321C12.6803 68.8023 13.0897 68.9998 13.5056 68.9998C13.7714 68.9998 14.0399 68.9189 14.2732 68.7509C14.8713 68.32 15.012 67.4788 14.5873 66.8718Z" fill="#343A40"/>
<path d="M29.9101 67.3754L27.7341 56.8518C26.6759 51.7345 23.7381 47.3096 19.4621 44.3921L14.8163 41.2222C12.9533 39.9514 10.4493 40.2247 8.89218 41.8358V25.5971C8.89218 23.4657 7.46007 21.6547 5.40945 21.1928C4.08599 20.8945 2.72094 21.2176 1.66362 22.0784C0.606439 22.9391 0.000152588 24.2217 0.000152588 25.5971V46.4927C0.000152588 49.2302 0.825712 51.8571 2.38745 54.0895L4.75588 57.475C5.01486 57.8452 5.42419 58.0426 5.84003 58.0426C6.10592 58.0426 6.37433 57.9618 6.60768 57.7937C7.20574 57.3629 7.34652 56.5217 6.92179 55.9147L4.55334 52.5292C3.31235 50.7553 2.65639 48.6679 2.65639 46.4925V25.5971C2.65639 25.0435 2.9005 24.5272 3.32603 24.1806C3.75143 23.8341 4.30086 23.7041 4.83397 23.8241C5.6594 24.01 6.23594 24.7391 6.23594 25.5971V42.1754C6.23594 44.5221 7.08568 46.758 8.62934 48.4976C8.69548 48.578 8.76348 48.6577 8.83533 48.7349C9.71734 49.6832 10.7543 50.8007 11.731 51.854L13.0983 53.3307C13.1027 53.3354 13.1075 53.3394 13.112 53.344C14.2817 54.6064 15.1444 55.5385 15.1624 55.5579C15.6643 56.1004 16.5049 56.1273 17.0396 55.6178C17.5743 55.1082 17.6007 54.2554 17.0984 53.7129C17.0743 53.6867 15.5197 52.0069 13.7443 50.092L10.699 46.8033C10.6913 46.7949 10.6842 46.7862 10.6765 46.7778C9.96251 45.9113 9.97141 44.6549 10.7198 43.7975C11.3819 43.0393 12.506 42.8937 13.3344 43.4588L17.9799 46.6288C21.6785 49.1523 24.2193 52.9793 25.1344 57.4053L27.3105 67.929C27.4419 68.5642 27.994 69.0001 28.609 69.0001C28.6993 69.0001 28.7911 68.9907 28.883 68.9712C29.6009 68.8183 30.0607 68.1038 29.9101 67.3754Z" fill="#343A40"/>
<path d="M9.83993 60.0861L9.83143 60.0739C9.4051 59.468 8.57582 59.3273 7.97883 59.7597C7.38184 60.192 7.24318 61.0336 7.66911 61.6394L7.67761 61.6515C7.93686 62.0201 8.34526 62.2166 8.7599 62.2166C9.02685 62.2166 9.29633 62.1352 9.53021 61.9658C10.1271 61.5334 10.2659 60.6918 9.83993 60.0861Z" fill="#343A40"/>
<path d="M66.3363 22.0784C65.2791 21.2177 63.9134 20.895 62.5906 21.1929C60.5399 21.6546 59.1077 23.4657 59.1077 25.5971V41.8358C57.5507 40.2247 55.0464 39.9514 53.1836 41.2223L48.5377 44.3921C44.2616 47.3095 41.324 51.7345 40.2658 56.8517L38.0898 67.3754C37.9392 68.1038 38.399 68.8182 39.1169 68.971C39.2088 68.9906 39.3007 69 39.3909 69C40.0061 69 40.558 68.5639 40.6894 67.9288L42.8654 57.405C43.7806 52.9792 46.3212 49.1521 50.0197 46.6288L54.6656 43.459C55.4937 42.8938 56.6178 43.0393 57.2802 43.7975C58.0276 44.6538 58.0376 45.9082 57.3263 46.7747C57.3178 46.7842 57.3097 46.7939 57.3012 46.8033C57.3012 46.8033 50.9255 53.6869 50.9015 53.7127C50.3993 54.2553 50.4257 55.1081 50.9603 55.6176C51.495 56.1272 52.3354 56.1004 52.8376 55.5578C52.8557 55.5384 58.2826 49.6834 59.1647 48.735C59.2365 48.6578 59.3045 48.5782 59.3706 48.4977C60.9142 46.7582 61.7641 44.5223 61.7641 42.1755V25.597C61.7641 24.7389 62.3406 24.0099 63.1662 23.824C63.6991 23.7041 64.2485 23.8341 64.6741 24.1805C65.0996 24.527 65.3438 25.0432 65.3438 25.597V46.4927C65.3438 48.6681 64.6878 50.7554 63.4468 52.5294L53.4127 66.8719C52.9881 67.4788 53.1287 68.3201 53.7268 68.751C53.9603 68.919 54.2285 68.9999 54.4944 68.9999C54.9101 68.9999 55.3196 68.8023 55.5786 68.4322L65.6127 54.0895C67.1744 51.8573 68 49.2303 68 46.4928V25.597C67.9996 24.2216 67.3934 22.9392 66.3363 22.0784Z" fill="#343A40"/>
<path d="M34 14.2926C30.7819 14.2926 28.1635 16.9495 28.1635 20.2149C28.1635 23.4802 30.7819 26.1371 34 26.1371C37.218 26.1371 39.8364 23.4802 39.8364 20.2149C39.8364 16.9495 37.218 14.2926 34 14.2926Z" fill="#343A40"/>
<path d="M53.9219 23.5554V16.8743L48.5205 15.7951C48.2253 14.7993 47.8332 13.8391 47.3453 12.9253L50.3592 8.33783L45.7048 3.61498L41.1838 6.67327C40.2832 6.17817 39.3371 5.78026 38.3556 5.48068L37.2922 0H30.7078L29.6443 5.48074C28.6629 5.78034 27.7166 6.17824 26.8162 6.67335L22.2951 3.61498L17.6407 8.33783L20.6547 12.9253C20.1668 13.8391 19.7746 14.7992 19.4793 15.7951L14.0781 16.8743V23.5553L19.4795 24.6346C19.7747 25.6304 20.1668 26.5906 20.6547 27.5043L17.6407 32.0919L22.2951 36.8147L26.8162 33.7564C27.7166 34.2515 28.6628 34.6495 29.6443 34.949L30.7078 40.4297H37.292L38.3557 34.9489C39.3371 34.6493 40.2834 34.2515 41.1838 33.7564L45.7049 36.8146L50.3593 32.0917L47.3453 27.5043C47.8332 26.5905 48.2254 25.6304 48.5207 24.6345L53.9219 23.5554ZM34 28.506C29.4949 28.506 25.829 24.7862 25.829 20.2148C25.829 15.6435 29.4949 11.9236 34 11.9236C38.5051 11.9236 42.171 15.6435 42.171 20.2148C42.171 24.7862 38.5051 28.506 34 28.506Z" fill="#343A40"/>
</g>
<defs>
<clipPath id="clip0">
<rect width="68" height="69" fill="white"/>
</clipPath>
</defs>
</svg>
