<svg width="90" height="88" viewBox="0 0 90 88" fill="none" xmlns="http://www.w3.org/2000/svg">
<path d="M45 27.7123C52.8139 27.7123 59.171 21.4965 59.171 13.8561C59.171 6.2158 52.8139 0 45 0C37.1861 0 30.829 6.2158 30.829 13.8561C30.829 21.4965 37.1861 27.7123 45 27.7123ZM45 2.80851C51.2301 2.80851 56.2986 7.76441 56.2986 13.8561C56.2986 19.9477 51.2301 24.9038 45 24.9038C38.7699 24.9038 33.7014 19.9477 33.7014 13.8561C33.7014 7.76441 38.7699 2.80851 45 2.80851Z" fill="#B5243D"/>
<path d="M45 33.3294C56.4534 33.3294 65.8574 42.0713 66.5987 53.0899H33.4072C32.6141 53.0899 31.9711 53.7184 31.9711 54.4941C31.9711 55.2698 32.6141 55.8984 33.4072 55.8984H68.0821C68.8753 55.8984 69.5183 55.2698 69.5183 54.4941C69.5183 41.2752 58.5195 30.5209 45 30.5209C31.4805 30.5209 20.4817 41.2752 20.4817 54.4941C20.4817 55.2698 21.1247 55.8984 21.9179 55.8984H27.6626C28.4557 55.8984 29.0987 55.2698 29.0987 54.4941C29.0987 53.7184 28.4557 53.0899 27.6626 53.0899H23.4012C24.1426 42.0713 33.5468 33.3294 45 33.3294V33.3294Z" fill="#B5243D"/>
<path d="M26.8868 70.7205L19.0083 69.4276L15.3162 62.5009C15.0688 62.0368 14.578 61.7456 14.0426 61.7456C13.5072 61.7456 13.0164 62.0368 12.769 62.5009L9.0769 69.4276L1.19845 70.7205C0.670517 70.8072 0.235645 71.1736 0.0701977 71.6714C-0.0952491 72.1691 0.0363042 72.7156 0.41124 73.089L6.0079 78.6629L4.83081 86.3888C4.75192 86.9067 4.97405 87.4242 5.4072 87.7318C5.83996 88.0396 6.41233 88.086 6.89143 87.8528L14.0424 84.3708L21.1934 87.8528C21.396 87.9512 21.6152 87.9999 21.8333 87.9999C22.1315 87.9999 22.4277 87.9093 22.6776 87.7316C23.1108 87.424 23.3329 86.9065 23.254 86.3886L22.0769 78.6628L27.6736 73.0888C28.0485 72.7154 28.1801 72.1689 28.0146 71.6712C27.8496 71.1736 27.4147 70.8072 26.8868 70.7205V70.7205ZM19.5265 77.1945C19.2111 77.5086 19.0644 77.9494 19.1309 78.3851L20.0073 84.1375L14.6829 81.5448C14.2799 81.3484 13.8057 81.3484 13.4025 81.5448L8.0779 84.1375L8.95435 78.3851C9.0208 77.9494 8.87431 77.5085 8.55873 77.1945L4.39154 73.0442L10.2576 72.0815C10.7019 72.0085 11.0854 71.736 11.2936 71.3455L14.0426 66.1879L16.7916 71.3455C16.9998 71.736 17.3833 72.0085 17.8276 72.0815L23.6937 73.0442L19.5265 77.1945V77.1945Z" fill="#B5243D"/>
<path d="M57.8441 70.7205L49.9657 69.4276L46.2736 62.5009C46.0262 62.0368 45.5354 61.7456 45 61.7456C44.4646 61.7456 43.9738 62.0368 43.7264 62.5009L40.0343 69.4276L32.1558 70.7205C31.6279 70.8072 31.193 71.1736 31.0276 71.6714C30.8621 72.1691 30.9937 72.7156 31.3686 73.089L36.9653 78.6629L35.7884 86.3888C35.7095 86.9067 35.9316 87.4242 36.3648 87.7318C36.7975 88.0396 37.3699 88.086 37.849 87.8528L45 84.3708L52.151 87.8528C52.3536 87.9512 52.5728 87.9999 52.7909 87.9999C53.0891 87.9999 53.3853 87.9093 53.6352 87.7316C54.0684 87.424 54.2905 86.9065 54.2116 86.3886L53.0347 78.6628L58.6314 73.0888C59.0063 72.7154 59.1378 72.1689 58.9724 71.6712C58.8069 71.1736 58.3721 70.8072 57.8441 70.7205V70.7205ZM50.4839 77.1945C50.1685 77.5086 50.0218 77.9494 50.0882 78.3851L50.9645 84.1375L45.6401 81.5448C45.4385 81.4467 45.2192 81.3977 45 81.3977C44.7807 81.3977 44.5613 81.4467 44.3598 81.5448L39.0355 84.1375L39.9117 78.3851C39.9782 77.9494 39.8317 77.5085 39.5161 77.1945L35.3489 73.0442L41.215 72.0815C41.6593 72.0085 42.0428 71.736 42.251 71.3455L45 66.1881L47.749 71.3456C47.9572 71.7362 48.3407 72.0086 48.785 72.0817L54.6511 73.0444L50.4839 77.1945V77.1945Z" fill="#B5243D"/>
<path d="M89.9297 71.6714C89.7642 71.1736 89.3296 70.8072 88.8014 70.7205L80.923 69.4276L77.2309 62.5009C76.9835 62.0368 76.4927 61.7456 75.9573 61.7456C75.4219 61.7456 74.9311 62.0368 74.6837 62.5009L70.9916 69.4276L63.1131 70.7205C62.5852 70.8072 62.1503 71.1736 61.9849 71.6714C61.8194 72.1691 61.951 72.7156 62.3259 73.089L67.9226 78.6629L66.7455 86.3888C66.6666 86.9067 66.8887 87.4242 67.3219 87.7318C67.7547 88.0396 68.327 88.086 68.8061 87.8528L75.9571 84.3708L83.1081 87.8528C83.3107 87.9512 83.5299 87.9999 83.748 87.9999C84.0462 87.9999 84.3424 87.9093 84.5923 87.7316C85.0255 87.424 85.2476 86.9065 85.1687 86.3886L83.9916 78.6628L89.5883 73.0888C89.9636 72.7156 90.0951 72.1691 89.9297 71.6714V71.6714ZM81.4413 77.1945C81.126 77.5086 80.9793 77.9494 81.0457 78.3851L81.9222 84.1375L76.5976 81.5448C76.396 81.4467 76.1767 81.3977 75.9575 81.3977C75.738 81.3977 75.5188 81.4467 75.3173 81.5448L69.993 84.1375L70.8694 78.3851C70.9359 77.9494 70.7894 77.5085 70.4738 77.1945L66.3066 73.0442L72.1727 72.0815C72.617 72.0085 73.0005 71.736 73.2087 71.3455L75.9577 66.1879L78.7067 71.3455C78.9148 71.736 79.2984 72.0085 79.7426 72.0815L85.6087 73.0442L81.4413 77.1945V77.1945Z" fill="#B5243D"/>
<path d="M45 20.223C46.8825 20.223 48.6735 19.4232 49.9136 18.0285C50.4339 17.4432 50.3707 16.5562 49.7721 16.0473C49.1733 15.5384 48.2662 15.6004 47.746 16.1857C47.0518 16.9667 46.0507 17.4145 45 17.4145C43.9493 17.4145 42.9484 16.9667 42.254 16.1857C41.7336 15.6004 40.8265 15.5386 40.2279 16.0473C39.6293 16.5562 39.5659 17.4432 40.0864 18.0285C41.3265 19.423 43.1175 20.223 45 20.223V20.223Z" fill="#B5243D"/>
</svg>
